ISO-10303-21;
HEADER;
/* Generated by software containing ST-Developer
 * from STEP Tools, Inc. (www.steptools.com) 
 */

FILE_DESCRIPTION(
/* description */ (''),
/* implementation_level */ '2;1');

FILE_NAME(
/* name */ 'Bottom.step',
/* time_stamp */ '2026-06-04T18:25:13+06:00',
/* author */ (''),
/* organization */ (''),
/* preprocessor_version */ 'ST-DEVELOPER v20.1',
/* originating_system */ 'Autodesk Translation Framework v15.8.0.0',
/* authorisation */ '');

FILE_SCHEMA (('AUTOMOTIVE_DESIGN { 1 0 10303 214 3 1 1 }'));
ENDSEC;

DATA;
#10=MECHANICAL_DESIGN_GEOMETRIC_PRESENTATION_REPRESENTATION('',(#13),#724);
#11=SHAPE_REPRESENTATION_RELATIONSHIP('SRR','None',#731,#12);
#12=ADVANCED_BREP_SHAPE_REPRESENTATION('',(#14),#723);
#13=STYLED_ITEM('',(#741),#14);
#14=MANIFOLD_SOLID_BREP('Body1',#440);
#15=FACE_BOUND('',#88,.T.);
#16=FACE_BOUND('',#90,.T.);
#17=FACE_BOUND('',#91,.T.);
#18=FACE_BOUND('',#92,.T.);
#19=FACE_BOUND('',#93,.T.);
#20=FACE_BOUND('',#94,.T.);
#21=FACE_BOUND('',#99,.T.);
#22=FACE_BOUND('',#100,.T.);
#23=FACE_BOUND('',#101,.T.);
#24=FACE_BOUND('',#103,.T.);
#25=FACE_BOUND('',#104,.T.);
#26=FACE_BOUND('',#105,.T.);
#27=FACE_BOUND('',#106,.T.);
#28=FACE_BOUND('',#107,.T.);
#29=FACE_BOUND('',#108,.T.);
#30=FACE_BOUND('',#109,.T.);
#31=CIRCLE('',#459,2.35);
#32=CIRCLE('',#460,2.35);
#33=CIRCLE('',#462,2.35);
#34=CIRCLE('',#463,2.35);
#35=CIRCLE('',#465,2.35);
#36=CIRCLE('',#466,2.35);
#37=CIRCLE('',#468,2.35);
#38=CIRCLE('',#469,2.35);
#39=CIRCLE('',#479,3.);
#40=CIRCLE('',#480,3.);
#41=CIRCLE('',#482,3.);
#42=CIRCLE('',#483,3.);
#43=CIRCLE('',#485,3.);
#44=CIRCLE('',#486,3.);
#45=CYLINDRICAL_SURFACE('',#458,2.35);
#46=CYLINDRICAL_SURFACE('',#461,2.35);
#47=CYLINDRICAL_SURFACE('',#464,2.35);
#48=CYLINDRICAL_SURFACE('',#467,2.35);
#49=CYLINDRICAL_SURFACE('',#478,3.);
#50=CYLINDRICAL_SURFACE('',#481,3.);
#51=CYLINDRICAL_SURFACE('',#484,3.);
#52=FACE_OUTER_BOUND('',#73,.T.);
#53=FACE_OUTER_BOUND('',#74,.T.);
#54=FACE_OUTER_BOUND('',#75,.T.);
#55=FACE_OUTER_BOUND('',#76,.T.);
#56=FACE_OUTER_BOUND('',#77,.T.);
#57=FACE_OUTER_BOUND('',#78,.T.);
#58=FACE_OUTER_BOUND('',#79,.T.);
#59=FACE_OUTER_BOUND('',#80,.T.);
#60=FACE_OUTER_BOUND('',#81,.T.);
#61=FACE_OUTER_BOUND('',#82,.T.);
#62=FACE_OUTER_BOUND('',#83,.T.);
#63=FACE_OUTER_BOUND('',#84,.T.);
#64=FACE_OUTER_BOUND('',#85,.T.);
#65=FACE_OUTER_BOUND('',#86,.T.);
#66=FACE_OUTER_BOUND('',#87,.T.);
#67=FACE_OUTER_BOUND('',#89,.T.);
#68=FACE_OUTER_BOUND('',#95,.T.);
#69=FACE_OUTER_BOUND('',#96,.T.);
#70=FACE_OUTER_BOUND('',#97,.T.);
#71=FACE_OUTER_BOUND('',#98,.T.);
#72=FACE_OUTER_BOUND('',#102,.T.);
#73=EDGE_LOOP('',(#291,#292,#293,#294));
#74=EDGE_LOOP('',(#295,#296,#297,#298));
#75=EDGE_LOOP('',(#299,#300,#301,#302));
#76=EDGE_LOOP('',(#303,#304,#305,#306,#307,#308,#309,#310));
#77=EDGE_LOOP('',(#311,#312,#313,#314));
#78=EDGE_LOOP('',(#315,#316,#317,#318));
#79=EDGE_LOOP('',(#319,#320,#321,#322));
#80=EDGE_LOOP('',(#323,#324,#325,#326));
#81=EDGE_LOOP('',(#327,#328,#329,#330));
#82=EDGE_LOOP('',(#331,#332,#333,#334));
#83=EDGE_LOOP('',(#335,#336,#337,#338));
#84=EDGE_LOOP('',(#339,#340,#341,#342));
#85=EDGE_LOOP('',(#343,#344,#345,#346));
#86=EDGE_LOOP('',(#347,#348,#349,#350));
#87=EDGE_LOOP('',(#351,#352,#353,#354));
#88=EDGE_LOOP('',(#355,#356,#357,#358));
#89=EDGE_LOOP('',(#359,#360,#361,#362));
#90=EDGE_LOOP('',(#363,#364,#365,#366));
#91=EDGE_LOOP('',(#367));
#92=EDGE_LOOP('',(#368));
#93=EDGE_LOOP('',(#369));
#94=EDGE_LOOP('',(#370));
#95=EDGE_LOOP('',(#371,#372,#373,#374));
#96=EDGE_LOOP('',(#375,#376,#377,#378));
#97=EDGE_LOOP('',(#379,#380,#381,#382));
#98=EDGE_LOOP('',(#383,#384,#385,#386,#387,#388,#389,#390));
#99=EDGE_LOOP('',(#391));
#100=EDGE_LOOP('',(#392));
#101=EDGE_LOOP('',(#393));
#102=EDGE_LOOP('',(#394,#395,#396,#397));
#103=EDGE_LOOP('',(#398));
#104=EDGE_LOOP('',(#399));
#105=EDGE_LOOP('',(#400));
#106=EDGE_LOOP('',(#401));
#107=EDGE_LOOP('',(#402));
#108=EDGE_LOOP('',(#403));
#109=EDGE_LOOP('',(#404));
#110=LINE('',#608,#153);
#111=LINE('',#610,#154);
#112=LINE('',#612,#155);
#113=LINE('',#613,#156);
#114=LINE('',#616,#157);
#115=LINE('',#618,#158);
#116=LINE('',#619,#159);
#117=LINE('',#622,#160);
#118=LINE('',#624,#161);
#119=LINE('',#625,#162);
#120=LINE('',#628,#163);
#121=LINE('',#630,#164);
#122=LINE('',#632,#165);
#123=LINE('',#634,#166);
#124=LINE('',#635,#167);
#125=LINE('',#640,#168);
#126=LINE('',#646,#169);
#127=LINE('',#652,#170);
#128=LINE('',#658,#171);
#129=LINE('',#662,#172);
#130=LINE('',#664,#173);
#131=LINE('',#665,#174);
#132=LINE('',#668,#175);
#133=LINE('',#670,#176);
#134=LINE('',#671,#177);
#135=LINE('',#673,#178);
#136=LINE('',#674,#179);
#137=LINE('',#678,#180);
#138=LINE('',#680,#181);
#139=LINE('',#682,#182);
#140=LINE('',#683,#183);
#141=LINE('',#686,#184);
#142=LINE('',#688,#185);
#143=LINE('',#689,#186);
#144=LINE('',#692,#187);
#145=LINE('',#694,#188);
#146=LINE('',#695,#189);
#147=LINE('',#697,#190);
#148=LINE('',#698,#191);
#149=LINE('',#699,#192);
#150=LINE('',#705,#193);
#151=LINE('',#711,#194);
#152=LINE('',#717,#195);
#153=VECTOR('',#493,10.);
#154=VECTOR('',#494,10.);
#155=VECTOR('',#495,10.);
#156=VECTOR('',#496,10.);
#157=VECTOR('',#499,10.);
#158=VECTOR('',#500,10.);
#159=VECTOR('',#501,10.);
#160=VECTOR('',#504,10.);
#161=VECTOR('',#505,10.);
#162=VECTOR('',#506,10.);
#163=VECTOR('',#509,10.);
#164=VECTOR('',#510,10.);
#165=VECTOR('',#511,10.);
#166=VECTOR('',#512,10.);
#167=VECTOR('',#513,10.);
#168=VECTOR('',#518,2.35);
#169=VECTOR('',#525,2.35);
#170=VECTOR('',#532,2.35);
#171=VECTOR('',#539,2.35);
#172=VECTOR('',#544,10.);
#173=VECTOR('',#545,10.);
#174=VECTOR('',#546,10.);
#175=VECTOR('',#549,10.);
#176=VECTOR('',#550,10.);
#177=VECTOR('',#551,10.);
#178=VECTOR('',#554,10.);
#179=VECTOR('',#555,10.);
#180=VECTOR('',#558,10.);
#181=VECTOR('',#559,10.);
#182=VECTOR('',#560,10.);
#183=VECTOR('',#561,10.);
#184=VECTOR('',#564,10.);
#185=VECTOR('',#565,10.);
#186=VECTOR('',#566,10.);
#187=VECTOR('',#569,10.);
#188=VECTOR('',#570,10.);
#189=VECTOR('',#571,10.);
#190=VECTOR('',#574,10.);
#191=VECTOR('',#575,10.);
#192=VECTOR('',#576,10.);
#193=VECTOR('',#583,3.);
#194=VECTOR('',#590,3.);
#195=VECTOR('',#597,3.);
#196=VERTEX_POINT('',#606);
#197=VERTEX_POINT('',#607);
#198=VERTEX_POINT('',#609);
#199=VERTEX_POINT('',#611);
#200=VERTEX_POINT('',#615);
#201=VERTEX_POINT('',#617);
#202=VERTEX_POINT('',#621);
#203=VERTEX_POINT('',#623);
#204=VERTEX_POINT('',#627);
#205=VERTEX_POINT('',#629);
#206=VERTEX_POINT('',#631);
#207=VERTEX_POINT('',#633);
#208=VERTEX_POINT('',#637);
#209=VERTEX_POINT('',#639);
#210=VERTEX_POINT('',#643);
#211=VERTEX_POINT('',#645);
#212=VERTEX_POINT('',#649);
#213=VERTEX_POINT('',#651);
#214=VERTEX_POINT('',#655);
#215=VERTEX_POINT('',#657);
#216=VERTEX_POINT('',#661);
#217=VERTEX_POINT('',#663);
#218=VERTEX_POINT('',#667);
#219=VERTEX_POINT('',#669);
#220=VERTEX_POINT('',#676);
#221=VERTEX_POINT('',#677);
#222=VERTEX_POINT('',#679);
#223=VERTEX_POINT('',#681);
#224=VERTEX_POINT('',#685);
#225=VERTEX_POINT('',#687);
#226=VERTEX_POINT('',#691);
#227=VERTEX_POINT('',#693);
#228=VERTEX_POINT('',#702);
#229=VERTEX_POINT('',#704);
#230=VERTEX_POINT('',#708);
#231=VERTEX_POINT('',#710);
#232=VERTEX_POINT('',#714);
#233=VERTEX_POINT('',#716);
#234=EDGE_CURVE('',#196,#197,#110,.T.);
#235=EDGE_CURVE('',#198,#196,#111,.T.);
#236=EDGE_CURVE('',#199,#198,#112,.T.);
#237=EDGE_CURVE('',#199,#197,#113,.T.);
#238=EDGE_CURVE('',#197,#200,#114,.T.);
#239=EDGE_CURVE('',#201,#199,#115,.T.);
#240=EDGE_CURVE('',#201,#200,#116,.T.);
#241=EDGE_CURVE('',#202,#196,#117,.T.);
#242=EDGE_CURVE('',#203,#202,#118,.T.);
#243=EDGE_CURVE('',#198,#203,#119,.T.);
#244=EDGE_CURVE('',#204,#203,#120,.T.);
#245=EDGE_CURVE('',#204,#205,#121,.T.);
#246=EDGE_CURVE('',#206,#205,#122,.T.);
#247=EDGE_CURVE('',#207,#206,#123,.T.);
#248=EDGE_CURVE('',#201,#207,#124,.T.);
#249=EDGE_CURVE('',#208,#208,#31,.T.);
#250=EDGE_CURVE('',#208,#209,#125,.T.);
#251=EDGE_CURVE('',#209,#209,#32,.T.);
#252=EDGE_CURVE('',#210,#210,#33,.T.);
#253=EDGE_CURVE('',#210,#211,#126,.T.);
#254=EDGE_CURVE('',#211,#211,#34,.T.);
#255=EDGE_CURVE('',#212,#212,#35,.T.);
#256=EDGE_CURVE('',#212,#213,#127,.T.);
#257=EDGE_CURVE('',#213,#213,#36,.T.);
#258=EDGE_CURVE('',#214,#214,#37,.T.);
#259=EDGE_CURVE('',#214,#215,#128,.T.);
#260=EDGE_CURVE('',#215,#215,#38,.T.);
#261=EDGE_CURVE('',#207,#216,#129,.T.);
#262=EDGE_CURVE('',#217,#206,#130,.T.);
#263=EDGE_CURVE('',#216,#217,#131,.T.);
#264=EDGE_CURVE('',#216,#218,#132,.T.);
#265=EDGE_CURVE('',#219,#217,#133,.T.);
#266=EDGE_CURVE('',#218,#219,#134,.T.);
#267=EDGE_CURVE('',#218,#204,#135,.T.);
#268=EDGE_CURVE('',#205,#219,#136,.T.);
#269=EDGE_CURVE('',#220,#221,#137,.T.);
#270=EDGE_CURVE('',#220,#222,#138,.T.);
#271=EDGE_CURVE('',#223,#222,#139,.T.);
#272=EDGE_CURVE('',#221,#223,#140,.T.);
#273=EDGE_CURVE('',#221,#224,#141,.T.);
#274=EDGE_CURVE('',#225,#223,#142,.T.);
#275=EDGE_CURVE('',#224,#225,#143,.T.);
#276=EDGE_CURVE('',#224,#226,#144,.T.);
#277=EDGE_CURVE('',#227,#225,#145,.T.);
#278=EDGE_CURVE('',#226,#227,#146,.T.);
#279=EDGE_CURVE('',#226,#220,#147,.T.);
#280=EDGE_CURVE('',#222,#227,#148,.T.);
#281=EDGE_CURVE('',#200,#202,#149,.T.);
#282=EDGE_CURVE('',#228,#228,#39,.T.);
#283=EDGE_CURVE('',#228,#229,#150,.T.);
#284=EDGE_CURVE('',#229,#229,#40,.T.);
#285=EDGE_CURVE('',#230,#230,#41,.T.);
#286=EDGE_CURVE('',#230,#231,#151,.T.);
#287=EDGE_CURVE('',#231,#231,#42,.T.);
#288=EDGE_CURVE('',#232,#232,#43,.T.);
#289=EDGE_CURVE('',#232,#233,#152,.T.);
#290=EDGE_CURVE('',#233,#233,#44,.T.);
#291=ORIENTED_EDGE('',*,*,#234,.F.);
#292=ORIENTED_EDGE('',*,*,#235,.F.);
#293=ORIENTED_EDGE('',*,*,#236,.F.);
#294=ORIENTED_EDGE('',*,*,#237,.T.);
#295=ORIENTED_EDGE('',*,*,#238,.F.);
#296=ORIENTED_EDGE('',*,*,#237,.F.);
#297=ORIENTED_EDGE('',*,*,#239,.F.);
#298=ORIENTED_EDGE('',*,*,#240,.T.);
#299=ORIENTED_EDGE('',*,*,#241,.F.);
#300=ORIENTED_EDGE('',*,*,#242,.F.);
#301=ORIENTED_EDGE('',*,*,#243,.F.);
#302=ORIENTED_EDGE('',*,*,#235,.T.);
#303=ORIENTED_EDGE('',*,*,#239,.T.);
#304=ORIENTED_EDGE('',*,*,#236,.T.);
#305=ORIENTED_EDGE('',*,*,#243,.T.);
#306=ORIENTED_EDGE('',*,*,#244,.F.);
#307=ORIENTED_EDGE('',*,*,#245,.T.);
#308=ORIENTED_EDGE('',*,*,#246,.F.);
#309=ORIENTED_EDGE('',*,*,#247,.F.);
#310=ORIENTED_EDGE('',*,*,#248,.F.);
#311=ORIENTED_EDGE('',*,*,#249,.F.);
#312=ORIENTED_EDGE('',*,*,#250,.T.);
#313=ORIENTED_EDGE('',*,*,#251,.F.);
#314=ORIENTED_EDGE('',*,*,#250,.F.);
#315=ORIENTED_EDGE('',*,*,#252,.F.);
#316=ORIENTED_EDGE('',*,*,#253,.T.);
#317=ORIENTED_EDGE('',*,*,#254,.F.);
#318=ORIENTED_EDGE('',*,*,#253,.F.);
#319=ORIENTED_EDGE('',*,*,#255,.F.);
#320=ORIENTED_EDGE('',*,*,#256,.T.);
#321=ORIENTED_EDGE('',*,*,#257,.F.);
#322=ORIENTED_EDGE('',*,*,#256,.F.);
#323=ORIENTED_EDGE('',*,*,#258,.F.);
#324=ORIENTED_EDGE('',*,*,#259,.T.);
#325=ORIENTED_EDGE('',*,*,#260,.F.);
#326=ORIENTED_EDGE('',*,*,#259,.F.);
#327=ORIENTED_EDGE('',*,*,#261,.F.);
#328=ORIENTED_EDGE('',*,*,#247,.T.);
#329=ORIENTED_EDGE('',*,*,#262,.F.);
#330=ORIENTED_EDGE('',*,*,#263,.F.);
#331=ORIENTED_EDGE('',*,*,#264,.F.);
#332=ORIENTED_EDGE('',*,*,#263,.T.);
#333=ORIENTED_EDGE('',*,*,#265,.F.);
#334=ORIENTED_EDGE('',*,*,#266,.F.);
#335=ORIENTED_EDGE('',*,*,#267,.F.);
#336=ORIENTED_EDGE('',*,*,#266,.T.);
#337=ORIENTED_EDGE('',*,*,#268,.F.);
#338=ORIENTED_EDGE('',*,*,#245,.F.);
#339=ORIENTED_EDGE('',*,*,#269,.F.);
#340=ORIENTED_EDGE('',*,*,#270,.T.);
#341=ORIENTED_EDGE('',*,*,#271,.F.);
#342=ORIENTED_EDGE('',*,*,#272,.F.);
#343=ORIENTED_EDGE('',*,*,#273,.F.);
#344=ORIENTED_EDGE('',*,*,#272,.T.);
#345=ORIENTED_EDGE('',*,*,#274,.F.);
#346=ORIENTED_EDGE('',*,*,#275,.F.);
#347=ORIENTED_EDGE('',*,*,#276,.F.);
#348=ORIENTED_EDGE('',*,*,#275,.T.);
#349=ORIENTED_EDGE('',*,*,#277,.F.);
#350=ORIENTED_EDGE('',*,*,#278,.F.);
#351=ORIENTED_EDGE('',*,*,#279,.F.);
#352=ORIENTED_EDGE('',*,*,#278,.T.);
#353=ORIENTED_EDGE('',*,*,#280,.F.);
#354=ORIENTED_EDGE('',*,*,#270,.F.);
#355=ORIENTED_EDGE('',*,*,#281,.T.);
#356=ORIENTED_EDGE('',*,*,#241,.T.);
#357=ORIENTED_EDGE('',*,*,#234,.T.);
#358=ORIENTED_EDGE('',*,*,#238,.T.);
#359=ORIENTED_EDGE('',*,*,#280,.T.);
#360=ORIENTED_EDGE('',*,*,#277,.T.);
#361=ORIENTED_EDGE('',*,*,#274,.T.);
#362=ORIENTED_EDGE('',*,*,#271,.T.);
#363=ORIENTED_EDGE('',*,*,#246,.T.);
#364=ORIENTED_EDGE('',*,*,#268,.T.);
#365=ORIENTED_EDGE('',*,*,#265,.T.);
#366=ORIENTED_EDGE('',*,*,#262,.T.);
#367=ORIENTED_EDGE('',*,*,#258,.T.);
#368=ORIENTED_EDGE('',*,*,#255,.T.);
#369=ORIENTED_EDGE('',*,*,#252,.T.);
#370=ORIENTED_EDGE('',*,*,#249,.T.);
#371=ORIENTED_EDGE('',*,*,#282,.F.);
#372=ORIENTED_EDGE('',*,*,#283,.T.);
#373=ORIENTED_EDGE('',*,*,#284,.T.);
#374=ORIENTED_EDGE('',*,*,#283,.F.);
#375=ORIENTED_EDGE('',*,*,#285,.F.);
#376=ORIENTED_EDGE('',*,*,#286,.T.);
#377=ORIENTED_EDGE('',*,*,#287,.T.);
#378=ORIENTED_EDGE('',*,*,#286,.F.);
#379=ORIENTED_EDGE('',*,*,#288,.F.);
#380=ORIENTED_EDGE('',*,*,#289,.T.);
#381=ORIENTED_EDGE('',*,*,#290,.T.);
#382=ORIENTED_EDGE('',*,*,#289,.F.);
#383=ORIENTED_EDGE('',*,*,#244,.T.);
#384=ORIENTED_EDGE('',*,*,#242,.T.);
#385=ORIENTED_EDGE('',*,*,#281,.F.);
#386=ORIENTED_EDGE('',*,*,#240,.F.);
#387=ORIENTED_EDGE('',*,*,#248,.T.);
#388=ORIENTED_EDGE('',*,*,#261,.T.);
#389=ORIENTED_EDGE('',*,*,#264,.T.);
#390=ORIENTED_EDGE('',*,*,#267,.T.);
#391=ORIENTED_EDGE('',*,*,#288,.T.);
#392=ORIENTED_EDGE('',*,*,#285,.T.);
#393=ORIENTED_EDGE('',*,*,#282,.T.);
#394=ORIENTED_EDGE('',*,*,#279,.T.);
#395=ORIENTED_EDGE('',*,*,#269,.T.);
#396=ORIENTED_EDGE('',*,*,#273,.T.);
#397=ORIENTED_EDGE('',*,*,#276,.T.);
#398=ORIENTED_EDGE('',*,*,#284,.F.);
#399=ORIENTED_EDGE('',*,*,#287,.F.);
#400=ORIENTED_EDGE('',*,*,#290,.F.);
#401=ORIENTED_EDGE('',*,*,#260,.T.);
#402=ORIENTED_EDGE('',*,*,#257,.T.);
#403=ORIENTED_EDGE('',*,*,#254,.T.);
#404=ORIENTED_EDGE('',*,*,#251,.T.);
#405=PLANE('',#454);
#406=PLANE('',#455);
#407=PLANE('',#456);
#408=PLANE('',#457);
#409=PLANE('',#470);
#410=PLANE('',#471);
#411=PLANE('',#472);
#412=PLANE('',#473);
#413=PLANE('',#474);
#414=PLANE('',#475);
#415=PLANE('',#476);
#416=PLANE('',#477);
#417=PLANE('',#487);
#418=PLANE('',#488);
#419=ADVANCED_FACE('',(#52),#405,.F.);
#420=ADVANCED_FACE('',(#53),#406,.F.);
#421=ADVANCED_FACE('',(#54),#407,.F.);
#422=ADVANCED_FACE('',(#55),#408,.T.);
#423=ADVANCED_FACE('',(#56),#45,.F.);
#424=ADVANCED_FACE('',(#57),#46,.F.);
#425=ADVANCED_FACE('',(#58),#47,.F.);
#426=ADVANCED_FACE('',(#59),#48,.F.);
#427=ADVANCED_FACE('',(#60),#409,.T.);
#428=ADVANCED_FACE('',(#61),#410,.T.);
#429=ADVANCED_FACE('',(#62),#411,.T.);
#430=ADVANCED_FACE('',(#63),#412,.T.);
#431=ADVANCED_FACE('',(#64),#413,.T.);
#432=ADVANCED_FACE('',(#65),#414,.T.);
#433=ADVANCED_FACE('',(#66,#15),#415,.T.);
#434=ADVANCED_FACE('',(#67,#16,#17,#18,#19,#20),#416,.T.);
#435=ADVANCED_FACE('',(#68),#49,.F.);
#436=ADVANCED_FACE('',(#69),#50,.F.);
#437=ADVANCED_FACE('',(#70),#51,.F.);
#438=ADVANCED_FACE('',(#71,#21,#22,#23),#417,.T.);
#439=ADVANCED_FACE('',(#72,#24,#25,#26,#27,#28,#29,#30),#418,.F.);
#440=CLOSED_SHELL('',(#419,#420,#421,#422,#423,#424,#425,#426,#427,#428,
#429,#430,#431,#432,#433,#434,#435,#436,#437,#438,#439));
#441=DERIVED_UNIT_ELEMENT(#443,1.);
#442=DERIVED_UNIT_ELEMENT(#726,-3.);
#443=(
MASS_UNIT()
NAMED_UNIT(*)
SI_UNIT(.KILO.,.GRAM.)
);
#444=DERIVED_UNIT((#441,#442));
#445=MEASURE_REPRESENTATION_ITEM('density measure',
POSITIVE_RATIO_MEASURE(7850.),#444);
#446=PROPERTY_DEFINITION_REPRESENTATION(#451,#448);
#447=PROPERTY_DEFINITION_REPRESENTATION(#452,#449);
#448=REPRESENTATION('material name',(#450),#723);
#449=REPRESENTATION('density',(#445),#723);
#450=DESCRIPTIVE_REPRESENTATION_ITEM('Steel','Steel');
#451=PROPERTY_DEFINITION('material property','material name',#733);
#452=PROPERTY_DEFINITION('material property','density of part',#733);
#453=AXIS2_PLACEMENT_3D('',#604,#489,#490);
#454=AXIS2_PLACEMENT_3D('',#605,#491,#492);
#455=AXIS2_PLACEMENT_3D('',#614,#497,#498);
#456=AXIS2_PLACEMENT_3D('',#620,#502,#503);
#457=AXIS2_PLACEMENT_3D('',#626,#507,#508);
#458=AXIS2_PLACEMENT_3D('',#636,#514,#515);
#459=AXIS2_PLACEMENT_3D('',#638,#516,#517);
#460=AXIS2_PLACEMENT_3D('',#641,#519,#520);
#461=AXIS2_PLACEMENT_3D('',#642,#521,#522);
#462=AXIS2_PLACEMENT_3D('',#644,#523,#524);
#463=AXIS2_PLACEMENT_3D('',#647,#526,#527);
#464=AXIS2_PLACEMENT_3D('',#648,#528,#529);
#465=AXIS2_PLACEMENT_3D('',#650,#530,#531);
#466=AXIS2_PLACEMENT_3D('',#653,#533,#534);
#467=AXIS2_PLACEMENT_3D('',#654,#535,#536);
#468=AXIS2_PLACEMENT_3D('',#656,#537,#538);
#469=AXIS2_PLACEMENT_3D('',#659,#540,#541);
#470=AXIS2_PLACEMENT_3D('',#660,#542,#543);
#471=AXIS2_PLACEMENT_3D('',#666,#547,#548);
#472=AXIS2_PLACEMENT_3D('',#672,#552,#553);
#473=AXIS2_PLACEMENT_3D('',#675,#556,#557);
#474=AXIS2_PLACEMENT_3D('',#684,#562,#563);
#475=AXIS2_PLACEMENT_3D('',#690,#567,#568);
#476=AXIS2_PLACEMENT_3D('',#696,#572,#573);
#477=AXIS2_PLACEMENT_3D('',#700,#577,#578);
#478=AXIS2_PLACEMENT_3D('',#701,#579,#580);
#479=AXIS2_PLACEMENT_3D('',#703,#581,#582);
#480=AXIS2_PLACEMENT_3D('',#706,#584,#585);
#481=AXIS2_PLACEMENT_3D('',#707,#586,#587);
#482=AXIS2_PLACEMENT_3D('',#709,#588,#589);
#483=AXIS2_PLACEMENT_3D('',#712,#591,#592);
#484=AXIS2_PLACEMENT_3D('',#713,#593,#594);
#485=AXIS2_PLACEMENT_3D('',#715,#595,#596);
#486=AXIS2_PLACEMENT_3D('',#718,#598,#599);
#487=AXIS2_PLACEMENT_3D('',#719,#600,#601);
#488=AXIS2_PLACEMENT_3D('',#720,#602,#603);
#489=DIRECTION('axis',(0.,0.,1.));
#490=DIRECTION('refdir',(1.,0.,0.));
#491=DIRECTION('center_axis',(0.,0.,1.));
#492=DIRECTION('ref_axis',(1.,0.,0.));
#493=DIRECTION('',(-1.,0.,0.));
#494=DIRECTION('',(0.,1.,0.));
#495=DIRECTION('',(1.,0.,0.));
#496=DIRECTION('',(0.,1.,0.));
#497=DIRECTION('center_axis',(-1.,0.,0.));
#498=DIRECTION('ref_axis',(0.,0.,1.));
#499=DIRECTION('',(0.,0.,-1.));
#500=DIRECTION('',(0.,0.,1.));
#501=DIRECTION('',(0.,1.,0.));
#502=DIRECTION('center_axis',(1.,0.,0.));
#503=DIRECTION('ref_axis',(0.,0.,-1.));
#504=DIRECTION('',(0.,0.,1.));
#505=DIRECTION('',(0.,1.,0.));
#506=DIRECTION('',(0.,0.,-1.));
#507=DIRECTION('center_axis',(0.,-1.,0.));
#508=DIRECTION('ref_axis',(1.,0.,0.));
#509=DIRECTION('',(-1.,0.,0.));
#510=DIRECTION('',(0.,0.,1.));
#511=DIRECTION('',(1.,0.,0.));
#512=DIRECTION('',(0.,0.,1.));
#513=DIRECTION('',(-1.,0.,0.));
#514=DIRECTION('center_axis',(0.,0.,-1.));
#515=DIRECTION('ref_axis',(-1.,0.,0.));
#516=DIRECTION('center_axis',(0.,0.,-1.));
#517=DIRECTION('ref_axis',(-1.,0.,0.));
#518=DIRECTION('',(0.,0.,-1.));
#519=DIRECTION('center_axis',(0.,0.,1.));
#520=DIRECTION('ref_axis',(-1.,0.,0.));
#521=DIRECTION('center_axis',(0.,0.,-1.));
#522=DIRECTION('ref_axis',(-1.,0.,0.));
#523=DIRECTION('center_axis',(0.,0.,-1.));
#524=DIRECTION('ref_axis',(-1.,0.,0.));
#525=DIRECTION('',(0.,0.,-1.));
#526=DIRECTION('center_axis',(0.,0.,1.));
#527=DIRECTION('ref_axis',(-1.,0.,0.));
#528=DIRECTION('center_axis',(0.,0.,-1.));
#529=DIRECTION('ref_axis',(-1.,0.,0.));
#530=DIRECTION('center_axis',(0.,0.,-1.));
#531=DIRECTION('ref_axis',(-1.,0.,0.));
#532=DIRECTION('',(0.,0.,-1.));
#533=DIRECTION('center_axis',(0.,0.,1.));
#534=DIRECTION('ref_axis',(-1.,0.,0.));
#535=DIRECTION('center_axis',(0.,0.,-1.));
#536=DIRECTION('ref_axis',(-1.,0.,0.));
#537=DIRECTION('center_axis',(0.,0.,-1.));
#538=DIRECTION('ref_axis',(-1.,0.,0.));
#539=DIRECTION('',(0.,0.,-1.));
#540=DIRECTION('center_axis',(0.,0.,1.));
#541=DIRECTION('ref_axis',(-1.,0.,0.));
#542=DIRECTION('center_axis',(1.,0.,0.));
#543=DIRECTION('ref_axis',(0.,1.,0.));
#544=DIRECTION('',(0.,-1.,0.));
#545=DIRECTION('',(0.,1.,0.));
#546=DIRECTION('',(0.,0.,1.));
#547=DIRECTION('center_axis',(0.,1.,0.));
#548=DIRECTION('ref_axis',(-1.,0.,0.));
#549=DIRECTION('',(1.,0.,0.));
#550=DIRECTION('',(-1.,0.,0.));
#551=DIRECTION('',(0.,0.,1.));
#552=DIRECTION('center_axis',(-1.,0.,0.));
#553=DIRECTION('ref_axis',(0.,-1.,0.));
#554=DIRECTION('',(0.,1.,0.));
#555=DIRECTION('',(0.,-1.,0.));
#556=DIRECTION('center_axis',(1.,0.,0.));
#557=DIRECTION('ref_axis',(0.,1.,0.));
#558=DIRECTION('',(0.,-1.,0.));
#559=DIRECTION('',(0.,0.,1.));
#560=DIRECTION('',(0.,1.,0.));
#561=DIRECTION('',(0.,0.,1.));
#562=DIRECTION('center_axis',(0.,-1.,0.));
#563=DIRECTION('ref_axis',(1.,0.,0.));
#564=DIRECTION('',(-1.,0.,0.));
#565=DIRECTION('',(1.,0.,0.));
#566=DIRECTION('',(0.,0.,1.));
#567=DIRECTION('center_axis',(-1.,0.,0.));
#568=DIRECTION('ref_axis',(0.,-1.,0.));
#569=DIRECTION('',(0.,1.,0.));
#570=DIRECTION('',(0.,-1.,0.));
#571=DIRECTION('',(0.,0.,1.));
#572=DIRECTION('center_axis',(0.,1.,0.));
#573=DIRECTION('ref_axis',(-1.,0.,0.));
#574=DIRECTION('',(1.,0.,0.));
#575=DIRECTION('',(-1.,0.,0.));
#576=DIRECTION('',(1.,0.,0.));
#577=DIRECTION('center_axis',(0.,0.,1.));
#578=DIRECTION('ref_axis',(1.,0.,0.));
#579=DIRECTION('center_axis',(0.,0.,1.));
#580=DIRECTION('ref_axis',(1.,0.,0.));
#581=DIRECTION('center_axis',(0.,0.,-1.));
#582=DIRECTION('ref_axis',(1.,0.,0.));
#583=DIRECTION('',(0.,0.,-1.));
#584=DIRECTION('center_axis',(0.,0.,-1.));
#585=DIRECTION('ref_axis',(1.,0.,0.));
#586=DIRECTION('center_axis',(0.,0.,1.));
#587=DIRECTION('ref_axis',(1.,0.,0.));
#588=DIRECTION('center_axis',(0.,0.,-1.));
#589=DIRECTION('ref_axis',(1.,0.,0.));
#590=DIRECTION('',(0.,0.,-1.));
#591=DIRECTION('center_axis',(0.,0.,-1.));
#592=DIRECTION('ref_axis',(1.,0.,0.));
#593=DIRECTION('center_axis',(0.,0.,1.));
#594=DIRECTION('ref_axis',(1.,0.,0.));
#595=DIRECTION('center_axis',(0.,0.,-1.));
#596=DIRECTION('ref_axis',(1.,0.,0.));
#597=DIRECTION('',(0.,0.,-1.));
#598=DIRECTION('center_axis',(0.,0.,-1.));
#599=DIRECTION('ref_axis',(1.,0.,0.));
#600=DIRECTION('center_axis',(0.,0.,1.));
#601=DIRECTION('ref_axis',(1.,0.,0.));
#602=DIRECTION('center_axis',(0.,0.,1.));
#603=DIRECTION('ref_axis',(1.,0.,0.));
#604=CARTESIAN_POINT('',(0.,0.,0.));
#605=CARTESIAN_POINT('Origin',(-10.0000001490116,31.,7.00000010430813));
#606=CARTESIAN_POINT('',(10.0000001490116,41.,7.00000010430813));
#607=CARTESIAN_POINT('',(-10.0000001490116,41.,7.00000010430813));
#608=CARTESIAN_POINT('',(6.9999999254942,41.,7.00000010430813));
#609=CARTESIAN_POINT('',(10.0000001490116,31.,7.00000010430813));
#610=CARTESIAN_POINT('',(10.0000001490116,31.,7.00000010430813));
#611=CARTESIAN_POINT('',(-10.0000001490116,31.,7.00000010430813));
#612=CARTESIAN_POINT('',(-12.0000000745058,31.,7.00000010430813));
#613=CARTESIAN_POINT('',(-10.0000001490116,31.,7.00000010430813));
#614=CARTESIAN_POINT('Origin',(-10.0000001490116,31.,3.00000004470348));
#615=CARTESIAN_POINT('',(-10.0000001490116,41.,3.00000004470348));
#616=CARTESIAN_POINT('',(-10.0000001490116,41.,1.50000002235174));
#617=CARTESIAN_POINT('',(-10.0000001490116,31.,3.00000004470348));
#618=CARTESIAN_POINT('',(-10.0000001490116,31.,1.50000002235174));
#619=CARTESIAN_POINT('',(-10.0000001490116,31.,3.00000004470348));
#620=CARTESIAN_POINT('Origin',(10.0000001490116,31.,7.00000010430813));
#621=CARTESIAN_POINT('',(10.0000001490116,41.,3.00000004470348));
#622=CARTESIAN_POINT('',(10.0000001490116,41.,3.50000005215406));
#623=CARTESIAN_POINT('',(10.0000001490116,31.,3.00000004470348));
#624=CARTESIAN_POINT('',(10.0000001490116,31.,3.00000004470348));
#625=CARTESIAN_POINT('',(10.0000001490116,31.,3.50000005215406));
#626=CARTESIAN_POINT('Origin',(-14.,31.,0.));
#627=CARTESIAN_POINT('',(14.,31.,3.));
#628=CARTESIAN_POINT('',(-14.,31.,3.));
#629=CARTESIAN_POINT('',(14.,31.,10.));
#630=CARTESIAN_POINT('',(14.,31.,0.));
#631=CARTESIAN_POINT('',(-14.,31.,10.));
#632=CARTESIAN_POINT('',(-14.,31.,10.));
#633=CARTESIAN_POINT('',(-14.,31.,3.));
#634=CARTESIAN_POINT('',(-14.,31.,0.));
#635=CARTESIAN_POINT('',(-14.,31.,3.));
#636=CARTESIAN_POINT('Origin',(21.0000003129243,37.000000551343,15.));
#637=CARTESIAN_POINT('',(23.3500003129244,37.000000551343,10.));
#638=CARTESIAN_POINT('Origin',(21.0000003129243,37.000000551343,10.));
#639=CARTESIAN_POINT('',(23.3500003129244,37.000000551343,-4.44089209850063E-15));
#640=CARTESIAN_POINT('',(23.3500003129244,37.000000551343,15.));
#641=CARTESIAN_POINT('Origin',(21.0000003129243,37.000000551343,0.));
#642=CARTESIAN_POINT('Origin',(-21.0000003129244,37.000000551343,15.));
#643=CARTESIAN_POINT('',(-18.6500003129244,37.000000551343,10.));
#644=CARTESIAN_POINT('Origin',(-21.0000003129244,37.000000551343,10.));
#645=CARTESIAN_POINT('',(-18.6500003129244,37.000000551343,-4.44089209850063E-15));
#646=CARTESIAN_POINT('',(-18.6500003129244,37.000000551343,15.));
#647=CARTESIAN_POINT('Origin',(-21.0000003129244,37.000000551343,0.));
#648=CARTESIAN_POINT('Origin',(21.0000003129245,-37.000000551343,15.));
#649=CARTESIAN_POINT('',(23.3500003129245,-37.000000551343,10.));
#650=CARTESIAN_POINT('Origin',(21.0000003129245,-37.000000551343,10.));
#651=CARTESIAN_POINT('',(23.3500003129245,-37.000000551343,-4.44089209850063E-15));
#652=CARTESIAN_POINT('',(23.3500003129245,-37.000000551343,15.));
#653=CARTESIAN_POINT('Origin',(21.0000003129245,-37.000000551343,0.));
#654=CARTESIAN_POINT('Origin',(-21.0000003129244,-37.0000005513429,15.));
#655=CARTESIAN_POINT('',(-18.6500003129244,-37.0000005513429,10.));
#656=CARTESIAN_POINT('Origin',(-21.0000003129244,-37.0000005513429,10.));
#657=CARTESIAN_POINT('',(-18.6500003129244,-37.0000005513429,-4.44089209850063E-15));
#658=CARTESIAN_POINT('',(-18.6500003129244,-37.0000005513429,15.));
#659=CARTESIAN_POINT('Origin',(-21.0000003129244,-37.0000005513429,0.));
#660=CARTESIAN_POINT('Origin',(-14.,-31.,0.));
#661=CARTESIAN_POINT('',(-14.,-31.,3.));
#662=CARTESIAN_POINT('',(-14.,-31.,3.));
#663=CARTESIAN_POINT('',(-14.,-31.,10.));
#664=CARTESIAN_POINT('',(-14.,-31.,10.));
#665=CARTESIAN_POINT('',(-14.,-31.,0.));
#666=CARTESIAN_POINT('Origin',(14.,-31.,0.));
#667=CARTESIAN_POINT('',(14.,-31.,3.));
#668=CARTESIAN_POINT('',(14.,-31.,3.));
#669=CARTESIAN_POINT('',(14.,-31.,10.));
#670=CARTESIAN_POINT('',(14.,-31.,10.));
#671=CARTESIAN_POINT('',(14.,-31.,0.));
#672=CARTESIAN_POINT('Origin',(14.,31.,0.));
#673=CARTESIAN_POINT('',(14.,31.,3.));
#674=CARTESIAN_POINT('',(14.,31.,10.));
#675=CARTESIAN_POINT('Origin',(24.,-41.,0.));
#676=CARTESIAN_POINT('',(24.,41.,0.));
#677=CARTESIAN_POINT('',(24.,-41.,0.));
#678=CARTESIAN_POINT('',(24.,41.,0.));
#679=CARTESIAN_POINT('',(24.,41.,10.));
#680=CARTESIAN_POINT('',(24.,41.,0.));
#681=CARTESIAN_POINT('',(24.,-41.,10.));
#682=CARTESIAN_POINT('',(24.,41.,10.));
#683=CARTESIAN_POINT('',(24.,-41.,0.));
#684=CARTESIAN_POINT('Origin',(-24.,-41.,0.));
#685=CARTESIAN_POINT('',(-24.,-41.,0.));
#686=CARTESIAN_POINT('',(24.,-41.,0.));
#687=CARTESIAN_POINT('',(-24.,-41.,10.));
#688=CARTESIAN_POINT('',(24.,-41.,10.));
#689=CARTESIAN_POINT('',(-24.,-41.,0.));
#690=CARTESIAN_POINT('Origin',(-24.,41.,0.));
#691=CARTESIAN_POINT('',(-24.,41.,0.));
#692=CARTESIAN_POINT('',(-24.,-41.,0.));
#693=CARTESIAN_POINT('',(-24.,41.,10.));
#694=CARTESIAN_POINT('',(-24.,-41.,10.));
#695=CARTESIAN_POINT('',(-24.,41.,0.));
#696=CARTESIAN_POINT('Origin',(24.,41.,0.));
#697=CARTESIAN_POINT('',(-24.,41.,0.));
#698=CARTESIAN_POINT('',(-24.,41.,10.));
#699=CARTESIAN_POINT('',(17.0000000745058,41.,3.00000004470348));
#700=CARTESIAN_POINT('Origin',(0.,0.,10.));
#701=CARTESIAN_POINT('Origin',(0.,0.,0.));
#702=CARTESIAN_POINT('',(-3.,0.,3.));
#703=CARTESIAN_POINT('Origin',(0.,0.,3.));
#704=CARTESIAN_POINT('',(-3.,-3.67394039744206E-16,0.));
#705=CARTESIAN_POINT('',(-3.,-3.67394039744206E-16,0.));
#706=CARTESIAN_POINT('Origin',(0.,0.,0.));
#707=CARTESIAN_POINT('Origin',(0.,-19.05,0.));
#708=CARTESIAN_POINT('',(-3.,-19.05,3.));
#709=CARTESIAN_POINT('Origin',(0.,-19.05,3.));
#710=CARTESIAN_POINT('',(-3.,-19.05,0.));
#711=CARTESIAN_POINT('',(-3.,-19.05,0.));
#712=CARTESIAN_POINT('Origin',(0.,-19.05,0.));
#713=CARTESIAN_POINT('Origin',(0.,19.05,0.));
#714=CARTESIAN_POINT('',(-3.,19.05,3.));
#715=CARTESIAN_POINT('Origin',(0.,19.05,3.));
#716=CARTESIAN_POINT('',(-3.,19.05,0.));
#717=CARTESIAN_POINT('',(-3.,19.05,0.));
#718=CARTESIAN_POINT('Origin',(0.,19.05,0.));
#719=CARTESIAN_POINT('Origin',(0.,0.,3.));
#720=CARTESIAN_POINT('Origin',(0.,0.,0.));
#721=UNCERTAINTY_MEASURE_WITH_UNIT(LENGTH_MEASURE(0.01),#725,
'DISTANCE_ACCURACY_VALUE',
'Maximum model space distance between geometric entities at asserted c
onnectivities');
#722=UNCERTAINTY_MEASURE_WITH_UNIT(LENGTH_MEASURE(0.01),#725,
'DISTANCE_ACCURACY_VALUE',
'Maximum model space distance between geometric entities at asserted c
onnectivities');
#723=(
GEOMETRIC_REPRESENTATION_CONTEXT(3)
GLOBAL_UNCERTAINTY_ASSIGNED_CONTEXT((#721))
GLOBAL_UNIT_ASSIGNED_CONTEXT((#725,#727,#728))
REPRESENTATION_CONTEXT('','3D')
);
#724=(
GEOMETRIC_REPRESENTATION_CONTEXT(3)
GLOBAL_UNCERTAINTY_ASSIGNED_CONTEXT((#722))
GLOBAL_UNIT_ASSIGNED_CONTEXT((#725,#727,#728))
REPRESENTATION_CONTEXT('','3D')
);
#725=(
LENGTH_UNIT()
NAMED_UNIT(*)
SI_UNIT(.MILLI.,.METRE.)
);
#726=(
LENGTH_UNIT()
NAMED_UNIT(*)
SI_UNIT($,.METRE.)
);
#727=(
NAMED_UNIT(*)
PLANE_ANGLE_UNIT()
SI_UNIT($,.RADIAN.)
);
#728=(
NAMED_UNIT(*)
SI_UNIT($,.STERADIAN.)
SOLID_ANGLE_UNIT()
);
#729=SHAPE_DEFINITION_REPRESENTATION(#730,#731);
#730=PRODUCT_DEFINITION_SHAPE('',$,#733);
#731=SHAPE_REPRESENTATION('',(#453),#723);
#732=PRODUCT_DEFINITION_CONTEXT('part definition',#737,'design');
#733=PRODUCT_DEFINITION('2026-06-04-16-21-00-374','New ship',#734,#732);
#734=PRODUCT_DEFINITION_FORMATION('',$,#739);
#735=PRODUCT_RELATED_PRODUCT_CATEGORY('New ship','New ship',(#739));
#736=APPLICATION_PROTOCOL_DEFINITION('international standard',
'automotive_design',2009,#737);
#737=APPLICATION_CONTEXT(
'Core Data for Automotive Mechanical Design Process');
#738=PRODUCT_CONTEXT('part definition',#737,'mechanical');
#739=PRODUCT('2026-06-04-16-21-00-374','New ship',$,(#738));
#740=PRESENTATION_STYLE_ASSIGNMENT((#743));
#741=PRESENTATION_STYLE_ASSIGNMENT((#744));
#742=PRESENTATION_STYLE_ASSIGNMENT((#745));
#743=SURFACE_STYLE_USAGE(.BOTH.,#746);
#744=SURFACE_STYLE_USAGE(.BOTH.,#747);
#745=SURFACE_STYLE_USAGE(.BOTH.,#748);
#746=SURFACE_SIDE_STYLE('',(#749));
#747=SURFACE_SIDE_STYLE('',(#750));
#748=SURFACE_SIDE_STYLE('',(#751));
#749=SURFACE_STYLE_FILL_AREA(#752);
#750=SURFACE_STYLE_FILL_AREA(#753);
#751=SURFACE_STYLE_FILL_AREA(#754);
#752=FILL_AREA_STYLE('Steel - Satin',(#755));
#753=FILL_AREA_STYLE('Paint - Enamel Glossy (Yellow)',(#756));
#754=FILL_AREA_STYLE('Paint - Enamel Glossy (Red)',(#757));
#755=FILL_AREA_STYLE_COLOUR('Steel - Satin',#758);
#756=FILL_AREA_STYLE_COLOUR('Paint - Enamel Glossy (Yellow)',#759);
#757=FILL_AREA_STYLE_COLOUR('Paint - Enamel Glossy (Red)',#760);
#758=COLOUR_RGB('Steel - Satin',0.627450980392157,0.627450980392157,0.627450980392157);
#759=COLOUR_RGB('Paint - Enamel Glossy (Yellow)',0.909803921568627,0.67843137254902,
0.137254901960784);
#760=COLOUR_RGB('Paint - Enamel Glossy (Red)',0.768627450980392,0.207843137254902,
0.152941176470588);
ENDSEC;
END-ISO-10303-21;
