ISO-10303-21;
HEADER;
/* Generated by software containing ST-Developer
 * from STEP Tools, Inc. (www.steptools.com) 
 */

FILE_DESCRIPTION(
/* description */ (''),
/* implementation_level */ '2;1');

FILE_NAME(
/* name */ 'Top.step',
/* time_stamp */ '2026-06-04T18:22:35+06:00',
/* author */ (''),
/* organization */ (''),
/* preprocessor_version */ 'ST-DEVELOPER v20.1',
/* originating_system */ 'Autodesk Translation Framework v15.8.0.0',
/* authorisation */ '');

FILE_SCHEMA (('AUTOMOTIVE_DESIGN { 1 0 10303 214 3 1 1 }'));
ENDSEC;

DATA;
#10=MECHANICAL_DESIGN_GEOMETRIC_PRESENTATION_REPRESENTATION('',(#13),#1309);
#11=SHAPE_REPRESENTATION_RELATIONSHIP('SRR','None',#1316,#12);
#12=ADVANCED_BREP_SHAPE_REPRESENTATION('',(#14),#1308);
#13=STYLED_ITEM('',(#1327),#14);
#14=MANIFOLD_SOLID_BREP('Body2',#781);
#15=FACE_BOUND('',#105,.T.);
#16=FACE_BOUND('',#106,.T.);
#17=FACE_BOUND('',#107,.T.);
#18=FACE_BOUND('',#108,.T.);
#19=FACE_BOUND('',#109,.T.);
#20=FACE_BOUND('',#110,.T.);
#21=FACE_BOUND('',#111,.T.);
#22=FACE_BOUND('',#113,.T.);
#23=FACE_BOUND('',#114,.T.);
#24=FACE_BOUND('',#115,.T.);
#25=FACE_BOUND('',#116,.T.);
#26=FACE_BOUND('',#117,.T.);
#27=FACE_BOUND('',#143,.T.);
#28=FACE_BOUND('',#144,.T.);
#29=FACE_BOUND('',#145,.T.);
#30=PLANE('',#807);
#31=PLANE('',#808);
#32=PLANE('',#809);
#33=PLANE('',#810);
#34=PLANE('',#811);
#35=PLANE('',#812);
#36=PLANE('',#813);
#37=PLANE('',#814);
#38=PLANE('',#815);
#39=PLANE('',#828);
#40=PLANE('',#829);
#41=PLANE('',#832);
#42=PLANE('',#835);
#43=PLANE('',#838);
#44=PLANE('',#841);
#45=PLANE('',#844);
#46=PLANE('',#847);
#47=PLANE('',#850);
#48=PLANE('',#853);
#49=PLANE('',#856);
#50=PLANE('',#859);
#51=PLANE('',#862);
#52=PLANE('',#865);
#53=FACE_OUTER_BOUND('',#92,.T.);
#54=FACE_OUTER_BOUND('',#93,.T.);
#55=FACE_OUTER_BOUND('',#94,.T.);
#56=FACE_OUTER_BOUND('',#95,.T.);
#57=FACE_OUTER_BOUND('',#96,.T.);
#58=FACE_OUTER_BOUND('',#97,.T.);
#59=FACE_OUTER_BOUND('',#98,.T.);
#60=FACE_OUTER_BOUND('',#99,.T.);
#61=FACE_OUTER_BOUND('',#100,.T.);
#62=FACE_OUTER_BOUND('',#101,.T.);
#63=FACE_OUTER_BOUND('',#102,.T.);
#64=FACE_OUTER_BOUND('',#103,.T.);
#65=FACE_OUTER_BOUND('',#104,.T.);
#66=FACE_OUTER_BOUND('',#112,.T.);
#67=FACE_OUTER_BOUND('',#118,.T.);
#68=FACE_OUTER_BOUND('',#119,.T.);
#69=FACE_OUTER_BOUND('',#120,.T.);
#70=FACE_OUTER_BOUND('',#121,.T.);
#71=FACE_OUTER_BOUND('',#122,.T.);
#72=FACE_OUTER_BOUND('',#123,.T.);
#73=FACE_OUTER_BOUND('',#124,.T.);
#74=FACE_OUTER_BOUND('',#125,.T.);
#75=FACE_OUTER_BOUND('',#126,.T.);
#76=FACE_OUTER_BOUND('',#127,.T.);
#77=FACE_OUTER_BOUND('',#128,.T.);
#78=FACE_OUTER_BOUND('',#129,.T.);
#79=FACE_OUTER_BOUND('',#130,.T.);
#80=FACE_OUTER_BOUND('',#131,.T.);
#81=FACE_OUTER_BOUND('',#132,.T.);
#82=FACE_OUTER_BOUND('',#133,.T.);
#83=FACE_OUTER_BOUND('',#134,.T.);
#84=FACE_OUTER_BOUND('',#135,.T.);
#85=FACE_OUTER_BOUND('',#136,.T.);
#86=FACE_OUTER_BOUND('',#137,.T.);
#87=FACE_OUTER_BOUND('',#138,.T.);
#88=FACE_OUTER_BOUND('',#139,.T.);
#89=FACE_OUTER_BOUND('',#140,.T.);
#90=FACE_OUTER_BOUND('',#141,.T.);
#91=FACE_OUTER_BOUND('',#142,.T.);
#92=EDGE_LOOP('',(#510,#511,#512,#513));
#93=EDGE_LOOP('',(#514,#515,#516,#517));
#94=EDGE_LOOP('',(#518,#519,#520,#521));
#95=EDGE_LOOP('',(#522,#523,#524,#525));
#96=EDGE_LOOP('',(#526,#527,#528,#529));
#97=EDGE_LOOP('',(#530,#531,#532,#533));
#98=EDGE_LOOP('',(#534,#535,#536,#537));
#99=EDGE_LOOP('',(#538,#539,#540,#541));
#100=EDGE_LOOP('',(#542,#543,#544,#545));
#101=EDGE_LOOP('',(#546,#547,#548,#549));
#102=EDGE_LOOP('',(#550,#551,#552,#553));
#103=EDGE_LOOP('',(#554,#555,#556,#557));
#104=EDGE_LOOP('',(#558,#559,#560,#561));
#105=EDGE_LOOP('',(#562,#563,#564,#565,#566,#567,#568,#569));
#106=EDGE_LOOP('',(#570,#571,#572,#573,#574,#575,#576,#577));
#107=EDGE_LOOP('',(#578,#579,#580,#581,#582,#583,#584,#585));
#108=EDGE_LOOP('',(#586));
#109=EDGE_LOOP('',(#587));
#110=EDGE_LOOP('',(#588));
#111=EDGE_LOOP('',(#589));
#112=EDGE_LOOP('',(#590,#591,#592,#593));
#113=EDGE_LOOP('',(#594,#595,#596,#597));
#114=EDGE_LOOP('',(#598));
#115=EDGE_LOOP('',(#599));
#116=EDGE_LOOP('',(#600));
#117=EDGE_LOOP('',(#601));
#118=EDGE_LOOP('',(#602,#603,#604,#605));
#119=EDGE_LOOP('',(#606,#607,#608,#609));
#120=EDGE_LOOP('',(#610,#611,#612,#613));
#121=EDGE_LOOP('',(#614,#615,#616,#617));
#122=EDGE_LOOP('',(#618,#619,#620,#621));
#123=EDGE_LOOP('',(#622,#623,#624,#625));
#124=EDGE_LOOP('',(#626,#627,#628,#629));
#125=EDGE_LOOP('',(#630,#631,#632,#633));
#126=EDGE_LOOP('',(#634,#635,#636,#637));
#127=EDGE_LOOP('',(#638,#639,#640,#641));
#128=EDGE_LOOP('',(#642,#643,#644,#645));
#129=EDGE_LOOP('',(#646,#647,#648,#649));
#130=EDGE_LOOP('',(#650,#651,#652,#653));
#131=EDGE_LOOP('',(#654,#655,#656,#657));
#132=EDGE_LOOP('',(#658,#659,#660,#661));
#133=EDGE_LOOP('',(#662,#663,#664,#665));
#134=EDGE_LOOP('',(#666,#667,#668,#669));
#135=EDGE_LOOP('',(#670,#671,#672,#673));
#136=EDGE_LOOP('',(#674,#675,#676,#677));
#137=EDGE_LOOP('',(#678,#679,#680,#681));
#138=EDGE_LOOP('',(#682,#683,#684,#685));
#139=EDGE_LOOP('',(#686,#687,#688,#689));
#140=EDGE_LOOP('',(#690,#691,#692,#693));
#141=EDGE_LOOP('',(#694,#695,#696,#697));
#142=EDGE_LOOP('',(#698,#699,#700,#701));
#143=EDGE_LOOP('',(#702,#703,#704,#705,#706,#707,#708,#709));
#144=EDGE_LOOP('',(#710,#711,#712,#713,#714,#715,#716,#717));
#145=EDGE_LOOP('',(#718,#719,#720,#721,#722,#723,#724,#725));
#146=LINE('',#1091,#222);
#147=LINE('',#1097,#223);
#148=LINE('',#1103,#224);
#149=LINE('',#1109,#225);
#150=LINE('',#1114,#226);
#151=LINE('',#1116,#227);
#152=LINE('',#1118,#228);
#153=LINE('',#1119,#229);
#154=LINE('',#1122,#230);
#155=LINE('',#1124,#231);
#156=LINE('',#1125,#232);
#157=LINE('',#1128,#233);
#158=LINE('',#1130,#234);
#159=LINE('',#1131,#235);
#160=LINE('',#1133,#236);
#161=LINE('',#1134,#237);
#162=LINE('',#1138,#238);
#163=LINE('',#1140,#239);
#164=LINE('',#1142,#240);
#165=LINE('',#1143,#241);
#166=LINE('',#1146,#242);
#167=LINE('',#1148,#243);
#168=LINE('',#1149,#244);
#169=LINE('',#1152,#245);
#170=LINE('',#1154,#246);
#171=LINE('',#1155,#247);
#172=LINE('',#1157,#248);
#173=LINE('',#1158,#249);
#174=LINE('',#1164,#250);
#175=LINE('',#1168,#251);
#176=LINE('',#1172,#252);
#177=LINE('',#1175,#253);
#178=LINE('',#1180,#254);
#179=LINE('',#1184,#255);
#180=LINE('',#1188,#256);
#181=LINE('',#1191,#257);
#182=LINE('',#1196,#258);
#183=LINE('',#1200,#259);
#184=LINE('',#1204,#260);
#185=LINE('',#1207,#261);
#186=LINE('',#1212,#262);
#187=LINE('',#1213,#263);
#188=LINE('',#1214,#264);
#189=LINE('',#1218,#265);
#190=LINE('',#1221,#266);
#191=LINE('',#1222,#267);
#192=LINE('',#1226,#268);
#193=LINE('',#1229,#269);
#194=LINE('',#1230,#270);
#195=LINE('',#1234,#271);
#196=LINE('',#1237,#272);
#197=LINE('',#1238,#273);
#198=LINE('',#1244,#274);
#199=LINE('',#1245,#275);
#200=LINE('',#1246,#276);
#201=LINE('',#1250,#277);
#202=LINE('',#1253,#278);
#203=LINE('',#1254,#279);
#204=LINE('',#1258,#280);
#205=LINE('',#1261,#281);
#206=LINE('',#1262,#282);
#207=LINE('',#1266,#283);
#208=LINE('',#1269,#284);
#209=LINE('',#1270,#285);
#210=LINE('',#1276,#286);
#211=LINE('',#1277,#287);
#212=LINE('',#1278,#288);
#213=LINE('',#1282,#289);
#214=LINE('',#1285,#290);
#215=LINE('',#1286,#291);
#216=LINE('',#1290,#292);
#217=LINE('',#1293,#293);
#218=LINE('',#1294,#294);
#219=LINE('',#1298,#295);
#220=LINE('',#1301,#296);
#221=LINE('',#1302,#297);
#222=VECTOR('',#872,1.7);
#223=VECTOR('',#879,1.7);
#224=VECTOR('',#886,1.7);
#225=VECTOR('',#893,1.7);
#226=VECTOR('',#898,10.);
#227=VECTOR('',#899,10.);
#228=VECTOR('',#900,10.);
#229=VECTOR('',#901,10.);
#230=VECTOR('',#904,10.);
#231=VECTOR('',#905,10.);
#232=VECTOR('',#906,10.);
#233=VECTOR('',#909,10.);
#234=VECTOR('',#910,10.);
#235=VECTOR('',#911,10.);
#236=VECTOR('',#914,10.);
#237=VECTOR('',#915,10.);
#238=VECTOR('',#918,10.);
#239=VECTOR('',#919,10.);
#240=VECTOR('',#920,10.);
#241=VECTOR('',#921,10.);
#242=VECTOR('',#924,10.);
#243=VECTOR('',#925,10.);
#244=VECTOR('',#926,10.);
#245=VECTOR('',#929,10.);
#246=VECTOR('',#930,10.);
#247=VECTOR('',#931,10.);
#248=VECTOR('',#934,10.);
#249=VECTOR('',#935,10.);
#250=VECTOR('',#940,10.);
#251=VECTOR('',#943,10.);
#252=VECTOR('',#946,10.);
#253=VECTOR('',#949,10.);
#254=VECTOR('',#952,10.);
#255=VECTOR('',#955,10.);
#256=VECTOR('',#958,10.);
#257=VECTOR('',#961,10.);
#258=VECTOR('',#964,10.);
#259=VECTOR('',#967,10.);
#260=VECTOR('',#970,10.);
#261=VECTOR('',#973,10.);
#262=VECTOR('',#978,10.);
#263=VECTOR('',#979,10.);
#264=VECTOR('',#980,10.);
#265=VECTOR('',#985,10.);
#266=VECTOR('',#988,10.);
#267=VECTOR('',#989,10.);
#268=VECTOR('',#994,10.);
#269=VECTOR('',#997,10.);
#270=VECTOR('',#998,10.);
#271=VECTOR('',#1003,10.);
#272=VECTOR('',#1006,10.);
#273=VECTOR('',#1007,10.);
#274=VECTOR('',#1014,10.);
#275=VECTOR('',#1015,10.);
#276=VECTOR('',#1016,10.);
#277=VECTOR('',#1021,10.);
#278=VECTOR('',#1024,10.);
#279=VECTOR('',#1025,10.);
#280=VECTOR('',#1030,10.);
#281=VECTOR('',#1033,10.);
#282=VECTOR('',#1034,10.);
#283=VECTOR('',#1039,10.);
#284=VECTOR('',#1042,10.);
#285=VECTOR('',#1043,10.);
#286=VECTOR('',#1050,10.);
#287=VECTOR('',#1051,10.);
#288=VECTOR('',#1052,10.);
#289=VECTOR('',#1057,10.);
#290=VECTOR('',#1060,10.);
#291=VECTOR('',#1061,10.);
#292=VECTOR('',#1066,10.);
#293=VECTOR('',#1069,10.);
#294=VECTOR('',#1070,10.);
#295=VECTOR('',#1075,10.);
#296=VECTOR('',#1078,10.);
#297=VECTOR('',#1079,10.);
#298=CIRCLE('',#796,1.7);
#299=CIRCLE('',#797,1.7);
#300=CIRCLE('',#799,1.7);
#301=CIRCLE('',#800,1.7);
#302=CIRCLE('',#802,1.7);
#303=CIRCLE('',#803,1.7);
#304=CIRCLE('',#805,1.7);
#305=CIRCLE('',#806,1.7);
#306=CIRCLE('',#816,0.5);
#307=CIRCLE('',#817,0.499999999999998);
#308=CIRCLE('',#818,0.499999999999998);
#309=CIRCLE('',#819,0.5);
#310=CIRCLE('',#820,0.499999999999998);
#311=CIRCLE('',#821,0.499999999999998);
#312=CIRCLE('',#822,0.499999999999998);
#313=CIRCLE('',#823,0.5);
#314=CIRCLE('',#824,0.499999999999998);
#315=CIRCLE('',#825,0.499999999999998);
#316=CIRCLE('',#826,0.500000000000003);
#317=CIRCLE('',#827,0.5);
#318=CIRCLE('',#831,0.5);
#319=CIRCLE('',#834,0.500000000000003);
#320=CIRCLE('',#837,0.499999999999998);
#321=CIRCLE('',#840,0.499999999999998);
#322=CIRCLE('',#843,0.5);
#323=CIRCLE('',#846,0.499999999999998);
#324=CIRCLE('',#849,0.499999999999998);
#325=CIRCLE('',#852,0.499999999999998);
#326=CIRCLE('',#855,0.5);
#327=CIRCLE('',#858,0.499999999999998);
#328=CIRCLE('',#861,0.499999999999998);
#329=CIRCLE('',#864,0.5);
#330=VERTEX_POINT('',#1088);
#331=VERTEX_POINT('',#1090);
#332=VERTEX_POINT('',#1094);
#333=VERTEX_POINT('',#1096);
#334=VERTEX_POINT('',#1100);
#335=VERTEX_POINT('',#1102);
#336=VERTEX_POINT('',#1106);
#337=VERTEX_POINT('',#1108);
#338=VERTEX_POINT('',#1112);
#339=VERTEX_POINT('',#1113);
#340=VERTEX_POINT('',#1115);
#341=VERTEX_POINT('',#1117);
#342=VERTEX_POINT('',#1121);
#343=VERTEX_POINT('',#1123);
#344=VERTEX_POINT('',#1127);
#345=VERTEX_POINT('',#1129);
#346=VERTEX_POINT('',#1136);
#347=VERTEX_POINT('',#1137);
#348=VERTEX_POINT('',#1139);
#349=VERTEX_POINT('',#1141);
#350=VERTEX_POINT('',#1145);
#351=VERTEX_POINT('',#1147);
#352=VERTEX_POINT('',#1151);
#353=VERTEX_POINT('',#1153);
#354=VERTEX_POINT('',#1160);
#355=VERTEX_POINT('',#1161);
#356=VERTEX_POINT('',#1163);
#357=VERTEX_POINT('',#1165);
#358=VERTEX_POINT('',#1167);
#359=VERTEX_POINT('',#1169);
#360=VERTEX_POINT('',#1171);
#361=VERTEX_POINT('',#1173);
#362=VERTEX_POINT('',#1176);
#363=VERTEX_POINT('',#1177);
#364=VERTEX_POINT('',#1179);
#365=VERTEX_POINT('',#1181);
#366=VERTEX_POINT('',#1183);
#367=VERTEX_POINT('',#1185);
#368=VERTEX_POINT('',#1187);
#369=VERTEX_POINT('',#1189);
#370=VERTEX_POINT('',#1192);
#371=VERTEX_POINT('',#1193);
#372=VERTEX_POINT('',#1195);
#373=VERTEX_POINT('',#1197);
#374=VERTEX_POINT('',#1199);
#375=VERTEX_POINT('',#1201);
#376=VERTEX_POINT('',#1203);
#377=VERTEX_POINT('',#1205);
#378=VERTEX_POINT('',#1210);
#379=VERTEX_POINT('',#1211);
#380=VERTEX_POINT('',#1216);
#381=VERTEX_POINT('',#1220);
#382=VERTEX_POINT('',#1224);
#383=VERTEX_POINT('',#1228);
#384=VERTEX_POINT('',#1232);
#385=VERTEX_POINT('',#1236);
#386=VERTEX_POINT('',#1242);
#387=VERTEX_POINT('',#1243);
#388=VERTEX_POINT('',#1248);
#389=VERTEX_POINT('',#1252);
#390=VERTEX_POINT('',#1256);
#391=VERTEX_POINT('',#1260);
#392=VERTEX_POINT('',#1264);
#393=VERTEX_POINT('',#1268);
#394=VERTEX_POINT('',#1274);
#395=VERTEX_POINT('',#1275);
#396=VERTEX_POINT('',#1280);
#397=VERTEX_POINT('',#1284);
#398=VERTEX_POINT('',#1288);
#399=VERTEX_POINT('',#1292);
#400=VERTEX_POINT('',#1296);
#401=VERTEX_POINT('',#1300);
#402=EDGE_CURVE('',#330,#330,#298,.T.);
#403=EDGE_CURVE('',#330,#331,#146,.T.);
#404=EDGE_CURVE('',#331,#331,#299,.T.);
#405=EDGE_CURVE('',#332,#332,#300,.T.);
#406=EDGE_CURVE('',#332,#333,#147,.T.);
#407=EDGE_CURVE('',#333,#333,#301,.T.);
#408=EDGE_CURVE('',#334,#334,#302,.T.);
#409=EDGE_CURVE('',#334,#335,#148,.T.);
#410=EDGE_CURVE('',#335,#335,#303,.T.);
#411=EDGE_CURVE('',#336,#336,#304,.T.);
#412=EDGE_CURVE('',#336,#337,#149,.T.);
#413=EDGE_CURVE('',#337,#337,#305,.T.);
#414=EDGE_CURVE('',#338,#339,#150,.T.);
#415=EDGE_CURVE('',#340,#338,#151,.T.);
#416=EDGE_CURVE('',#340,#341,#152,.T.);
#417=EDGE_CURVE('',#341,#339,#153,.T.);
#418=EDGE_CURVE('',#338,#342,#154,.T.);
#419=EDGE_CURVE('',#343,#342,#155,.T.);
#420=EDGE_CURVE('',#343,#340,#156,.T.);
#421=EDGE_CURVE('',#339,#344,#157,.T.);
#422=EDGE_CURVE('',#341,#345,#158,.T.);
#423=EDGE_CURVE('',#345,#344,#159,.T.);
#424=EDGE_CURVE('',#342,#344,#160,.T.);
#425=EDGE_CURVE('',#345,#343,#161,.T.);
#426=EDGE_CURVE('',#346,#347,#162,.T.);
#427=EDGE_CURVE('',#346,#348,#163,.T.);
#428=EDGE_CURVE('',#349,#348,#164,.T.);
#429=EDGE_CURVE('',#347,#349,#165,.T.);
#430=EDGE_CURVE('',#347,#350,#166,.T.);
#431=EDGE_CURVE('',#351,#349,#167,.T.);
#432=EDGE_CURVE('',#350,#351,#168,.T.);
#433=EDGE_CURVE('',#350,#352,#169,.T.);
#434=EDGE_CURVE('',#353,#351,#170,.T.);
#435=EDGE_CURVE('',#352,#353,#171,.T.);
#436=EDGE_CURVE('',#352,#346,#172,.T.);
#437=EDGE_CURVE('',#348,#353,#173,.T.);
#438=EDGE_CURVE('',#354,#355,#306,.T.);
#439=EDGE_CURVE('',#355,#356,#174,.T.);
#440=EDGE_CURVE('',#356,#357,#307,.T.);
#441=EDGE_CURVE('',#357,#358,#175,.T.);
#442=EDGE_CURVE('',#358,#359,#308,.T.);
#443=EDGE_CURVE('',#359,#360,#176,.T.);
#444=EDGE_CURVE('',#360,#361,#309,.T.);
#445=EDGE_CURVE('',#361,#354,#177,.T.);
#446=EDGE_CURVE('',#362,#363,#310,.T.);
#447=EDGE_CURVE('',#363,#364,#178,.T.);
#448=EDGE_CURVE('',#364,#365,#311,.T.);
#449=EDGE_CURVE('',#365,#366,#179,.T.);
#450=EDGE_CURVE('',#366,#367,#312,.T.);
#451=EDGE_CURVE('',#367,#368,#180,.T.);
#452=EDGE_CURVE('',#368,#369,#313,.T.);
#453=EDGE_CURVE('',#369,#362,#181,.T.);
#454=EDGE_CURVE('',#370,#371,#314,.T.);
#455=EDGE_CURVE('',#371,#372,#182,.T.);
#456=EDGE_CURVE('',#372,#373,#315,.T.);
#457=EDGE_CURVE('',#373,#374,#183,.T.);
#458=EDGE_CURVE('',#374,#375,#316,.T.);
#459=EDGE_CURVE('',#375,#376,#184,.T.);
#460=EDGE_CURVE('',#376,#377,#317,.T.);
#461=EDGE_CURVE('',#377,#370,#185,.T.);
#462=EDGE_CURVE('',#378,#379,#186,.T.);
#463=EDGE_CURVE('',#379,#370,#187,.T.);
#464=EDGE_CURVE('',#378,#377,#188,.T.);
#465=EDGE_CURVE('',#380,#378,#318,.T.);
#466=EDGE_CURVE('',#380,#376,#189,.T.);
#467=EDGE_CURVE('',#381,#380,#190,.T.);
#468=EDGE_CURVE('',#381,#375,#191,.T.);
#469=EDGE_CURVE('',#382,#381,#319,.T.);
#470=EDGE_CURVE('',#382,#374,#192,.T.);
#471=EDGE_CURVE('',#383,#382,#193,.T.);
#472=EDGE_CURVE('',#383,#373,#194,.T.);
#473=EDGE_CURVE('',#384,#383,#320,.T.);
#474=EDGE_CURVE('',#384,#372,#195,.T.);
#475=EDGE_CURVE('',#385,#384,#196,.T.);
#476=EDGE_CURVE('',#385,#371,#197,.T.);
#477=EDGE_CURVE('',#379,#385,#321,.T.);
#478=EDGE_CURVE('',#386,#387,#198,.T.);
#479=EDGE_CURVE('',#387,#362,#199,.T.);
#480=EDGE_CURVE('',#386,#369,#200,.T.);
#481=EDGE_CURVE('',#388,#386,#322,.T.);
#482=EDGE_CURVE('',#388,#368,#201,.T.);
#483=EDGE_CURVE('',#389,#388,#202,.T.);
#484=EDGE_CURVE('',#389,#367,#203,.T.);
#485=EDGE_CURVE('',#390,#389,#323,.T.);
#486=EDGE_CURVE('',#390,#366,#204,.T.);
#487=EDGE_CURVE('',#391,#390,#205,.T.);
#488=EDGE_CURVE('',#391,#365,#206,.T.);
#489=EDGE_CURVE('',#392,#391,#324,.T.);
#490=EDGE_CURVE('',#392,#364,#207,.T.);
#491=EDGE_CURVE('',#393,#392,#208,.T.);
#492=EDGE_CURVE('',#393,#363,#209,.T.);
#493=EDGE_CURVE('',#387,#393,#325,.T.);
#494=EDGE_CURVE('',#394,#395,#210,.T.);
#495=EDGE_CURVE('',#395,#354,#211,.T.);
#496=EDGE_CURVE('',#394,#361,#212,.T.);
#497=EDGE_CURVE('',#396,#394,#326,.T.);
#498=EDGE_CURVE('',#396,#360,#213,.T.);
#499=EDGE_CURVE('',#397,#396,#214,.T.);
#500=EDGE_CURVE('',#397,#359,#215,.T.);
#501=EDGE_CURVE('',#398,#397,#327,.T.);
#502=EDGE_CURVE('',#398,#358,#216,.T.);
#503=EDGE_CURVE('',#399,#398,#217,.T.);
#504=EDGE_CURVE('',#399,#357,#218,.T.);
#505=EDGE_CURVE('',#400,#399,#328,.T.);
#506=EDGE_CURVE('',#400,#356,#219,.T.);
#507=EDGE_CURVE('',#401,#400,#220,.T.);
#508=EDGE_CURVE('',#401,#355,#221,.T.);
#509=EDGE_CURVE('',#395,#401,#329,.T.);
#510=ORIENTED_EDGE('',*,*,#402,.F.);
#511=ORIENTED_EDGE('',*,*,#403,.T.);
#512=ORIENTED_EDGE('',*,*,#404,.F.);
#513=ORIENTED_EDGE('',*,*,#403,.F.);
#514=ORIENTED_EDGE('',*,*,#405,.F.);
#515=ORIENTED_EDGE('',*,*,#406,.T.);
#516=ORIENTED_EDGE('',*,*,#407,.F.);
#517=ORIENTED_EDGE('',*,*,#406,.F.);
#518=ORIENTED_EDGE('',*,*,#408,.F.);
#519=ORIENTED_EDGE('',*,*,#409,.T.);
#520=ORIENTED_EDGE('',*,*,#410,.F.);
#521=ORIENTED_EDGE('',*,*,#409,.F.);
#522=ORIENTED_EDGE('',*,*,#411,.F.);
#523=ORIENTED_EDGE('',*,*,#412,.T.);
#524=ORIENTED_EDGE('',*,*,#413,.F.);
#525=ORIENTED_EDGE('',*,*,#412,.F.);
#526=ORIENTED_EDGE('',*,*,#414,.F.);
#527=ORIENTED_EDGE('',*,*,#415,.F.);
#528=ORIENTED_EDGE('',*,*,#416,.T.);
#529=ORIENTED_EDGE('',*,*,#417,.T.);
#530=ORIENTED_EDGE('',*,*,#418,.T.);
#531=ORIENTED_EDGE('',*,*,#419,.F.);
#532=ORIENTED_EDGE('',*,*,#420,.T.);
#533=ORIENTED_EDGE('',*,*,#415,.T.);
#534=ORIENTED_EDGE('',*,*,#421,.F.);
#535=ORIENTED_EDGE('',*,*,#417,.F.);
#536=ORIENTED_EDGE('',*,*,#422,.T.);
#537=ORIENTED_EDGE('',*,*,#423,.T.);
#538=ORIENTED_EDGE('',*,*,#424,.T.);
#539=ORIENTED_EDGE('',*,*,#423,.F.);
#540=ORIENTED_EDGE('',*,*,#425,.T.);
#541=ORIENTED_EDGE('',*,*,#419,.T.);
#542=ORIENTED_EDGE('',*,*,#426,.F.);
#543=ORIENTED_EDGE('',*,*,#427,.T.);
#544=ORIENTED_EDGE('',*,*,#428,.F.);
#545=ORIENTED_EDGE('',*,*,#429,.F.);
#546=ORIENTED_EDGE('',*,*,#430,.F.);
#547=ORIENTED_EDGE('',*,*,#429,.T.);
#548=ORIENTED_EDGE('',*,*,#431,.F.);
#549=ORIENTED_EDGE('',*,*,#432,.F.);
#550=ORIENTED_EDGE('',*,*,#433,.F.);
#551=ORIENTED_EDGE('',*,*,#432,.T.);
#552=ORIENTED_EDGE('',*,*,#434,.F.);
#553=ORIENTED_EDGE('',*,*,#435,.F.);
#554=ORIENTED_EDGE('',*,*,#436,.F.);
#555=ORIENTED_EDGE('',*,*,#435,.T.);
#556=ORIENTED_EDGE('',*,*,#437,.F.);
#557=ORIENTED_EDGE('',*,*,#427,.F.);
#558=ORIENTED_EDGE('',*,*,#437,.T.);
#559=ORIENTED_EDGE('',*,*,#434,.T.);
#560=ORIENTED_EDGE('',*,*,#431,.T.);
#561=ORIENTED_EDGE('',*,*,#428,.T.);
#562=ORIENTED_EDGE('',*,*,#438,.T.);
#563=ORIENTED_EDGE('',*,*,#439,.T.);
#564=ORIENTED_EDGE('',*,*,#440,.T.);
#565=ORIENTED_EDGE('',*,*,#441,.T.);
#566=ORIENTED_EDGE('',*,*,#442,.T.);
#567=ORIENTED_EDGE('',*,*,#443,.T.);
#568=ORIENTED_EDGE('',*,*,#444,.T.);
#569=ORIENTED_EDGE('',*,*,#445,.T.);
#570=ORIENTED_EDGE('',*,*,#446,.T.);
#571=ORIENTED_EDGE('',*,*,#447,.T.);
#572=ORIENTED_EDGE('',*,*,#448,.T.);
#573=ORIENTED_EDGE('',*,*,#449,.T.);
#574=ORIENTED_EDGE('',*,*,#450,.T.);
#575=ORIENTED_EDGE('',*,*,#451,.T.);
#576=ORIENTED_EDGE('',*,*,#452,.T.);
#577=ORIENTED_EDGE('',*,*,#453,.T.);
#578=ORIENTED_EDGE('',*,*,#454,.T.);
#579=ORIENTED_EDGE('',*,*,#455,.T.);
#580=ORIENTED_EDGE('',*,*,#456,.T.);
#581=ORIENTED_EDGE('',*,*,#457,.T.);
#582=ORIENTED_EDGE('',*,*,#458,.T.);
#583=ORIENTED_EDGE('',*,*,#459,.T.);
#584=ORIENTED_EDGE('',*,*,#460,.T.);
#585=ORIENTED_EDGE('',*,*,#461,.T.);
#586=ORIENTED_EDGE('',*,*,#411,.T.);
#587=ORIENTED_EDGE('',*,*,#408,.T.);
#588=ORIENTED_EDGE('',*,*,#405,.T.);
#589=ORIENTED_EDGE('',*,*,#402,.T.);
#590=ORIENTED_EDGE('',*,*,#436,.T.);
#591=ORIENTED_EDGE('',*,*,#426,.T.);
#592=ORIENTED_EDGE('',*,*,#430,.T.);
#593=ORIENTED_EDGE('',*,*,#433,.T.);
#594=ORIENTED_EDGE('',*,*,#425,.F.);
#595=ORIENTED_EDGE('',*,*,#422,.F.);
#596=ORIENTED_EDGE('',*,*,#416,.F.);
#597=ORIENTED_EDGE('',*,*,#420,.F.);
#598=ORIENTED_EDGE('',*,*,#413,.T.);
#599=ORIENTED_EDGE('',*,*,#410,.T.);
#600=ORIENTED_EDGE('',*,*,#407,.T.);
#601=ORIENTED_EDGE('',*,*,#404,.T.);
#602=ORIENTED_EDGE('',*,*,#462,.T.);
#603=ORIENTED_EDGE('',*,*,#463,.T.);
#604=ORIENTED_EDGE('',*,*,#461,.F.);
#605=ORIENTED_EDGE('',*,*,#464,.F.);
#606=ORIENTED_EDGE('',*,*,#465,.T.);
#607=ORIENTED_EDGE('',*,*,#464,.T.);
#608=ORIENTED_EDGE('',*,*,#460,.F.);
#609=ORIENTED_EDGE('',*,*,#466,.F.);
#610=ORIENTED_EDGE('',*,*,#467,.T.);
#611=ORIENTED_EDGE('',*,*,#466,.T.);
#612=ORIENTED_EDGE('',*,*,#459,.F.);
#613=ORIENTED_EDGE('',*,*,#468,.F.);
#614=ORIENTED_EDGE('',*,*,#469,.T.);
#615=ORIENTED_EDGE('',*,*,#468,.T.);
#616=ORIENTED_EDGE('',*,*,#458,.F.);
#617=ORIENTED_EDGE('',*,*,#470,.F.);
#618=ORIENTED_EDGE('',*,*,#471,.T.);
#619=ORIENTED_EDGE('',*,*,#470,.T.);
#620=ORIENTED_EDGE('',*,*,#457,.F.);
#621=ORIENTED_EDGE('',*,*,#472,.F.);
#622=ORIENTED_EDGE('',*,*,#473,.T.);
#623=ORIENTED_EDGE('',*,*,#472,.T.);
#624=ORIENTED_EDGE('',*,*,#456,.F.);
#625=ORIENTED_EDGE('',*,*,#474,.F.);
#626=ORIENTED_EDGE('',*,*,#475,.T.);
#627=ORIENTED_EDGE('',*,*,#474,.T.);
#628=ORIENTED_EDGE('',*,*,#455,.F.);
#629=ORIENTED_EDGE('',*,*,#476,.F.);
#630=ORIENTED_EDGE('',*,*,#477,.T.);
#631=ORIENTED_EDGE('',*,*,#476,.T.);
#632=ORIENTED_EDGE('',*,*,#454,.F.);
#633=ORIENTED_EDGE('',*,*,#463,.F.);
#634=ORIENTED_EDGE('',*,*,#478,.T.);
#635=ORIENTED_EDGE('',*,*,#479,.T.);
#636=ORIENTED_EDGE('',*,*,#453,.F.);
#637=ORIENTED_EDGE('',*,*,#480,.F.);
#638=ORIENTED_EDGE('',*,*,#481,.T.);
#639=ORIENTED_EDGE('',*,*,#480,.T.);
#640=ORIENTED_EDGE('',*,*,#452,.F.);
#641=ORIENTED_EDGE('',*,*,#482,.F.);
#642=ORIENTED_EDGE('',*,*,#483,.T.);
#643=ORIENTED_EDGE('',*,*,#482,.T.);
#644=ORIENTED_EDGE('',*,*,#451,.F.);
#645=ORIENTED_EDGE('',*,*,#484,.F.);
#646=ORIENTED_EDGE('',*,*,#485,.T.);
#647=ORIENTED_EDGE('',*,*,#484,.T.);
#648=ORIENTED_EDGE('',*,*,#450,.F.);
#649=ORIENTED_EDGE('',*,*,#486,.F.);
#650=ORIENTED_EDGE('',*,*,#487,.T.);
#651=ORIENTED_EDGE('',*,*,#486,.T.);
#652=ORIENTED_EDGE('',*,*,#449,.F.);
#653=ORIENTED_EDGE('',*,*,#488,.F.);
#654=ORIENTED_EDGE('',*,*,#489,.T.);
#655=ORIENTED_EDGE('',*,*,#488,.T.);
#656=ORIENTED_EDGE('',*,*,#448,.F.);
#657=ORIENTED_EDGE('',*,*,#490,.F.);
#658=ORIENTED_EDGE('',*,*,#491,.T.);
#659=ORIENTED_EDGE('',*,*,#490,.T.);
#660=ORIENTED_EDGE('',*,*,#447,.F.);
#661=ORIENTED_EDGE('',*,*,#492,.F.);
#662=ORIENTED_EDGE('',*,*,#493,.T.);
#663=ORIENTED_EDGE('',*,*,#492,.T.);
#664=ORIENTED_EDGE('',*,*,#446,.F.);
#665=ORIENTED_EDGE('',*,*,#479,.F.);
#666=ORIENTED_EDGE('',*,*,#494,.T.);
#667=ORIENTED_EDGE('',*,*,#495,.T.);
#668=ORIENTED_EDGE('',*,*,#445,.F.);
#669=ORIENTED_EDGE('',*,*,#496,.F.);
#670=ORIENTED_EDGE('',*,*,#497,.T.);
#671=ORIENTED_EDGE('',*,*,#496,.T.);
#672=ORIENTED_EDGE('',*,*,#444,.F.);
#673=ORIENTED_EDGE('',*,*,#498,.F.);
#674=ORIENTED_EDGE('',*,*,#499,.T.);
#675=ORIENTED_EDGE('',*,*,#498,.T.);
#676=ORIENTED_EDGE('',*,*,#443,.F.);
#677=ORIENTED_EDGE('',*,*,#500,.F.);
#678=ORIENTED_EDGE('',*,*,#501,.T.);
#679=ORIENTED_EDGE('',*,*,#500,.T.);
#680=ORIENTED_EDGE('',*,*,#442,.F.);
#681=ORIENTED_EDGE('',*,*,#502,.F.);
#682=ORIENTED_EDGE('',*,*,#503,.T.);
#683=ORIENTED_EDGE('',*,*,#502,.T.);
#684=ORIENTED_EDGE('',*,*,#441,.F.);
#685=ORIENTED_EDGE('',*,*,#504,.F.);
#686=ORIENTED_EDGE('',*,*,#505,.T.);
#687=ORIENTED_EDGE('',*,*,#504,.T.);
#688=ORIENTED_EDGE('',*,*,#440,.F.);
#689=ORIENTED_EDGE('',*,*,#506,.F.);
#690=ORIENTED_EDGE('',*,*,#507,.T.);
#691=ORIENTED_EDGE('',*,*,#506,.T.);
#692=ORIENTED_EDGE('',*,*,#439,.F.);
#693=ORIENTED_EDGE('',*,*,#508,.F.);
#694=ORIENTED_EDGE('',*,*,#509,.T.);
#695=ORIENTED_EDGE('',*,*,#508,.T.);
#696=ORIENTED_EDGE('',*,*,#438,.F.);
#697=ORIENTED_EDGE('',*,*,#495,.F.);
#698=ORIENTED_EDGE('',*,*,#418,.F.);
#699=ORIENTED_EDGE('',*,*,#414,.T.);
#700=ORIENTED_EDGE('',*,*,#421,.T.);
#701=ORIENTED_EDGE('',*,*,#424,.F.);
#702=ORIENTED_EDGE('',*,*,#509,.F.);
#703=ORIENTED_EDGE('',*,*,#494,.F.);
#704=ORIENTED_EDGE('',*,*,#497,.F.);
#705=ORIENTED_EDGE('',*,*,#499,.F.);
#706=ORIENTED_EDGE('',*,*,#501,.F.);
#707=ORIENTED_EDGE('',*,*,#503,.F.);
#708=ORIENTED_EDGE('',*,*,#505,.F.);
#709=ORIENTED_EDGE('',*,*,#507,.F.);
#710=ORIENTED_EDGE('',*,*,#493,.F.);
#711=ORIENTED_EDGE('',*,*,#478,.F.);
#712=ORIENTED_EDGE('',*,*,#481,.F.);
#713=ORIENTED_EDGE('',*,*,#483,.F.);
#714=ORIENTED_EDGE('',*,*,#485,.F.);
#715=ORIENTED_EDGE('',*,*,#487,.F.);
#716=ORIENTED_EDGE('',*,*,#489,.F.);
#717=ORIENTED_EDGE('',*,*,#491,.F.);
#718=ORIENTED_EDGE('',*,*,#477,.F.);
#719=ORIENTED_EDGE('',*,*,#462,.F.);
#720=ORIENTED_EDGE('',*,*,#465,.F.);
#721=ORIENTED_EDGE('',*,*,#467,.F.);
#722=ORIENTED_EDGE('',*,*,#469,.F.);
#723=ORIENTED_EDGE('',*,*,#471,.F.);
#724=ORIENTED_EDGE('',*,*,#473,.F.);
#725=ORIENTED_EDGE('',*,*,#475,.F.);
#726=CYLINDRICAL_SURFACE('',#795,1.7);
#727=CYLINDRICAL_SURFACE('',#798,1.7);
#728=CYLINDRICAL_SURFACE('',#801,1.7);
#729=CYLINDRICAL_SURFACE('',#804,1.7);
#730=CYLINDRICAL_SURFACE('',#830,0.5);
#731=CYLINDRICAL_SURFACE('',#833,0.500000000000003);
#732=CYLINDRICAL_SURFACE('',#836,0.499999999999998);
#733=CYLINDRICAL_SURFACE('',#839,0.499999999999998);
#734=CYLINDRICAL_SURFACE('',#842,0.5);
#735=CYLINDRICAL_SURFACE('',#845,0.499999999999998);
#736=CYLINDRICAL_SURFACE('',#848,0.499999999999998);
#737=CYLINDRICAL_SURFACE('',#851,0.499999999999998);
#738=CYLINDRICAL_SURFACE('',#854,0.5);
#739=CYLINDRICAL_SURFACE('',#857,0.499999999999998);
#740=CYLINDRICAL_SURFACE('',#860,0.499999999999998);
#741=CYLINDRICAL_SURFACE('',#863,0.5);
#742=ADVANCED_FACE('',(#53),#726,.F.);
#743=ADVANCED_FACE('',(#54),#727,.F.);
#744=ADVANCED_FACE('',(#55),#728,.F.);
#745=ADVANCED_FACE('',(#56),#729,.F.);
#746=ADVANCED_FACE('',(#57),#30,.T.);
#747=ADVANCED_FACE('',(#58),#31,.T.);
#748=ADVANCED_FACE('',(#59),#32,.T.);
#749=ADVANCED_FACE('',(#60),#33,.T.);
#750=ADVANCED_FACE('',(#61),#34,.T.);
#751=ADVANCED_FACE('',(#62),#35,.T.);
#752=ADVANCED_FACE('',(#63),#36,.T.);
#753=ADVANCED_FACE('',(#64),#37,.T.);
#754=ADVANCED_FACE('',(#65,#15,#16,#17,#18,#19,#20,#21),#38,.T.);
#755=ADVANCED_FACE('',(#66,#22,#23,#24,#25,#26),#39,.F.);
#756=ADVANCED_FACE('',(#67),#40,.T.);
#757=ADVANCED_FACE('',(#68),#730,.F.);
#758=ADVANCED_FACE('',(#69),#41,.T.);
#759=ADVANCED_FACE('',(#70),#731,.F.);
#760=ADVANCED_FACE('',(#71),#42,.T.);
#761=ADVANCED_FACE('',(#72),#732,.F.);
#762=ADVANCED_FACE('',(#73),#43,.T.);
#763=ADVANCED_FACE('',(#74),#733,.F.);
#764=ADVANCED_FACE('',(#75),#44,.T.);
#765=ADVANCED_FACE('',(#76),#734,.F.);
#766=ADVANCED_FACE('',(#77),#45,.T.);
#767=ADVANCED_FACE('',(#78),#735,.F.);
#768=ADVANCED_FACE('',(#79),#46,.T.);
#769=ADVANCED_FACE('',(#80),#736,.F.);
#770=ADVANCED_FACE('',(#81),#47,.T.);
#771=ADVANCED_FACE('',(#82),#737,.F.);
#772=ADVANCED_FACE('',(#83),#48,.T.);
#773=ADVANCED_FACE('',(#84),#738,.F.);
#774=ADVANCED_FACE('',(#85),#49,.T.);
#775=ADVANCED_FACE('',(#86),#739,.F.);
#776=ADVANCED_FACE('',(#87),#50,.T.);
#777=ADVANCED_FACE('',(#88),#740,.F.);
#778=ADVANCED_FACE('',(#89),#51,.T.);
#779=ADVANCED_FACE('',(#90),#741,.F.);
#780=ADVANCED_FACE('',(#91,#27,#28,#29),#52,.F.);
#781=CLOSED_SHELL('',(#742,#743,#744,#745,#746,#747,#748,#749,#750,#751,
#752,#753,#754,#755,#756,#757,#758,#759,#760,#761,#762,#763,#764,#765,#766,
#767,#768,#769,#770,#771,#772,#773,#774,#775,#776,#777,#778,#779,#780));
#782=DERIVED_UNIT_ELEMENT(#784,1.);
#783=DERIVED_UNIT_ELEMENT(#1311,-3.);
#784=(
MASS_UNIT()
NAMED_UNIT(*)
SI_UNIT(.KILO.,.GRAM.)
);
#785=DERIVED_UNIT((#782,#783));
#786=MEASURE_REPRESENTATION_ITEM('density measure',
POSITIVE_RATIO_MEASURE(7850.),#785);
#787=PROPERTY_DEFINITION_REPRESENTATION(#792,#789);
#788=PROPERTY_DEFINITION_REPRESENTATION(#793,#790);
#789=REPRESENTATION('material name',(#791),#1308);
#790=REPRESENTATION('density',(#786),#1308);
#791=DESCRIPTIVE_REPRESENTATION_ITEM('Steel','Steel');
#792=PROPERTY_DEFINITION('material property','material name',#1318);
#793=PROPERTY_DEFINITION('material property','density of part',#1318);
#794=AXIS2_PLACEMENT_3D('',#1086,#866,#867);
#795=AXIS2_PLACEMENT_3D('',#1087,#868,#869);
#796=AXIS2_PLACEMENT_3D('',#1089,#870,#871);
#797=AXIS2_PLACEMENT_3D('',#1092,#873,#874);
#798=AXIS2_PLACEMENT_3D('',#1093,#875,#876);
#799=AXIS2_PLACEMENT_3D('',#1095,#877,#878);
#800=AXIS2_PLACEMENT_3D('',#1098,#880,#881);
#801=AXIS2_PLACEMENT_3D('',#1099,#882,#883);
#802=AXIS2_PLACEMENT_3D('',#1101,#884,#885);
#803=AXIS2_PLACEMENT_3D('',#1104,#887,#888);
#804=AXIS2_PLACEMENT_3D('',#1105,#889,#890);
#805=AXIS2_PLACEMENT_3D('',#1107,#891,#892);
#806=AXIS2_PLACEMENT_3D('',#1110,#894,#895);
#807=AXIS2_PLACEMENT_3D('',#1111,#896,#897);
#808=AXIS2_PLACEMENT_3D('',#1120,#902,#903);
#809=AXIS2_PLACEMENT_3D('',#1126,#907,#908);
#810=AXIS2_PLACEMENT_3D('',#1132,#912,#913);
#811=AXIS2_PLACEMENT_3D('',#1135,#916,#917);
#812=AXIS2_PLACEMENT_3D('',#1144,#922,#923);
#813=AXIS2_PLACEMENT_3D('',#1150,#927,#928);
#814=AXIS2_PLACEMENT_3D('',#1156,#932,#933);
#815=AXIS2_PLACEMENT_3D('',#1159,#936,#937);
#816=AXIS2_PLACEMENT_3D('',#1162,#938,#939);
#817=AXIS2_PLACEMENT_3D('',#1166,#941,#942);
#818=AXIS2_PLACEMENT_3D('',#1170,#944,#945);
#819=AXIS2_PLACEMENT_3D('',#1174,#947,#948);
#820=AXIS2_PLACEMENT_3D('',#1178,#950,#951);
#821=AXIS2_PLACEMENT_3D('',#1182,#953,#954);
#822=AXIS2_PLACEMENT_3D('',#1186,#956,#957);
#823=AXIS2_PLACEMENT_3D('',#1190,#959,#960);
#824=AXIS2_PLACEMENT_3D('',#1194,#962,#963);
#825=AXIS2_PLACEMENT_3D('',#1198,#965,#966);
#826=AXIS2_PLACEMENT_3D('',#1202,#968,#969);
#827=AXIS2_PLACEMENT_3D('',#1206,#971,#972);
#828=AXIS2_PLACEMENT_3D('',#1208,#974,#975);
#829=AXIS2_PLACEMENT_3D('',#1209,#976,#977);
#830=AXIS2_PLACEMENT_3D('',#1215,#981,#982);
#831=AXIS2_PLACEMENT_3D('',#1217,#983,#984);
#832=AXIS2_PLACEMENT_3D('',#1219,#986,#987);
#833=AXIS2_PLACEMENT_3D('',#1223,#990,#991);
#834=AXIS2_PLACEMENT_3D('',#1225,#992,#993);
#835=AXIS2_PLACEMENT_3D('',#1227,#995,#996);
#836=AXIS2_PLACEMENT_3D('',#1231,#999,#1000);
#837=AXIS2_PLACEMENT_3D('',#1233,#1001,#1002);
#838=AXIS2_PLACEMENT_3D('',#1235,#1004,#1005);
#839=AXIS2_PLACEMENT_3D('',#1239,#1008,#1009);
#840=AXIS2_PLACEMENT_3D('',#1240,#1010,#1011);
#841=AXIS2_PLACEMENT_3D('',#1241,#1012,#1013);
#842=AXIS2_PLACEMENT_3D('',#1247,#1017,#1018);
#843=AXIS2_PLACEMENT_3D('',#1249,#1019,#1020);
#844=AXIS2_PLACEMENT_3D('',#1251,#1022,#1023);
#845=AXIS2_PLACEMENT_3D('',#1255,#1026,#1027);
#846=AXIS2_PLACEMENT_3D('',#1257,#1028,#1029);
#847=AXIS2_PLACEMENT_3D('',#1259,#1031,#1032);
#848=AXIS2_PLACEMENT_3D('',#1263,#1035,#1036);
#849=AXIS2_PLACEMENT_3D('',#1265,#1037,#1038);
#850=AXIS2_PLACEMENT_3D('',#1267,#1040,#1041);
#851=AXIS2_PLACEMENT_3D('',#1271,#1044,#1045);
#852=AXIS2_PLACEMENT_3D('',#1272,#1046,#1047);
#853=AXIS2_PLACEMENT_3D('',#1273,#1048,#1049);
#854=AXIS2_PLACEMENT_3D('',#1279,#1053,#1054);
#855=AXIS2_PLACEMENT_3D('',#1281,#1055,#1056);
#856=AXIS2_PLACEMENT_3D('',#1283,#1058,#1059);
#857=AXIS2_PLACEMENT_3D('',#1287,#1062,#1063);
#858=AXIS2_PLACEMENT_3D('',#1289,#1064,#1065);
#859=AXIS2_PLACEMENT_3D('',#1291,#1067,#1068);
#860=AXIS2_PLACEMENT_3D('',#1295,#1071,#1072);
#861=AXIS2_PLACEMENT_3D('',#1297,#1073,#1074);
#862=AXIS2_PLACEMENT_3D('',#1299,#1076,#1077);
#863=AXIS2_PLACEMENT_3D('',#1303,#1080,#1081);
#864=AXIS2_PLACEMENT_3D('',#1304,#1082,#1083);
#865=AXIS2_PLACEMENT_3D('',#1305,#1084,#1085);
#866=DIRECTION('axis',(0.,0.,1.));
#867=DIRECTION('refdir',(1.,0.,0.));
#868=DIRECTION('center_axis',(0.,0.,-1.));
#869=DIRECTION('ref_axis',(-1.,0.,0.));
#870=DIRECTION('center_axis',(0.,0.,-1.));
#871=DIRECTION('ref_axis',(-1.,0.,0.));
#872=DIRECTION('',(0.,0.,-1.));
#873=DIRECTION('center_axis',(0.,0.,1.));
#874=DIRECTION('ref_axis',(-1.,0.,0.));
#875=DIRECTION('center_axis',(0.,0.,-1.));
#876=DIRECTION('ref_axis',(-1.,0.,0.));
#877=DIRECTION('center_axis',(0.,0.,-1.));
#878=DIRECTION('ref_axis',(-1.,0.,0.));
#879=DIRECTION('',(0.,0.,-1.));
#880=DIRECTION('center_axis',(0.,0.,1.));
#881=DIRECTION('ref_axis',(-1.,0.,0.));
#882=DIRECTION('center_axis',(0.,0.,-1.));
#883=DIRECTION('ref_axis',(-1.,0.,0.));
#884=DIRECTION('center_axis',(0.,0.,-1.));
#885=DIRECTION('ref_axis',(-1.,0.,0.));
#886=DIRECTION('',(0.,0.,-1.));
#887=DIRECTION('center_axis',(0.,0.,1.));
#888=DIRECTION('ref_axis',(-1.,0.,0.));
#889=DIRECTION('center_axis',(0.,0.,-1.));
#890=DIRECTION('ref_axis',(-1.,0.,0.));
#891=DIRECTION('center_axis',(0.,0.,-1.));
#892=DIRECTION('ref_axis',(-1.,0.,0.));
#893=DIRECTION('',(0.,0.,-1.));
#894=DIRECTION('center_axis',(0.,0.,1.));
#895=DIRECTION('ref_axis',(-1.,0.,0.));
#896=DIRECTION('center_axis',(1.,0.,0.));
#897=DIRECTION('ref_axis',(0.,1.,0.));
#898=DIRECTION('',(0.,1.,0.));
#899=DIRECTION('',(0.,0.,1.));
#900=DIRECTION('',(0.,1.,0.));
#901=DIRECTION('',(0.,0.,1.));
#902=DIRECTION('center_axis',(0.,1.,0.));
#903=DIRECTION('ref_axis',(-1.,0.,0.));
#904=DIRECTION('',(1.,0.,0.));
#905=DIRECTION('',(0.,0.,1.));
#906=DIRECTION('',(-1.,0.,0.));
#907=DIRECTION('center_axis',(0.,-1.,0.));
#908=DIRECTION('ref_axis',(1.,0.,0.));
#909=DIRECTION('',(1.,0.,0.));
#910=DIRECTION('',(1.,0.,0.));
#911=DIRECTION('',(0.,0.,1.));
#912=DIRECTION('center_axis',(-1.,0.,0.));
#913=DIRECTION('ref_axis',(0.,-1.,0.));
#914=DIRECTION('',(0.,1.,0.));
#915=DIRECTION('',(0.,-1.,0.));
#916=DIRECTION('center_axis',(1.,0.,0.));
#917=DIRECTION('ref_axis',(0.,1.,0.));
#918=DIRECTION('',(0.,-1.,0.));
#919=DIRECTION('',(0.,0.,1.));
#920=DIRECTION('',(0.,1.,0.));
#921=DIRECTION('',(0.,0.,1.));
#922=DIRECTION('center_axis',(0.,-1.,0.));
#923=DIRECTION('ref_axis',(1.,0.,0.));
#924=DIRECTION('',(-1.,0.,0.));
#925=DIRECTION('',(1.,0.,0.));
#926=DIRECTION('',(0.,0.,1.));
#927=DIRECTION('center_axis',(-1.,0.,0.));
#928=DIRECTION('ref_axis',(0.,-1.,0.));
#929=DIRECTION('',(0.,1.,0.));
#930=DIRECTION('',(0.,-1.,0.));
#931=DIRECTION('',(0.,0.,1.));
#932=DIRECTION('center_axis',(0.,1.,0.));
#933=DIRECTION('ref_axis',(-1.,0.,0.));
#934=DIRECTION('',(1.,0.,0.));
#935=DIRECTION('',(-1.,0.,0.));
#936=DIRECTION('center_axis',(0.,0.,1.));
#937=DIRECTION('ref_axis',(1.,0.,0.));
#938=DIRECTION('center_axis',(0.,0.,-1.));
#939=DIRECTION('ref_axis',(0.,1.,0.));
#940=DIRECTION('',(1.,0.,0.));
#941=DIRECTION('center_axis',(0.,0.,-1.));
#942=DIRECTION('ref_axis',(1.,0.,0.));
#943=DIRECTION('',(0.,-1.,0.));
#944=DIRECTION('center_axis',(0.,0.,-1.));
#945=DIRECTION('ref_axis',(0.,-1.,0.));
#946=DIRECTION('',(-1.,0.,0.));
#947=DIRECTION('center_axis',(0.,0.,-1.));
#948=DIRECTION('ref_axis',(-1.,0.,0.));
#949=DIRECTION('',(0.,1.,0.));
#950=DIRECTION('center_axis',(0.,0.,-1.));
#951=DIRECTION('ref_axis',(0.,1.,0.));
#952=DIRECTION('',(1.,0.,0.));
#953=DIRECTION('center_axis',(0.,0.,-1.));
#954=DIRECTION('ref_axis',(1.,0.,0.));
#955=DIRECTION('',(0.,-1.,0.));
#956=DIRECTION('center_axis',(0.,0.,-1.));
#957=DIRECTION('ref_axis',(0.,-1.,0.));
#958=DIRECTION('',(-1.,0.,0.));
#959=DIRECTION('center_axis',(0.,0.,-1.));
#960=DIRECTION('ref_axis',(-1.,0.,0.));
#961=DIRECTION('',(0.,1.,0.));
#962=DIRECTION('center_axis',(0.,0.,-1.));
#963=DIRECTION('ref_axis',(0.,1.,0.));
#964=DIRECTION('',(1.,0.,0.));
#965=DIRECTION('center_axis',(0.,0.,-1.));
#966=DIRECTION('ref_axis',(1.,0.,0.));
#967=DIRECTION('',(0.,-1.,0.));
#968=DIRECTION('center_axis',(0.,0.,-1.));
#969=DIRECTION('ref_axis',(0.,-1.,0.));
#970=DIRECTION('',(-1.,0.,0.));
#971=DIRECTION('center_axis',(0.,0.,-1.));
#972=DIRECTION('ref_axis',(-1.,0.,0.));
#973=DIRECTION('',(0.,1.,0.));
#974=DIRECTION('center_axis',(0.,0.,1.));
#975=DIRECTION('ref_axis',(-1.,0.,0.));
#976=DIRECTION('center_axis',(1.,0.,0.));
#977=DIRECTION('ref_axis',(0.,1.,0.));
#978=DIRECTION('',(0.,1.,0.));
#979=DIRECTION('',(0.,0.,1.));
#980=DIRECTION('',(0.,0.,1.));
#981=DIRECTION('center_axis',(0.,0.,1.));
#982=DIRECTION('ref_axis',(-1.,0.,0.));
#983=DIRECTION('center_axis',(0.,0.,-1.));
#984=DIRECTION('ref_axis',(-1.,0.,0.));
#985=DIRECTION('',(0.,0.,1.));
#986=DIRECTION('center_axis',(0.,1.,0.));
#987=DIRECTION('ref_axis',(-1.,0.,0.));
#988=DIRECTION('',(-1.,0.,0.));
#989=DIRECTION('',(0.,0.,1.));
#990=DIRECTION('center_axis',(0.,0.,1.));
#991=DIRECTION('ref_axis',(0.,-1.,0.));
#992=DIRECTION('center_axis',(0.,0.,-1.));
#993=DIRECTION('ref_axis',(0.,-1.,0.));
#994=DIRECTION('',(0.,0.,1.));
#995=DIRECTION('center_axis',(-1.,0.,0.));
#996=DIRECTION('ref_axis',(0.,-1.,0.));
#997=DIRECTION('',(0.,-1.,0.));
#998=DIRECTION('',(0.,0.,1.));
#999=DIRECTION('center_axis',(0.,0.,1.));
#1000=DIRECTION('ref_axis',(1.,0.,0.));
#1001=DIRECTION('center_axis',(0.,0.,-1.));
#1002=DIRECTION('ref_axis',(1.,0.,0.));
#1003=DIRECTION('',(0.,0.,1.));
#1004=DIRECTION('center_axis',(0.,-1.,0.));
#1005=DIRECTION('ref_axis',(1.,0.,0.));
#1006=DIRECTION('',(1.,0.,0.));
#1007=DIRECTION('',(0.,0.,1.));
#1008=DIRECTION('center_axis',(0.,0.,1.));
#1009=DIRECTION('ref_axis',(0.,1.,0.));
#1010=DIRECTION('center_axis',(0.,0.,-1.));
#1011=DIRECTION('ref_axis',(0.,1.,0.));
#1012=DIRECTION('center_axis',(1.,0.,0.));
#1013=DIRECTION('ref_axis',(0.,1.,0.));
#1014=DIRECTION('',(0.,1.,0.));
#1015=DIRECTION('',(0.,0.,1.));
#1016=DIRECTION('',(0.,0.,1.));
#1017=DIRECTION('center_axis',(0.,0.,1.));
#1018=DIRECTION('ref_axis',(-1.,0.,0.));
#1019=DIRECTION('center_axis',(0.,0.,-1.));
#1020=DIRECTION('ref_axis',(-1.,0.,0.));
#1021=DIRECTION('',(0.,0.,1.));
#1022=DIRECTION('center_axis',(0.,1.,0.));
#1023=DIRECTION('ref_axis',(-1.,0.,0.));
#1024=DIRECTION('',(-1.,0.,0.));
#1025=DIRECTION('',(0.,0.,1.));
#1026=DIRECTION('center_axis',(0.,0.,1.));
#1027=DIRECTION('ref_axis',(0.,-1.,0.));
#1028=DIRECTION('center_axis',(0.,0.,-1.));
#1029=DIRECTION('ref_axis',(0.,-1.,0.));
#1030=DIRECTION('',(0.,0.,1.));
#1031=DIRECTION('center_axis',(-1.,0.,0.));
#1032=DIRECTION('ref_axis',(0.,-1.,0.));
#1033=DIRECTION('',(0.,-1.,0.));
#1034=DIRECTION('',(0.,0.,1.));
#1035=DIRECTION('center_axis',(0.,0.,1.));
#1036=DIRECTION('ref_axis',(1.,0.,0.));
#1037=DIRECTION('center_axis',(0.,0.,-1.));
#1038=DIRECTION('ref_axis',(1.,0.,0.));
#1039=DIRECTION('',(0.,0.,1.));
#1040=DIRECTION('center_axis',(0.,-1.,0.));
#1041=DIRECTION('ref_axis',(1.,0.,0.));
#1042=DIRECTION('',(1.,0.,0.));
#1043=DIRECTION('',(0.,0.,1.));
#1044=DIRECTION('center_axis',(0.,0.,1.));
#1045=DIRECTION('ref_axis',(0.,1.,0.));
#1046=DIRECTION('center_axis',(0.,0.,-1.));
#1047=DIRECTION('ref_axis',(0.,1.,0.));
#1048=DIRECTION('center_axis',(1.,0.,0.));
#1049=DIRECTION('ref_axis',(0.,1.,0.));
#1050=DIRECTION('',(0.,1.,0.));
#1051=DIRECTION('',(0.,0.,1.));
#1052=DIRECTION('',(0.,0.,1.));
#1053=DIRECTION('center_axis',(0.,0.,1.));
#1054=DIRECTION('ref_axis',(-1.,0.,0.));
#1055=DIRECTION('center_axis',(0.,0.,-1.));
#1056=DIRECTION('ref_axis',(-1.,0.,0.));
#1057=DIRECTION('',(0.,0.,1.));
#1058=DIRECTION('center_axis',(0.,1.,0.));
#1059=DIRECTION('ref_axis',(-1.,0.,0.));
#1060=DIRECTION('',(-1.,0.,0.));
#1061=DIRECTION('',(0.,0.,1.));
#1062=DIRECTION('center_axis',(0.,0.,1.));
#1063=DIRECTION('ref_axis',(0.,-1.,0.));
#1064=DIRECTION('center_axis',(0.,0.,-1.));
#1065=DIRECTION('ref_axis',(0.,-1.,0.));
#1066=DIRECTION('',(0.,0.,1.));
#1067=DIRECTION('center_axis',(-1.,0.,0.));
#1068=DIRECTION('ref_axis',(0.,-1.,0.));
#1069=DIRECTION('',(0.,-1.,0.));
#1070=DIRECTION('',(0.,0.,1.));
#1071=DIRECTION('center_axis',(0.,0.,1.));
#1072=DIRECTION('ref_axis',(1.,0.,0.));
#1073=DIRECTION('center_axis',(0.,0.,-1.));
#1074=DIRECTION('ref_axis',(1.,0.,0.));
#1075=DIRECTION('',(0.,0.,1.));
#1076=DIRECTION('center_axis',(0.,-1.,0.));
#1077=DIRECTION('ref_axis',(1.,0.,0.));
#1078=DIRECTION('',(1.,0.,0.));
#1079=DIRECTION('',(0.,0.,1.));
#1080=DIRECTION('center_axis',(0.,0.,1.));
#1081=DIRECTION('ref_axis',(0.,1.,0.));
#1082=DIRECTION('center_axis',(0.,0.,-1.));
#1083=DIRECTION('ref_axis',(0.,1.,0.));
#1084=DIRECTION('center_axis',(0.,0.,1.));
#1085=DIRECTION('ref_axis',(1.,0.,0.));
#1086=CARTESIAN_POINT('',(0.,0.,0.));
#1087=CARTESIAN_POINT('Origin',(21.0000003129245,-37.000000551343,15.));
#1088=CARTESIAN_POINT('',(22.7000003129245,-37.000000551343,15.));
#1089=CARTESIAN_POINT('Origin',(21.0000003129245,-37.000000551343,15.));
#1090=CARTESIAN_POINT('',(22.7000003129245,-37.000000551343,10.));
#1091=CARTESIAN_POINT('',(22.7000003129245,-37.000000551343,15.));
#1092=CARTESIAN_POINT('Origin',(21.0000003129245,-37.000000551343,10.));
#1093=CARTESIAN_POINT('Origin',(21.0000003129243,37.000000551343,15.));
#1094=CARTESIAN_POINT('',(22.7000003129243,37.000000551343,15.));
#1095=CARTESIAN_POINT('Origin',(21.0000003129243,37.000000551343,15.));
#1096=CARTESIAN_POINT('',(22.7000003129243,37.000000551343,10.));
#1097=CARTESIAN_POINT('',(22.7000003129243,37.000000551343,15.));
#1098=CARTESIAN_POINT('Origin',(21.0000003129243,37.000000551343,10.));
#1099=CARTESIAN_POINT('Origin',(-21.0000003129244,-37.0000005513429,15.));
#1100=CARTESIAN_POINT('',(-19.3000003129244,-37.0000005513429,15.));
#1101=CARTESIAN_POINT('Origin',(-21.0000003129244,-37.0000005513429,15.));
#1102=CARTESIAN_POINT('',(-19.3000003129244,-37.0000005513429,10.));
#1103=CARTESIAN_POINT('',(-19.3000003129244,-37.0000005513429,15.));
#1104=CARTESIAN_POINT('Origin',(-21.0000003129244,-37.0000005513429,10.));
#1105=CARTESIAN_POINT('Origin',(-21.0000003129244,37.000000551343,15.));
#1106=CARTESIAN_POINT('',(-19.3000003129244,37.000000551343,15.));
#1107=CARTESIAN_POINT('Origin',(-21.0000003129244,37.000000551343,15.));
#1108=CARTESIAN_POINT('',(-19.3000003129244,37.000000551343,10.));
#1109=CARTESIAN_POINT('',(-19.3000003129244,37.000000551343,15.));
#1110=CARTESIAN_POINT('Origin',(-21.0000003129244,37.000000551343,10.));
#1111=CARTESIAN_POINT('Origin',(-10.0000001490116,-27.15,10.));
#1112=CARTESIAN_POINT('',(-10.,-27.15,12.));
#1113=CARTESIAN_POINT('',(-10.,30.,12.));
#1114=CARTESIAN_POINT('',(-10.,-27.15,12.));
#1115=CARTESIAN_POINT('',(-10.,-27.15,10.));
#1116=CARTESIAN_POINT('',(-10.,-27.15,10.));
#1117=CARTESIAN_POINT('',(-10.0000001490116,30.,10.));
#1118=CARTESIAN_POINT('',(-10.0000001490116,41.0000006109476,10.));
#1119=CARTESIAN_POINT('',(-10.0000001490116,30.,10.));
#1120=CARTESIAN_POINT('Origin',(9.05,-27.15,10.));
#1121=CARTESIAN_POINT('',(9.05,-27.15,12.));
#1122=CARTESIAN_POINT('',(-10.,-27.15,12.));
#1123=CARTESIAN_POINT('',(9.05,-27.15,10.));
#1124=CARTESIAN_POINT('',(9.05,-27.15,10.));
#1125=CARTESIAN_POINT('',(-10.,-27.15,10.));
#1126=CARTESIAN_POINT('Origin',(-10.0000001490116,30.,10.));
#1127=CARTESIAN_POINT('',(9.05,30.,12.));
#1128=CARTESIAN_POINT('',(-10.,30.,12.));
#1129=CARTESIAN_POINT('',(9.05,30.,10.));
#1130=CARTESIAN_POINT('',(24.0000003576279,30.,10.));
#1131=CARTESIAN_POINT('',(9.05,30.,10.));
#1132=CARTESIAN_POINT('Origin',(9.05,30.,10.));
#1133=CARTESIAN_POINT('',(9.05,-27.15,12.));
#1134=CARTESIAN_POINT('',(9.05,-27.15,10.));
#1135=CARTESIAN_POINT('Origin',(24.0000003576279,-41.0000006109476,10.));
#1136=CARTESIAN_POINT('',(24.0000003576279,41.0000006109476,10.));
#1137=CARTESIAN_POINT('',(24.0000003576279,-41.0000006109476,10.));
#1138=CARTESIAN_POINT('',(24.0000003576279,-27.15,10.));
#1139=CARTESIAN_POINT('',(24.0000003576279,41.0000006109476,15.));
#1140=CARTESIAN_POINT('',(24.0000003576279,41.0000006109476,10.));
#1141=CARTESIAN_POINT('',(24.0000003576279,-41.0000006109476,15.));
#1142=CARTESIAN_POINT('',(24.0000003576279,-27.15,15.));
#1143=CARTESIAN_POINT('',(24.0000003576279,-41.0000006109476,10.));
#1144=CARTESIAN_POINT('Origin',(-24.0000003576279,-41.0000006109476,10.));
#1145=CARTESIAN_POINT('',(-24.0000003576279,-41.0000006109476,10.));
#1146=CARTESIAN_POINT('',(-10.0000001490116,-41.0000006109476,10.));
#1147=CARTESIAN_POINT('',(-24.0000003576279,-41.0000006109476,15.));
#1148=CARTESIAN_POINT('',(-10.0000001490116,-41.0000006109476,15.));
#1149=CARTESIAN_POINT('',(-24.0000003576279,-41.0000006109476,10.));
#1150=CARTESIAN_POINT('Origin',(-24.0000003576279,41.0000006109476,10.));
#1151=CARTESIAN_POINT('',(-24.0000003576279,41.0000006109476,10.));
#1152=CARTESIAN_POINT('',(-24.0000003576279,-41.0000006109476,10.));
#1153=CARTESIAN_POINT('',(-24.0000003576279,41.0000006109476,15.));
#1154=CARTESIAN_POINT('',(-24.0000003576279,-41.0000006109476,15.));
#1155=CARTESIAN_POINT('',(-24.0000003576279,41.0000006109476,10.));
#1156=CARTESIAN_POINT('Origin',(24.0000003576279,41.0000006109476,10.));
#1157=CARTESIAN_POINT('',(-10.0000001490116,41.0000006109476,10.));
#1158=CARTESIAN_POINT('',(-10.0000001490116,41.0000006109476,15.));
#1159=CARTESIAN_POINT('Origin',(0.,0.,15.));
#1160=CARTESIAN_POINT('',(-7.475,26.975,15.));
#1161=CARTESIAN_POINT('',(-6.975,27.475,15.));
#1162=CARTESIAN_POINT('Origin',(-6.975,26.975,15.));
#1163=CARTESIAN_POINT('',(6.025,27.475,15.));
#1164=CARTESIAN_POINT('',(-6.975,27.475,15.));
#1165=CARTESIAN_POINT('',(6.525,26.975,15.));
#1166=CARTESIAN_POINT('Origin',(6.025,26.975,15.));
#1167=CARTESIAN_POINT('',(6.525,13.975,15.));
#1168=CARTESIAN_POINT('',(6.525,26.975,15.));
#1169=CARTESIAN_POINT('',(6.025,13.475,15.));
#1170=CARTESIAN_POINT('Origin',(6.025,13.975,15.));
#1171=CARTESIAN_POINT('',(-6.975,13.475,15.));
#1172=CARTESIAN_POINT('',(-6.975,13.475,15.));
#1173=CARTESIAN_POINT('',(-7.475,13.975,15.));
#1174=CARTESIAN_POINT('Origin',(-6.975,13.975,15.));
#1175=CARTESIAN_POINT('',(-7.475,26.975,15.));
#1176=CARTESIAN_POINT('',(-7.475,-11.125,15.));
#1177=CARTESIAN_POINT('',(-6.975,-10.625,15.));
#1178=CARTESIAN_POINT('Origin',(-6.975,-11.125,15.));
#1179=CARTESIAN_POINT('',(6.025,-10.625,15.));
#1180=CARTESIAN_POINT('',(-6.975,-10.625,15.));
#1181=CARTESIAN_POINT('',(6.525,-11.125,15.));
#1182=CARTESIAN_POINT('Origin',(6.025,-11.125,15.));
#1183=CARTESIAN_POINT('',(6.525,-24.125,15.));
#1184=CARTESIAN_POINT('',(6.525,-11.125,15.));
#1185=CARTESIAN_POINT('',(6.025,-24.625,15.));
#1186=CARTESIAN_POINT('Origin',(6.025,-24.125,15.));
#1187=CARTESIAN_POINT('',(-6.975,-24.625,15.));
#1188=CARTESIAN_POINT('',(-6.975,-24.625,15.));
#1189=CARTESIAN_POINT('',(-7.475,-24.125,15.));
#1190=CARTESIAN_POINT('Origin',(-6.975,-24.125,15.));
#1191=CARTESIAN_POINT('',(-7.475,-11.125,15.));
#1192=CARTESIAN_POINT('',(-7.475,7.925,15.));
#1193=CARTESIAN_POINT('',(-6.975,8.425,15.));
#1194=CARTESIAN_POINT('Origin',(-6.975,7.925,15.));
#1195=CARTESIAN_POINT('',(6.025,8.425,15.));
#1196=CARTESIAN_POINT('',(-6.975,8.425,15.));
#1197=CARTESIAN_POINT('',(6.525,7.925,15.));
#1198=CARTESIAN_POINT('Origin',(6.025,7.925,15.));
#1199=CARTESIAN_POINT('',(6.525,-5.075,15.));
#1200=CARTESIAN_POINT('',(6.525,7.925,15.));
#1201=CARTESIAN_POINT('',(6.025,-5.57500000000001,15.));
#1202=CARTESIAN_POINT('Origin',(6.025,-5.075,15.));
#1203=CARTESIAN_POINT('',(-6.975,-5.575,15.));
#1204=CARTESIAN_POINT('',(-6.975,-5.57500000000001,15.));
#1205=CARTESIAN_POINT('',(-7.475,-5.075,15.));
#1206=CARTESIAN_POINT('Origin',(-6.975,-5.075,15.));
#1207=CARTESIAN_POINT('',(-7.475,7.925,15.));
#1208=CARTESIAN_POINT('Origin',(0.,0.,10.));
#1209=CARTESIAN_POINT('Origin',(-7.475,-5.075,12.));
#1210=CARTESIAN_POINT('',(-7.475,-5.075,12.));
#1211=CARTESIAN_POINT('',(-7.475,7.925,12.));
#1212=CARTESIAN_POINT('',(-7.475,7.925,12.));
#1213=CARTESIAN_POINT('',(-7.475,7.925,12.));
#1214=CARTESIAN_POINT('',(-7.475,-5.075,12.));
#1215=CARTESIAN_POINT('Origin',(-6.975,-5.075,12.));
#1216=CARTESIAN_POINT('',(-6.975,-5.575,12.));
#1217=CARTESIAN_POINT('Origin',(-6.975,-5.075,12.));
#1218=CARTESIAN_POINT('',(-6.975,-5.575,12.));
#1219=CARTESIAN_POINT('Origin',(6.025,-5.57500000000001,12.));
#1220=CARTESIAN_POINT('',(6.025,-5.57500000000001,12.));
#1221=CARTESIAN_POINT('',(-6.975,-5.57500000000001,12.));
#1222=CARTESIAN_POINT('',(6.025,-5.57500000000001,12.));
#1223=CARTESIAN_POINT('Origin',(6.025,-5.075,12.));
#1224=CARTESIAN_POINT('',(6.525,-5.075,12.));
#1225=CARTESIAN_POINT('Origin',(6.025,-5.075,12.));
#1226=CARTESIAN_POINT('',(6.525,-5.075,12.));
#1227=CARTESIAN_POINT('Origin',(6.525,7.925,12.));
#1228=CARTESIAN_POINT('',(6.525,7.925,12.));
#1229=CARTESIAN_POINT('',(6.525,7.925,12.));
#1230=CARTESIAN_POINT('',(6.525,7.925,12.));
#1231=CARTESIAN_POINT('Origin',(6.025,7.925,12.));
#1232=CARTESIAN_POINT('',(6.025,8.425,12.));
#1233=CARTESIAN_POINT('Origin',(6.025,7.925,12.));
#1234=CARTESIAN_POINT('',(6.025,8.425,12.));
#1235=CARTESIAN_POINT('Origin',(-6.975,8.425,12.));
#1236=CARTESIAN_POINT('',(-6.975,8.425,12.));
#1237=CARTESIAN_POINT('',(-6.975,8.425,12.));
#1238=CARTESIAN_POINT('',(-6.975,8.425,12.));
#1239=CARTESIAN_POINT('Origin',(-6.975,7.925,12.));
#1240=CARTESIAN_POINT('Origin',(-6.975,7.925,12.));
#1241=CARTESIAN_POINT('Origin',(-7.475,-24.125,12.));
#1242=CARTESIAN_POINT('',(-7.475,-24.125,12.));
#1243=CARTESIAN_POINT('',(-7.475,-11.125,12.));
#1244=CARTESIAN_POINT('',(-7.475,-11.125,12.));
#1245=CARTESIAN_POINT('',(-7.475,-11.125,12.));
#1246=CARTESIAN_POINT('',(-7.475,-24.125,12.));
#1247=CARTESIAN_POINT('Origin',(-6.975,-24.125,12.));
#1248=CARTESIAN_POINT('',(-6.975,-24.625,12.));
#1249=CARTESIAN_POINT('Origin',(-6.975,-24.125,12.));
#1250=CARTESIAN_POINT('',(-6.975,-24.625,12.));
#1251=CARTESIAN_POINT('Origin',(6.025,-24.625,12.));
#1252=CARTESIAN_POINT('',(6.025,-24.625,12.));
#1253=CARTESIAN_POINT('',(-6.975,-24.625,12.));
#1254=CARTESIAN_POINT('',(6.025,-24.625,12.));
#1255=CARTESIAN_POINT('Origin',(6.025,-24.125,12.));
#1256=CARTESIAN_POINT('',(6.525,-24.125,12.));
#1257=CARTESIAN_POINT('Origin',(6.025,-24.125,12.));
#1258=CARTESIAN_POINT('',(6.525,-24.125,12.));
#1259=CARTESIAN_POINT('Origin',(6.525,-11.125,12.));
#1260=CARTESIAN_POINT('',(6.525,-11.125,12.));
#1261=CARTESIAN_POINT('',(6.525,-11.125,12.));
#1262=CARTESIAN_POINT('',(6.525,-11.125,12.));
#1263=CARTESIAN_POINT('Origin',(6.025,-11.125,12.));
#1264=CARTESIAN_POINT('',(6.025,-10.625,12.));
#1265=CARTESIAN_POINT('Origin',(6.025,-11.125,12.));
#1266=CARTESIAN_POINT('',(6.025,-10.625,12.));
#1267=CARTESIAN_POINT('Origin',(-6.975,-10.625,12.));
#1268=CARTESIAN_POINT('',(-6.975,-10.625,12.));
#1269=CARTESIAN_POINT('',(-6.975,-10.625,12.));
#1270=CARTESIAN_POINT('',(-6.975,-10.625,12.));
#1271=CARTESIAN_POINT('Origin',(-6.975,-11.125,12.));
#1272=CARTESIAN_POINT('Origin',(-6.975,-11.125,12.));
#1273=CARTESIAN_POINT('Origin',(-7.475,13.975,12.));
#1274=CARTESIAN_POINT('',(-7.475,13.975,12.));
#1275=CARTESIAN_POINT('',(-7.475,26.975,12.));
#1276=CARTESIAN_POINT('',(-7.475,26.975,12.));
#1277=CARTESIAN_POINT('',(-7.475,26.975,12.));
#1278=CARTESIAN_POINT('',(-7.475,13.975,12.));
#1279=CARTESIAN_POINT('Origin',(-6.975,13.975,12.));
#1280=CARTESIAN_POINT('',(-6.975,13.475,12.));
#1281=CARTESIAN_POINT('Origin',(-6.975,13.975,12.));
#1282=CARTESIAN_POINT('',(-6.975,13.475,12.));
#1283=CARTESIAN_POINT('Origin',(6.025,13.475,12.));
#1284=CARTESIAN_POINT('',(6.025,13.475,12.));
#1285=CARTESIAN_POINT('',(-6.975,13.475,12.));
#1286=CARTESIAN_POINT('',(6.025,13.475,12.));
#1287=CARTESIAN_POINT('Origin',(6.025,13.975,12.));
#1288=CARTESIAN_POINT('',(6.525,13.975,12.));
#1289=CARTESIAN_POINT('Origin',(6.025,13.975,12.));
#1290=CARTESIAN_POINT('',(6.525,13.975,12.));
#1291=CARTESIAN_POINT('Origin',(6.525,26.975,12.));
#1292=CARTESIAN_POINT('',(6.525,26.975,12.));
#1293=CARTESIAN_POINT('',(6.525,26.975,12.));
#1294=CARTESIAN_POINT('',(6.525,26.975,12.));
#1295=CARTESIAN_POINT('Origin',(6.025,26.975,12.));
#1296=CARTESIAN_POINT('',(6.025,27.475,12.));
#1297=CARTESIAN_POINT('Origin',(6.025,26.975,12.));
#1298=CARTESIAN_POINT('',(6.025,27.475,12.));
#1299=CARTESIAN_POINT('Origin',(-6.975,27.475,12.));
#1300=CARTESIAN_POINT('',(-6.975,27.475,12.));
#1301=CARTESIAN_POINT('',(-6.975,27.475,12.));
#1302=CARTESIAN_POINT('',(-6.975,27.475,12.));
#1303=CARTESIAN_POINT('Origin',(-6.975,26.975,12.));
#1304=CARTESIAN_POINT('Origin',(-6.975,26.975,12.));
#1305=CARTESIAN_POINT('Origin',(-0.474999999999999,1.425,12.));
#1306=UNCERTAINTY_MEASURE_WITH_UNIT(LENGTH_MEASURE(0.01),#1310,
'DISTANCE_ACCURACY_VALUE',
'Maximum model space distance between geometric entities at asserted c
onnectivities');
#1307=UNCERTAINTY_MEASURE_WITH_UNIT(LENGTH_MEASURE(0.01),#1310,
'DISTANCE_ACCURACY_VALUE',
'Maximum model space distance between geometric entities at asserted c
onnectivities');
#1308=(
GEOMETRIC_REPRESENTATION_CONTEXT(3)
GLOBAL_UNCERTAINTY_ASSIGNED_CONTEXT((#1306))
GLOBAL_UNIT_ASSIGNED_CONTEXT((#1310,#1312,#1313))
REPRESENTATION_CONTEXT('','3D')
);
#1309=(
GEOMETRIC_REPRESENTATION_CONTEXT(3)
GLOBAL_UNCERTAINTY_ASSIGNED_CONTEXT((#1307))
GLOBAL_UNIT_ASSIGNED_CONTEXT((#1310,#1312,#1313))
REPRESENTATION_CONTEXT('','3D')
);
#1310=(
LENGTH_UNIT()
NAMED_UNIT(*)
SI_UNIT(.MILLI.,.METRE.)
);
#1311=(
LENGTH_UNIT()
NAMED_UNIT(*)
SI_UNIT($,.METRE.)
);
#1312=(
NAMED_UNIT(*)
PLANE_ANGLE_UNIT()
SI_UNIT($,.RADIAN.)
);
#1313=(
NAMED_UNIT(*)
SI_UNIT($,.STERADIAN.)
SOLID_ANGLE_UNIT()
);
#1314=SHAPE_DEFINITION_REPRESENTATION(#1315,#1316);
#1315=PRODUCT_DEFINITION_SHAPE('',$,#1318);
#1316=SHAPE_REPRESENTATION('',(#794),#1308);
#1317=PRODUCT_DEFINITION_CONTEXT('part definition',#1322,'design');
#1318=PRODUCT_DEFINITION('2026-06-04-16-21-00-374','New ship',#1319,#1317);
#1319=PRODUCT_DEFINITION_FORMATION('',$,#1324);
#1320=PRODUCT_RELATED_PRODUCT_CATEGORY('New ship','New ship',(#1324));
#1321=APPLICATION_PROTOCOL_DEFINITION('international standard',
'automotive_design',2009,#1322);
#1322=APPLICATION_CONTEXT(
'Core Data for Automotive Mechanical Design Process');
#1323=PRODUCT_CONTEXT('part definition',#1322,'mechanical');
#1324=PRODUCT('2026-06-04-16-21-00-374','New ship',$,(#1323));
#1325=PRESENTATION_STYLE_ASSIGNMENT((#1328));
#1326=PRESENTATION_STYLE_ASSIGNMENT((#1329));
#1327=PRESENTATION_STYLE_ASSIGNMENT((#1330));
#1328=SURFACE_STYLE_USAGE(.BOTH.,#1331);
#1329=SURFACE_STYLE_USAGE(.BOTH.,#1332);
#1330=SURFACE_STYLE_USAGE(.BOTH.,#1333);
#1331=SURFACE_SIDE_STYLE('',(#1334));
#1332=SURFACE_SIDE_STYLE('',(#1335));
#1333=SURFACE_SIDE_STYLE('',(#1336));
#1334=SURFACE_STYLE_FILL_AREA(#1337);
#1335=SURFACE_STYLE_FILL_AREA(#1338);
#1336=SURFACE_STYLE_FILL_AREA(#1339);
#1337=FILL_AREA_STYLE('Steel - Satin',(#1340));
#1338=FILL_AREA_STYLE('Paint - Enamel Glossy (Yellow)',(#1341));
#1339=FILL_AREA_STYLE('Paint - Enamel Glossy (Red)',(#1342));
#1340=FILL_AREA_STYLE_COLOUR('Steel - Satin',#1343);
#1341=FILL_AREA_STYLE_COLOUR('Paint - Enamel Glossy (Yellow)',#1344);
#1342=FILL_AREA_STYLE_COLOUR('Paint - Enamel Glossy (Red)',#1345);
#1343=COLOUR_RGB('Steel - Satin',0.627450980392157,0.627450980392157,0.627450980392157);
#1344=COLOUR_RGB('Paint - Enamel Glossy (Yellow)',0.909803921568627,0.67843137254902,
0.137254901960784);
#1345=COLOUR_RGB('Paint - Enamel Glossy (Red)',0.768627450980392,0.207843137254902,
0.152941176470588);
ENDSEC;
END-ISO-10303-21;
