ISO-10303-21;
HEADER;
/* Generated by software containing ST-Developer
 * from STEP Tools, Inc. (www.steptools.com) 
 */

FILE_DESCRIPTION(
/* description */ (''),
/* implementation_level */ '2;1');

FILE_NAME(
/* name */ 'Assembled.step',
/* time_stamp */ '2026-06-04T18:25:50+06:00',
/* author */ (''),
/* organization */ (''),
/* preprocessor_version */ 'ST-DEVELOPER v20.1',
/* originating_system */ 'Autodesk Translation Framework v15.8.0.0',
/* authorisation */ '');

FILE_SCHEMA (('AUTOMOTIVE_DESIGN { 1 0 10303 214 3 1 1 }'));
ENDSEC;

DATA;
#10=MECHANICAL_DESIGN_GEOMETRIC_PRESENTATION_REPRESENTATION('',(#13,#14),
#2001);
#11=SHAPE_REPRESENTATION_RELATIONSHIP('SRR','None',#2008,#12);
#12=ADVANCED_BREP_SHAPE_REPRESENTATION('',(#15,#16),#2000);
#13=STYLED_ITEM('',(#2018),#15);
#14=STYLED_ITEM('',(#2019),#16);
#15=MANIFOLD_SOLID_BREP('Body1',#1208);
#16=MANIFOLD_SOLID_BREP('Body2',#1209);
#17=FACE_BOUND('',#192,.T.);
#18=FACE_BOUND('',#194,.T.);
#19=FACE_BOUND('',#195,.T.);
#20=FACE_BOUND('',#196,.T.);
#21=FACE_BOUND('',#197,.T.);
#22=FACE_BOUND('',#198,.T.);
#23=FACE_BOUND('',#203,.T.);
#24=FACE_BOUND('',#204,.T.);
#25=FACE_BOUND('',#205,.T.);
#26=FACE_BOUND('',#207,.T.);
#27=FACE_BOUND('',#208,.T.);
#28=FACE_BOUND('',#209,.T.);
#29=FACE_BOUND('',#210,.T.);
#30=FACE_BOUND('',#211,.T.);
#31=FACE_BOUND('',#212,.T.);
#32=FACE_BOUND('',#213,.T.);
#33=FACE_BOUND('',#227,.T.);
#34=FACE_BOUND('',#228,.T.);
#35=FACE_BOUND('',#229,.T.);
#36=FACE_BOUND('',#230,.T.);
#37=FACE_BOUND('',#231,.T.);
#38=FACE_BOUND('',#232,.T.);
#39=FACE_BOUND('',#233,.T.);
#40=FACE_BOUND('',#235,.T.);
#41=FACE_BOUND('',#236,.T.);
#42=FACE_BOUND('',#237,.T.);
#43=FACE_BOUND('',#238,.T.);
#44=FACE_BOUND('',#239,.T.);
#45=FACE_BOUND('',#265,.T.);
#46=FACE_BOUND('',#266,.T.);
#47=FACE_BOUND('',#267,.T.);
#48=CIRCLE('',#1228,2.35);
#49=CIRCLE('',#1229,2.35);
#50=CIRCLE('',#1231,2.35);
#51=CIRCLE('',#1232,2.35);
#52=CIRCLE('',#1234,2.35);
#53=CIRCLE('',#1235,2.35);
#54=CIRCLE('',#1237,2.35);
#55=CIRCLE('',#1238,2.35);
#56=CIRCLE('',#1248,3.);
#57=CIRCLE('',#1249,3.);
#58=CIRCLE('',#1251,3.);
#59=CIRCLE('',#1252,3.);
#60=CIRCLE('',#1254,3.);
#61=CIRCLE('',#1255,3.);
#62=CIRCLE('',#1259,1.7);
#63=CIRCLE('',#1260,1.7);
#64=CIRCLE('',#1262,1.7);
#65=CIRCLE('',#1263,1.7);
#66=CIRCLE('',#1265,1.7);
#67=CIRCLE('',#1266,1.7);
#68=CIRCLE('',#1268,1.7);
#69=CIRCLE('',#1269,1.7);
#70=CIRCLE('',#1279,0.5);
#71=CIRCLE('',#1280,0.499999999999998);
#72=CIRCLE('',#1281,0.499999999999998);
#73=CIRCLE('',#1282,0.5);
#74=CIRCLE('',#1283,0.499999999999998);
#75=CIRCLE('',#1284,0.499999999999998);
#76=CIRCLE('',#1285,0.499999999999998);
#77=CIRCLE('',#1286,0.5);
#78=CIRCLE('',#1287,0.499999999999998);
#79=CIRCLE('',#1288,0.499999999999998);
#80=CIRCLE('',#1289,0.500000000000003);
#81=CIRCLE('',#1290,0.5);
#82=CIRCLE('',#1294,0.5);
#83=CIRCLE('',#1297,0.500000000000003);
#84=CIRCLE('',#1300,0.499999999999998);
#85=CIRCLE('',#1303,0.499999999999998);
#86=CIRCLE('',#1306,0.5);
#87=CIRCLE('',#1309,0.499999999999998);
#88=CIRCLE('',#1312,0.499999999999998);
#89=CIRCLE('',#1315,0.499999999999998);
#90=CIRCLE('',#1318,0.5);
#91=CIRCLE('',#1321,0.499999999999998);
#92=CIRCLE('',#1324,0.499999999999998);
#93=CIRCLE('',#1327,0.5);
#94=CYLINDRICAL_SURFACE('',#1227,2.35);
#95=CYLINDRICAL_SURFACE('',#1230,2.35);
#96=CYLINDRICAL_SURFACE('',#1233,2.35);
#97=CYLINDRICAL_SURFACE('',#1236,2.35);
#98=CYLINDRICAL_SURFACE('',#1247,3.);
#99=CYLINDRICAL_SURFACE('',#1250,3.);
#100=CYLINDRICAL_SURFACE('',#1253,3.);
#101=CYLINDRICAL_SURFACE('',#1258,1.7);
#102=CYLINDRICAL_SURFACE('',#1261,1.7);
#103=CYLINDRICAL_SURFACE('',#1264,1.7);
#104=CYLINDRICAL_SURFACE('',#1267,1.7);
#105=CYLINDRICAL_SURFACE('',#1293,0.5);
#106=CYLINDRICAL_SURFACE('',#1296,0.500000000000003);
#107=CYLINDRICAL_SURFACE('',#1299,0.499999999999998);
#108=CYLINDRICAL_SURFACE('',#1302,0.499999999999998);
#109=CYLINDRICAL_SURFACE('',#1305,0.5);
#110=CYLINDRICAL_SURFACE('',#1308,0.499999999999998);
#111=CYLINDRICAL_SURFACE('',#1311,0.499999999999998);
#112=CYLINDRICAL_SURFACE('',#1314,0.499999999999998);
#113=CYLINDRICAL_SURFACE('',#1317,0.5);
#114=CYLINDRICAL_SURFACE('',#1320,0.499999999999998);
#115=CYLINDRICAL_SURFACE('',#1323,0.499999999999998);
#116=CYLINDRICAL_SURFACE('',#1326,0.5);
#117=FACE_OUTER_BOUND('',#177,.T.);
#118=FACE_OUTER_BOUND('',#178,.T.);
#119=FACE_OUTER_BOUND('',#179,.T.);
#120=FACE_OUTER_BOUND('',#180,.T.);
#121=FACE_OUTER_BOUND('',#181,.T.);
#122=FACE_OUTER_BOUND('',#182,.T.);
#123=FACE_OUTER_BOUND('',#183,.T.);
#124=FACE_OUTER_BOUND('',#184,.T.);
#125=FACE_OUTER_BOUND('',#185,.T.);
#126=FACE_OUTER_BOUND('',#186,.T.);
#127=FACE_OUTER_BOUND('',#187,.T.);
#128=FACE_OUTER_BOUND('',#188,.T.);
#129=FACE_OUTER_BOUND('',#189,.T.);
#130=FACE_OUTER_BOUND('',#190,.T.);
#131=FACE_OUTER_BOUND('',#191,.T.);
#132=FACE_OUTER_BOUND('',#193,.T.);
#133=FACE_OUTER_BOUND('',#199,.T.);
#134=FACE_OUTER_BOUND('',#200,.T.);
#135=FACE_OUTER_BOUND('',#201,.T.);
#136=FACE_OUTER_BOUND('',#202,.T.);
#137=FACE_OUTER_BOUND('',#206,.T.);
#138=FACE_OUTER_BOUND('',#214,.T.);
#139=FACE_OUTER_BOUND('',#215,.T.);
#140=FACE_OUTER_BOUND('',#216,.T.);
#141=FACE_OUTER_BOUND('',#217,.T.);
#142=FACE_OUTER_BOUND('',#218,.T.);
#143=FACE_OUTER_BOUND('',#219,.T.);
#144=FACE_OUTER_BOUND('',#220,.T.);
#145=FACE_OUTER_BOUND('',#221,.T.);
#146=FACE_OUTER_BOUND('',#222,.T.);
#147=FACE_OUTER_BOUND('',#223,.T.);
#148=FACE_OUTER_BOUND('',#224,.T.);
#149=FACE_OUTER_BOUND('',#225,.T.);
#150=FACE_OUTER_BOUND('',#226,.T.);
#151=FACE_OUTER_BOUND('',#234,.T.);
#152=FACE_OUTER_BOUND('',#240,.T.);
#153=FACE_OUTER_BOUND('',#241,.T.);
#154=FACE_OUTER_BOUND('',#242,.T.);
#155=FACE_OUTER_BOUND('',#243,.T.);
#156=FACE_OUTER_BOUND('',#244,.T.);
#157=FACE_OUTER_BOUND('',#245,.T.);
#158=FACE_OUTER_BOUND('',#246,.T.);
#159=FACE_OUTER_BOUND('',#247,.T.);
#160=FACE_OUTER_BOUND('',#248,.T.);
#161=FACE_OUTER_BOUND('',#249,.T.);
#162=FACE_OUTER_BOUND('',#250,.T.);
#163=FACE_OUTER_BOUND('',#251,.T.);
#164=FACE_OUTER_BOUND('',#252,.T.);
#165=FACE_OUTER_BOUND('',#253,.T.);
#166=FACE_OUTER_BOUND('',#254,.T.);
#167=FACE_OUTER_BOUND('',#255,.T.);
#168=FACE_OUTER_BOUND('',#256,.T.);
#169=FACE_OUTER_BOUND('',#257,.T.);
#170=FACE_OUTER_BOUND('',#258,.T.);
#171=FACE_OUTER_BOUND('',#259,.T.);
#172=FACE_OUTER_BOUND('',#260,.T.);
#173=FACE_OUTER_BOUND('',#261,.T.);
#174=FACE_OUTER_BOUND('',#262,.T.);
#175=FACE_OUTER_BOUND('',#263,.T.);
#176=FACE_OUTER_BOUND('',#264,.T.);
#177=EDGE_LOOP('',(#781,#782,#783,#784));
#178=EDGE_LOOP('',(#785,#786,#787,#788));
#179=EDGE_LOOP('',(#789,#790,#791,#792));
#180=EDGE_LOOP('',(#793,#794,#795,#796,#797,#798,#799,#800));
#181=EDGE_LOOP('',(#801,#802,#803,#804));
#182=EDGE_LOOP('',(#805,#806,#807,#808));
#183=EDGE_LOOP('',(#809,#810,#811,#812));
#184=EDGE_LOOP('',(#813,#814,#815,#816));
#185=EDGE_LOOP('',(#817,#818,#819,#820));
#186=EDGE_LOOP('',(#821,#822,#823,#824));
#187=EDGE_LOOP('',(#825,#826,#827,#828));
#188=EDGE_LOOP('',(#829,#830,#831,#832));
#189=EDGE_LOOP('',(#833,#834,#835,#836));
#190=EDGE_LOOP('',(#837,#838,#839,#840));
#191=EDGE_LOOP('',(#841,#842,#843,#844));
#192=EDGE_LOOP('',(#845,#846,#847,#848));
#193=EDGE_LOOP('',(#849,#850,#851,#852));
#194=EDGE_LOOP('',(#853,#854,#855,#856));
#195=EDGE_LOOP('',(#857));
#196=EDGE_LOOP('',(#858));
#197=EDGE_LOOP('',(#859));
#198=EDGE_LOOP('',(#860));
#199=EDGE_LOOP('',(#861,#862,#863,#864));
#200=EDGE_LOOP('',(#865,#866,#867,#868));
#201=EDGE_LOOP('',(#869,#870,#871,#872));
#202=EDGE_LOOP('',(#873,#874,#875,#876,#877,#878,#879,#880));
#203=EDGE_LOOP('',(#881));
#204=EDGE_LOOP('',(#882));
#205=EDGE_LOOP('',(#883));
#206=EDGE_LOOP('',(#884,#885,#886,#887));
#207=EDGE_LOOP('',(#888));
#208=EDGE_LOOP('',(#889));
#209=EDGE_LOOP('',(#890));
#210=EDGE_LOOP('',(#891));
#211=EDGE_LOOP('',(#892));
#212=EDGE_LOOP('',(#893));
#213=EDGE_LOOP('',(#894));
#214=EDGE_LOOP('',(#895,#896,#897,#898));
#215=EDGE_LOOP('',(#899,#900,#901,#902));
#216=EDGE_LOOP('',(#903,#904,#905,#906));
#217=EDGE_LOOP('',(#907,#908,#909,#910));
#218=EDGE_LOOP('',(#911,#912,#913,#914));
#219=EDGE_LOOP('',(#915,#916,#917,#918));
#220=EDGE_LOOP('',(#919,#920,#921,#922));
#221=EDGE_LOOP('',(#923,#924,#925,#926));
#222=EDGE_LOOP('',(#927,#928,#929,#930));
#223=EDGE_LOOP('',(#931,#932,#933,#934));
#224=EDGE_LOOP('',(#935,#936,#937,#938));
#225=EDGE_LOOP('',(#939,#940,#941,#942));
#226=EDGE_LOOP('',(#943,#944,#945,#946));
#227=EDGE_LOOP('',(#947,#948,#949,#950,#951,#952,#953,#954));
#228=EDGE_LOOP('',(#955,#956,#957,#958,#959,#960,#961,#962));
#229=EDGE_LOOP('',(#963,#964,#965,#966,#967,#968,#969,#970));
#230=EDGE_LOOP('',(#971));
#231=EDGE_LOOP('',(#972));
#232=EDGE_LOOP('',(#973));
#233=EDGE_LOOP('',(#974));
#234=EDGE_LOOP('',(#975,#976,#977,#978));
#235=EDGE_LOOP('',(#979,#980,#981,#982));
#236=EDGE_LOOP('',(#983));
#237=EDGE_LOOP('',(#984));
#238=EDGE_LOOP('',(#985));
#239=EDGE_LOOP('',(#986));
#240=EDGE_LOOP('',(#987,#988,#989,#990));
#241=EDGE_LOOP('',(#991,#992,#993,#994));
#242=EDGE_LOOP('',(#995,#996,#997,#998));
#243=EDGE_LOOP('',(#999,#1000,#1001,#1002));
#244=EDGE_LOOP('',(#1003,#1004,#1005,#1006));
#245=EDGE_LOOP('',(#1007,#1008,#1009,#1010));
#246=EDGE_LOOP('',(#1011,#1012,#1013,#1014));
#247=EDGE_LOOP('',(#1015,#1016,#1017,#1018));
#248=EDGE_LOOP('',(#1019,#1020,#1021,#1022));
#249=EDGE_LOOP('',(#1023,#1024,#1025,#1026));
#250=EDGE_LOOP('',(#1027,#1028,#1029,#1030));
#251=EDGE_LOOP('',(#1031,#1032,#1033,#1034));
#252=EDGE_LOOP('',(#1035,#1036,#1037,#1038));
#253=EDGE_LOOP('',(#1039,#1040,#1041,#1042));
#254=EDGE_LOOP('',(#1043,#1044,#1045,#1046));
#255=EDGE_LOOP('',(#1047,#1048,#1049,#1050));
#256=EDGE_LOOP('',(#1051,#1052,#1053,#1054));
#257=EDGE_LOOP('',(#1055,#1056,#1057,#1058));
#258=EDGE_LOOP('',(#1059,#1060,#1061,#1062));
#259=EDGE_LOOP('',(#1063,#1064,#1065,#1066));
#260=EDGE_LOOP('',(#1067,#1068,#1069,#1070));
#261=EDGE_LOOP('',(#1071,#1072,#1073,#1074));
#262=EDGE_LOOP('',(#1075,#1076,#1077,#1078));
#263=EDGE_LOOP('',(#1079,#1080,#1081,#1082));
#264=EDGE_LOOP('',(#1083,#1084,#1085,#1086));
#265=EDGE_LOOP('',(#1087,#1088,#1089,#1090,#1091,#1092,#1093,#1094));
#266=EDGE_LOOP('',(#1095,#1096,#1097,#1098,#1099,#1100,#1101,#1102));
#267=EDGE_LOOP('',(#1103,#1104,#1105,#1106,#1107,#1108,#1109,#1110));
#268=LINE('',#1666,#387);
#269=LINE('',#1668,#388);
#270=LINE('',#1670,#389);
#271=LINE('',#1671,#390);
#272=LINE('',#1674,#391);
#273=LINE('',#1676,#392);
#274=LINE('',#1677,#393);
#275=LINE('',#1680,#394);
#276=LINE('',#1682,#395);
#277=LINE('',#1683,#396);
#278=LINE('',#1686,#397);
#279=LINE('',#1688,#398);
#280=LINE('',#1690,#399);
#281=LINE('',#1692,#400);
#282=LINE('',#1693,#401);
#283=LINE('',#1698,#402);
#284=LINE('',#1704,#403);
#285=LINE('',#1710,#404);
#286=LINE('',#1716,#405);
#287=LINE('',#1720,#406);
#288=LINE('',#1722,#407);
#289=LINE('',#1723,#408);
#290=LINE('',#1726,#409);
#291=LINE('',#1728,#410);
#292=LINE('',#1729,#411);
#293=LINE('',#1731,#412);
#294=LINE('',#1732,#413);
#295=LINE('',#1736,#414);
#296=LINE('',#1738,#415);
#297=LINE('',#1740,#416);
#298=LINE('',#1741,#417);
#299=LINE('',#1744,#418);
#300=LINE('',#1746,#419);
#301=LINE('',#1747,#420);
#302=LINE('',#1750,#421);
#303=LINE('',#1752,#422);
#304=LINE('',#1753,#423);
#305=LINE('',#1755,#424);
#306=LINE('',#1756,#425);
#307=LINE('',#1757,#426);
#308=LINE('',#1763,#427);
#309=LINE('',#1769,#428);
#310=LINE('',#1775,#429);
#311=LINE('',#1783,#430);
#312=LINE('',#1789,#431);
#313=LINE('',#1795,#432);
#314=LINE('',#1801,#433);
#315=LINE('',#1806,#434);
#316=LINE('',#1808,#435);
#317=LINE('',#1810,#436);
#318=LINE('',#1811,#437);
#319=LINE('',#1814,#438);
#320=LINE('',#1816,#439);
#321=LINE('',#1817,#440);
#322=LINE('',#1820,#441);
#323=LINE('',#1822,#442);
#324=LINE('',#1823,#443);
#325=LINE('',#1825,#444);
#326=LINE('',#1826,#445);
#327=LINE('',#1830,#446);
#328=LINE('',#1832,#447);
#329=LINE('',#1834,#448);
#330=LINE('',#1835,#449);
#331=LINE('',#1838,#450);
#332=LINE('',#1840,#451);
#333=LINE('',#1841,#452);
#334=LINE('',#1844,#453);
#335=LINE('',#1846,#454);
#336=LINE('',#1847,#455);
#337=LINE('',#1849,#456);
#338=LINE('',#1850,#457);
#339=LINE('',#1856,#458);
#340=LINE('',#1860,#459);
#341=LINE('',#1864,#460);
#342=LINE('',#1867,#461);
#343=LINE('',#1872,#462);
#344=LINE('',#1876,#463);
#345=LINE('',#1880,#464);
#346=LINE('',#1883,#465);
#347=LINE('',#1888,#466);
#348=LINE('',#1892,#467);
#349=LINE('',#1896,#468);
#350=LINE('',#1899,#469);
#351=LINE('',#1904,#470);
#352=LINE('',#1905,#471);
#353=LINE('',#1906,#472);
#354=LINE('',#1910,#473);
#355=LINE('',#1913,#474);
#356=LINE('',#1914,#475);
#357=LINE('',#1918,#476);
#358=LINE('',#1921,#477);
#359=LINE('',#1922,#478);
#360=LINE('',#1926,#479);
#361=LINE('',#1929,#480);
#362=LINE('',#1930,#481);
#363=LINE('',#1936,#482);
#364=LINE('',#1937,#483);
#365=LINE('',#1938,#484);
#366=LINE('',#1942,#485);
#367=LINE('',#1945,#486);
#368=LINE('',#1946,#487);
#369=LINE('',#1950,#488);
#370=LINE('',#1953,#489);
#371=LINE('',#1954,#490);
#372=LINE('',#1958,#491);
#373=LINE('',#1961,#492);
#374=LINE('',#1962,#493);
#375=LINE('',#1968,#494);
#376=LINE('',#1969,#495);
#377=LINE('',#1970,#496);
#378=LINE('',#1974,#497);
#379=LINE('',#1977,#498);
#380=LINE('',#1978,#499);
#381=LINE('',#1982,#500);
#382=LINE('',#1985,#501);
#383=LINE('',#1986,#502);
#384=LINE('',#1990,#503);
#385=LINE('',#1993,#504);
#386=LINE('',#1994,#505);
#387=VECTOR('',#1333,10.);
#388=VECTOR('',#1334,10.);
#389=VECTOR('',#1335,10.);
#390=VECTOR('',#1336,10.);
#391=VECTOR('',#1339,10.);
#392=VECTOR('',#1340,10.);
#393=VECTOR('',#1341,10.);
#394=VECTOR('',#1344,10.);
#395=VECTOR('',#1345,10.);
#396=VECTOR('',#1346,10.);
#397=VECTOR('',#1349,10.);
#398=VECTOR('',#1350,10.);
#399=VECTOR('',#1351,10.);
#400=VECTOR('',#1352,10.);
#401=VECTOR('',#1353,10.);
#402=VECTOR('',#1358,2.35);
#403=VECTOR('',#1365,2.35);
#404=VECTOR('',#1372,2.35);
#405=VECTOR('',#1379,2.35);
#406=VECTOR('',#1384,10.);
#407=VECTOR('',#1385,10.);
#408=VECTOR('',#1386,10.);
#409=VECTOR('',#1389,10.);
#410=VECTOR('',#1390,10.);
#411=VECTOR('',#1391,10.);
#412=VECTOR('',#1394,10.);
#413=VECTOR('',#1395,10.);
#414=VECTOR('',#1398,10.);
#415=VECTOR('',#1399,10.);
#416=VECTOR('',#1400,10.);
#417=VECTOR('',#1401,10.);
#418=VECTOR('',#1404,10.);
#419=VECTOR('',#1405,10.);
#420=VECTOR('',#1406,10.);
#421=VECTOR('',#1409,10.);
#422=VECTOR('',#1410,10.);
#423=VECTOR('',#1411,10.);
#424=VECTOR('',#1414,10.);
#425=VECTOR('',#1415,10.);
#426=VECTOR('',#1416,10.);
#427=VECTOR('',#1423,3.);
#428=VECTOR('',#1430,3.);
#429=VECTOR('',#1437,3.);
#430=VECTOR('',#1448,1.7);
#431=VECTOR('',#1455,1.7);
#432=VECTOR('',#1462,1.7);
#433=VECTOR('',#1469,1.7);
#434=VECTOR('',#1474,10.);
#435=VECTOR('',#1475,10.);
#436=VECTOR('',#1476,10.);
#437=VECTOR('',#1477,10.);
#438=VECTOR('',#1480,10.);
#439=VECTOR('',#1481,10.);
#440=VECTOR('',#1482,10.);
#441=VECTOR('',#1485,10.);
#442=VECTOR('',#1486,10.);
#443=VECTOR('',#1487,10.);
#444=VECTOR('',#1490,10.);
#445=VECTOR('',#1491,10.);
#446=VECTOR('',#1494,10.);
#447=VECTOR('',#1495,10.);
#448=VECTOR('',#1496,10.);
#449=VECTOR('',#1497,10.);
#450=VECTOR('',#1500,10.);
#451=VECTOR('',#1501,10.);
#452=VECTOR('',#1502,10.);
#453=VECTOR('',#1505,10.);
#454=VECTOR('',#1506,10.);
#455=VECTOR('',#1507,10.);
#456=VECTOR('',#1510,10.);
#457=VECTOR('',#1511,10.);
#458=VECTOR('',#1516,10.);
#459=VECTOR('',#1519,10.);
#460=VECTOR('',#1522,10.);
#461=VECTOR('',#1525,10.);
#462=VECTOR('',#1528,10.);
#463=VECTOR('',#1531,10.);
#464=VECTOR('',#1534,10.);
#465=VECTOR('',#1537,10.);
#466=VECTOR('',#1540,10.);
#467=VECTOR('',#1543,10.);
#468=VECTOR('',#1546,10.);
#469=VECTOR('',#1549,10.);
#470=VECTOR('',#1554,10.);
#471=VECTOR('',#1555,10.);
#472=VECTOR('',#1556,10.);
#473=VECTOR('',#1561,10.);
#474=VECTOR('',#1564,10.);
#475=VECTOR('',#1565,10.);
#476=VECTOR('',#1570,10.);
#477=VECTOR('',#1573,10.);
#478=VECTOR('',#1574,10.);
#479=VECTOR('',#1579,10.);
#480=VECTOR('',#1582,10.);
#481=VECTOR('',#1583,10.);
#482=VECTOR('',#1590,10.);
#483=VECTOR('',#1591,10.);
#484=VECTOR('',#1592,10.);
#485=VECTOR('',#1597,10.);
#486=VECTOR('',#1600,10.);
#487=VECTOR('',#1601,10.);
#488=VECTOR('',#1606,10.);
#489=VECTOR('',#1609,10.);
#490=VECTOR('',#1610,10.);
#491=VECTOR('',#1615,10.);
#492=VECTOR('',#1618,10.);
#493=VECTOR('',#1619,10.);
#494=VECTOR('',#1626,10.);
#495=VECTOR('',#1627,10.);
#496=VECTOR('',#1628,10.);
#497=VECTOR('',#1633,10.);
#498=VECTOR('',#1636,10.);
#499=VECTOR('',#1637,10.);
#500=VECTOR('',#1642,10.);
#501=VECTOR('',#1645,10.);
#502=VECTOR('',#1646,10.);
#503=VECTOR('',#1651,10.);
#504=VECTOR('',#1654,10.);
#505=VECTOR('',#1655,10.);
#506=VERTEX_POINT('',#1664);
#507=VERTEX_POINT('',#1665);
#508=VERTEX_POINT('',#1667);
#509=VERTEX_POINT('',#1669);
#510=VERTEX_POINT('',#1673);
#511=VERTEX_POINT('',#1675);
#512=VERTEX_POINT('',#1679);
#513=VERTEX_POINT('',#1681);
#514=VERTEX_POINT('',#1685);
#515=VERTEX_POINT('',#1687);
#516=VERTEX_POINT('',#1689);
#517=VERTEX_POINT('',#1691);
#518=VERTEX_POINT('',#1695);
#519=VERTEX_POINT('',#1697);
#520=VERTEX_POINT('',#1701);
#521=VERTEX_POINT('',#1703);
#522=VERTEX_POINT('',#1707);
#523=VERTEX_POINT('',#1709);
#524=VERTEX_POINT('',#1713);
#525=VERTEX_POINT('',#1715);
#526=VERTEX_POINT('',#1719);
#527=VERTEX_POINT('',#1721);
#528=VERTEX_POINT('',#1725);
#529=VERTEX_POINT('',#1727);
#530=VERTEX_POINT('',#1734);
#531=VERTEX_POINT('',#1735);
#532=VERTEX_POINT('',#1737);
#533=VERTEX_POINT('',#1739);
#534=VERTEX_POINT('',#1743);
#535=VERTEX_POINT('',#1745);
#536=VERTEX_POINT('',#1749);
#537=VERTEX_POINT('',#1751);
#538=VERTEX_POINT('',#1760);
#539=VERTEX_POINT('',#1762);
#540=VERTEX_POINT('',#1766);
#541=VERTEX_POINT('',#1768);
#542=VERTEX_POINT('',#1772);
#543=VERTEX_POINT('',#1774);
#544=VERTEX_POINT('',#1780);
#545=VERTEX_POINT('',#1782);
#546=VERTEX_POINT('',#1786);
#547=VERTEX_POINT('',#1788);
#548=VERTEX_POINT('',#1792);
#549=VERTEX_POINT('',#1794);
#550=VERTEX_POINT('',#1798);
#551=VERTEX_POINT('',#1800);
#552=VERTEX_POINT('',#1804);
#553=VERTEX_POINT('',#1805);
#554=VERTEX_POINT('',#1807);
#555=VERTEX_POINT('',#1809);
#556=VERTEX_POINT('',#1813);
#557=VERTEX_POINT('',#1815);
#558=VERTEX_POINT('',#1819);
#559=VERTEX_POINT('',#1821);
#560=VERTEX_POINT('',#1828);
#561=VERTEX_POINT('',#1829);
#562=VERTEX_POINT('',#1831);
#563=VERTEX_POINT('',#1833);
#564=VERTEX_POINT('',#1837);
#565=VERTEX_POINT('',#1839);
#566=VERTEX_POINT('',#1843);
#567=VERTEX_POINT('',#1845);
#568=VERTEX_POINT('',#1852);
#569=VERTEX_POINT('',#1853);
#570=VERTEX_POINT('',#1855);
#571=VERTEX_POINT('',#1857);
#572=VERTEX_POINT('',#1859);
#573=VERTEX_POINT('',#1861);
#574=VERTEX_POINT('',#1863);
#575=VERTEX_POINT('',#1865);
#576=VERTEX_POINT('',#1868);
#577=VERTEX_POINT('',#1869);
#578=VERTEX_POINT('',#1871);
#579=VERTEX_POINT('',#1873);
#580=VERTEX_POINT('',#1875);
#581=VERTEX_POINT('',#1877);
#582=VERTEX_POINT('',#1879);
#583=VERTEX_POINT('',#1881);
#584=VERTEX_POINT('',#1884);
#585=VERTEX_POINT('',#1885);
#586=VERTEX_POINT('',#1887);
#587=VERTEX_POINT('',#1889);
#588=VERTEX_POINT('',#1891);
#589=VERTEX_POINT('',#1893);
#590=VERTEX_POINT('',#1895);
#591=VERTEX_POINT('',#1897);
#592=VERTEX_POINT('',#1902);
#593=VERTEX_POINT('',#1903);
#594=VERTEX_POINT('',#1908);
#595=VERTEX_POINT('',#1912);
#596=VERTEX_POINT('',#1916);
#597=VERTEX_POINT('',#1920);
#598=VERTEX_POINT('',#1924);
#599=VERTEX_POINT('',#1928);
#600=VERTEX_POINT('',#1934);
#601=VERTEX_POINT('',#1935);
#602=VERTEX_POINT('',#1940);
#603=VERTEX_POINT('',#1944);
#604=VERTEX_POINT('',#1948);
#605=VERTEX_POINT('',#1952);
#606=VERTEX_POINT('',#1956);
#607=VERTEX_POINT('',#1960);
#608=VERTEX_POINT('',#1966);
#609=VERTEX_POINT('',#1967);
#610=VERTEX_POINT('',#1972);
#611=VERTEX_POINT('',#1976);
#612=VERTEX_POINT('',#1980);
#613=VERTEX_POINT('',#1984);
#614=VERTEX_POINT('',#1988);
#615=VERTEX_POINT('',#1992);
#616=EDGE_CURVE('',#506,#507,#268,.T.);
#617=EDGE_CURVE('',#508,#506,#269,.T.);
#618=EDGE_CURVE('',#509,#508,#270,.T.);
#619=EDGE_CURVE('',#509,#507,#271,.T.);
#620=EDGE_CURVE('',#507,#510,#272,.T.);
#621=EDGE_CURVE('',#511,#509,#273,.T.);
#622=EDGE_CURVE('',#511,#510,#274,.T.);
#623=EDGE_CURVE('',#512,#506,#275,.T.);
#624=EDGE_CURVE('',#513,#512,#276,.T.);
#625=EDGE_CURVE('',#508,#513,#277,.T.);
#626=EDGE_CURVE('',#514,#513,#278,.T.);
#627=EDGE_CURVE('',#514,#515,#279,.T.);
#628=EDGE_CURVE('',#516,#515,#280,.T.);
#629=EDGE_CURVE('',#517,#516,#281,.T.);
#630=EDGE_CURVE('',#511,#517,#282,.T.);
#631=EDGE_CURVE('',#518,#518,#48,.T.);
#632=EDGE_CURVE('',#518,#519,#283,.T.);
#633=EDGE_CURVE('',#519,#519,#49,.T.);
#634=EDGE_CURVE('',#520,#520,#50,.T.);
#635=EDGE_CURVE('',#520,#521,#284,.T.);
#636=EDGE_CURVE('',#521,#521,#51,.T.);
#637=EDGE_CURVE('',#522,#522,#52,.T.);
#638=EDGE_CURVE('',#522,#523,#285,.T.);
#639=EDGE_CURVE('',#523,#523,#53,.T.);
#640=EDGE_CURVE('',#524,#524,#54,.T.);
#641=EDGE_CURVE('',#524,#525,#286,.T.);
#642=EDGE_CURVE('',#525,#525,#55,.T.);
#643=EDGE_CURVE('',#517,#526,#287,.T.);
#644=EDGE_CURVE('',#527,#516,#288,.T.);
#645=EDGE_CURVE('',#526,#527,#289,.T.);
#646=EDGE_CURVE('',#526,#528,#290,.T.);
#647=EDGE_CURVE('',#529,#527,#291,.T.);
#648=EDGE_CURVE('',#528,#529,#292,.T.);
#649=EDGE_CURVE('',#528,#514,#293,.T.);
#650=EDGE_CURVE('',#515,#529,#294,.T.);
#651=EDGE_CURVE('',#530,#531,#295,.T.);
#652=EDGE_CURVE('',#530,#532,#296,.T.);
#653=EDGE_CURVE('',#533,#532,#297,.T.);
#654=EDGE_CURVE('',#531,#533,#298,.T.);
#655=EDGE_CURVE('',#531,#534,#299,.T.);
#656=EDGE_CURVE('',#535,#533,#300,.T.);
#657=EDGE_CURVE('',#534,#535,#301,.T.);
#658=EDGE_CURVE('',#534,#536,#302,.T.);
#659=EDGE_CURVE('',#537,#535,#303,.T.);
#660=EDGE_CURVE('',#536,#537,#304,.T.);
#661=EDGE_CURVE('',#536,#530,#305,.T.);
#662=EDGE_CURVE('',#532,#537,#306,.T.);
#663=EDGE_CURVE('',#510,#512,#307,.T.);
#664=EDGE_CURVE('',#538,#538,#56,.T.);
#665=EDGE_CURVE('',#538,#539,#308,.T.);
#666=EDGE_CURVE('',#539,#539,#57,.T.);
#667=EDGE_CURVE('',#540,#540,#58,.T.);
#668=EDGE_CURVE('',#540,#541,#309,.T.);
#669=EDGE_CURVE('',#541,#541,#59,.T.);
#670=EDGE_CURVE('',#542,#542,#60,.T.);
#671=EDGE_CURVE('',#542,#543,#310,.T.);
#672=EDGE_CURVE('',#543,#543,#61,.T.);
#673=EDGE_CURVE('',#544,#544,#62,.T.);
#674=EDGE_CURVE('',#544,#545,#311,.T.);
#675=EDGE_CURVE('',#545,#545,#63,.T.);
#676=EDGE_CURVE('',#546,#546,#64,.T.);
#677=EDGE_CURVE('',#546,#547,#312,.T.);
#678=EDGE_CURVE('',#547,#547,#65,.T.);
#679=EDGE_CURVE('',#548,#548,#66,.T.);
#680=EDGE_CURVE('',#548,#549,#313,.T.);
#681=EDGE_CURVE('',#549,#549,#67,.T.);
#682=EDGE_CURVE('',#550,#550,#68,.T.);
#683=EDGE_CURVE('',#550,#551,#314,.T.);
#684=EDGE_CURVE('',#551,#551,#69,.T.);
#685=EDGE_CURVE('',#552,#553,#315,.T.);
#686=EDGE_CURVE('',#554,#552,#316,.T.);
#687=EDGE_CURVE('',#554,#555,#317,.T.);
#688=EDGE_CURVE('',#555,#553,#318,.T.);
#689=EDGE_CURVE('',#552,#556,#319,.T.);
#690=EDGE_CURVE('',#557,#556,#320,.T.);
#691=EDGE_CURVE('',#557,#554,#321,.T.);
#692=EDGE_CURVE('',#553,#558,#322,.T.);
#693=EDGE_CURVE('',#555,#559,#323,.T.);
#694=EDGE_CURVE('',#559,#558,#324,.T.);
#695=EDGE_CURVE('',#556,#558,#325,.T.);
#696=EDGE_CURVE('',#559,#557,#326,.T.);
#697=EDGE_CURVE('',#560,#561,#327,.T.);
#698=EDGE_CURVE('',#560,#562,#328,.T.);
#699=EDGE_CURVE('',#563,#562,#329,.T.);
#700=EDGE_CURVE('',#561,#563,#330,.T.);
#701=EDGE_CURVE('',#561,#564,#331,.T.);
#702=EDGE_CURVE('',#565,#563,#332,.T.);
#703=EDGE_CURVE('',#564,#565,#333,.T.);
#704=EDGE_CURVE('',#564,#566,#334,.T.);
#705=EDGE_CURVE('',#567,#565,#335,.T.);
#706=EDGE_CURVE('',#566,#567,#336,.T.);
#707=EDGE_CURVE('',#566,#560,#337,.T.);
#708=EDGE_CURVE('',#562,#567,#338,.T.);
#709=EDGE_CURVE('',#568,#569,#70,.T.);
#710=EDGE_CURVE('',#569,#570,#339,.T.);
#711=EDGE_CURVE('',#570,#571,#71,.T.);
#712=EDGE_CURVE('',#571,#572,#340,.T.);
#713=EDGE_CURVE('',#572,#573,#72,.T.);
#714=EDGE_CURVE('',#573,#574,#341,.T.);
#715=EDGE_CURVE('',#574,#575,#73,.T.);
#716=EDGE_CURVE('',#575,#568,#342,.T.);
#717=EDGE_CURVE('',#576,#577,#74,.T.);
#718=EDGE_CURVE('',#577,#578,#343,.T.);
#719=EDGE_CURVE('',#578,#579,#75,.T.);
#720=EDGE_CURVE('',#579,#580,#344,.T.);
#721=EDGE_CURVE('',#580,#581,#76,.T.);
#722=EDGE_CURVE('',#581,#582,#345,.T.);
#723=EDGE_CURVE('',#582,#583,#77,.T.);
#724=EDGE_CURVE('',#583,#576,#346,.T.);
#725=EDGE_CURVE('',#584,#585,#78,.T.);
#726=EDGE_CURVE('',#585,#586,#347,.T.);
#727=EDGE_CURVE('',#586,#587,#79,.T.);
#728=EDGE_CURVE('',#587,#588,#348,.T.);
#729=EDGE_CURVE('',#588,#589,#80,.T.);
#730=EDGE_CURVE('',#589,#590,#349,.T.);
#731=EDGE_CURVE('',#590,#591,#81,.T.);
#732=EDGE_CURVE('',#591,#584,#350,.T.);
#733=EDGE_CURVE('',#592,#593,#351,.T.);
#734=EDGE_CURVE('',#593,#584,#352,.T.);
#735=EDGE_CURVE('',#592,#591,#353,.T.);
#736=EDGE_CURVE('',#594,#592,#82,.T.);
#737=EDGE_CURVE('',#594,#590,#354,.T.);
#738=EDGE_CURVE('',#595,#594,#355,.T.);
#739=EDGE_CURVE('',#595,#589,#356,.T.);
#740=EDGE_CURVE('',#596,#595,#83,.T.);
#741=EDGE_CURVE('',#596,#588,#357,.T.);
#742=EDGE_CURVE('',#597,#596,#358,.T.);
#743=EDGE_CURVE('',#597,#587,#359,.T.);
#744=EDGE_CURVE('',#598,#597,#84,.T.);
#745=EDGE_CURVE('',#598,#586,#360,.T.);
#746=EDGE_CURVE('',#599,#598,#361,.T.);
#747=EDGE_CURVE('',#599,#585,#362,.T.);
#748=EDGE_CURVE('',#593,#599,#85,.T.);
#749=EDGE_CURVE('',#600,#601,#363,.T.);
#750=EDGE_CURVE('',#601,#576,#364,.T.);
#751=EDGE_CURVE('',#600,#583,#365,.T.);
#752=EDGE_CURVE('',#602,#600,#86,.T.);
#753=EDGE_CURVE('',#602,#582,#366,.T.);
#754=EDGE_CURVE('',#603,#602,#367,.T.);
#755=EDGE_CURVE('',#603,#581,#368,.T.);
#756=EDGE_CURVE('',#604,#603,#87,.T.);
#757=EDGE_CURVE('',#604,#580,#369,.T.);
#758=EDGE_CURVE('',#605,#604,#370,.T.);
#759=EDGE_CURVE('',#605,#579,#371,.T.);
#760=EDGE_CURVE('',#606,#605,#88,.T.);
#761=EDGE_CURVE('',#606,#578,#372,.T.);
#762=EDGE_CURVE('',#607,#606,#373,.T.);
#763=EDGE_CURVE('',#607,#577,#374,.T.);
#764=EDGE_CURVE('',#601,#607,#89,.T.);
#765=EDGE_CURVE('',#608,#609,#375,.T.);
#766=EDGE_CURVE('',#609,#568,#376,.T.);
#767=EDGE_CURVE('',#608,#575,#377,.T.);
#768=EDGE_CURVE('',#610,#608,#90,.T.);
#769=EDGE_CURVE('',#610,#574,#378,.T.);
#770=EDGE_CURVE('',#611,#610,#379,.T.);
#771=EDGE_CURVE('',#611,#573,#380,.T.);
#772=EDGE_CURVE('',#612,#611,#91,.T.);
#773=EDGE_CURVE('',#612,#572,#381,.T.);
#774=EDGE_CURVE('',#613,#612,#382,.T.);
#775=EDGE_CURVE('',#613,#571,#383,.T.);
#776=EDGE_CURVE('',#614,#613,#92,.T.);
#777=EDGE_CURVE('',#614,#570,#384,.T.);
#778=EDGE_CURVE('',#615,#614,#385,.T.);
#779=EDGE_CURVE('',#615,#569,#386,.T.);
#780=EDGE_CURVE('',#609,#615,#93,.T.);
#781=ORIENTED_EDGE('',*,*,#616,.F.);
#782=ORIENTED_EDGE('',*,*,#617,.F.);
#783=ORIENTED_EDGE('',*,*,#618,.F.);
#784=ORIENTED_EDGE('',*,*,#619,.T.);
#785=ORIENTED_EDGE('',*,*,#620,.F.);
#786=ORIENTED_EDGE('',*,*,#619,.F.);
#787=ORIENTED_EDGE('',*,*,#621,.F.);
#788=ORIENTED_EDGE('',*,*,#622,.T.);
#789=ORIENTED_EDGE('',*,*,#623,.F.);
#790=ORIENTED_EDGE('',*,*,#624,.F.);
#791=ORIENTED_EDGE('',*,*,#625,.F.);
#792=ORIENTED_EDGE('',*,*,#617,.T.);
#793=ORIENTED_EDGE('',*,*,#621,.T.);
#794=ORIENTED_EDGE('',*,*,#618,.T.);
#795=ORIENTED_EDGE('',*,*,#625,.T.);
#796=ORIENTED_EDGE('',*,*,#626,.F.);
#797=ORIENTED_EDGE('',*,*,#627,.T.);
#798=ORIENTED_EDGE('',*,*,#628,.F.);
#799=ORIENTED_EDGE('',*,*,#629,.F.);
#800=ORIENTED_EDGE('',*,*,#630,.F.);
#801=ORIENTED_EDGE('',*,*,#631,.F.);
#802=ORIENTED_EDGE('',*,*,#632,.T.);
#803=ORIENTED_EDGE('',*,*,#633,.F.);
#804=ORIENTED_EDGE('',*,*,#632,.F.);
#805=ORIENTED_EDGE('',*,*,#634,.F.);
#806=ORIENTED_EDGE('',*,*,#635,.T.);
#807=ORIENTED_EDGE('',*,*,#636,.F.);
#808=ORIENTED_EDGE('',*,*,#635,.F.);
#809=ORIENTED_EDGE('',*,*,#637,.F.);
#810=ORIENTED_EDGE('',*,*,#638,.T.);
#811=ORIENTED_EDGE('',*,*,#639,.F.);
#812=ORIENTED_EDGE('',*,*,#638,.F.);
#813=ORIENTED_EDGE('',*,*,#640,.F.);
#814=ORIENTED_EDGE('',*,*,#641,.T.);
#815=ORIENTED_EDGE('',*,*,#642,.F.);
#816=ORIENTED_EDGE('',*,*,#641,.F.);
#817=ORIENTED_EDGE('',*,*,#643,.F.);
#818=ORIENTED_EDGE('',*,*,#629,.T.);
#819=ORIENTED_EDGE('',*,*,#644,.F.);
#820=ORIENTED_EDGE('',*,*,#645,.F.);
#821=ORIENTED_EDGE('',*,*,#646,.F.);
#822=ORIENTED_EDGE('',*,*,#645,.T.);
#823=ORIENTED_EDGE('',*,*,#647,.F.);
#824=ORIENTED_EDGE('',*,*,#648,.F.);
#825=ORIENTED_EDGE('',*,*,#649,.F.);
#826=ORIENTED_EDGE('',*,*,#648,.T.);
#827=ORIENTED_EDGE('',*,*,#650,.F.);
#828=ORIENTED_EDGE('',*,*,#627,.F.);
#829=ORIENTED_EDGE('',*,*,#651,.F.);
#830=ORIENTED_EDGE('',*,*,#652,.T.);
#831=ORIENTED_EDGE('',*,*,#653,.F.);
#832=ORIENTED_EDGE('',*,*,#654,.F.);
#833=ORIENTED_EDGE('',*,*,#655,.F.);
#834=ORIENTED_EDGE('',*,*,#654,.T.);
#835=ORIENTED_EDGE('',*,*,#656,.F.);
#836=ORIENTED_EDGE('',*,*,#657,.F.);
#837=ORIENTED_EDGE('',*,*,#658,.F.);
#838=ORIENTED_EDGE('',*,*,#657,.T.);
#839=ORIENTED_EDGE('',*,*,#659,.F.);
#840=ORIENTED_EDGE('',*,*,#660,.F.);
#841=ORIENTED_EDGE('',*,*,#661,.F.);
#842=ORIENTED_EDGE('',*,*,#660,.T.);
#843=ORIENTED_EDGE('',*,*,#662,.F.);
#844=ORIENTED_EDGE('',*,*,#652,.F.);
#845=ORIENTED_EDGE('',*,*,#663,.T.);
#846=ORIENTED_EDGE('',*,*,#623,.T.);
#847=ORIENTED_EDGE('',*,*,#616,.T.);
#848=ORIENTED_EDGE('',*,*,#620,.T.);
#849=ORIENTED_EDGE('',*,*,#662,.T.);
#850=ORIENTED_EDGE('',*,*,#659,.T.);
#851=ORIENTED_EDGE('',*,*,#656,.T.);
#852=ORIENTED_EDGE('',*,*,#653,.T.);
#853=ORIENTED_EDGE('',*,*,#628,.T.);
#854=ORIENTED_EDGE('',*,*,#650,.T.);
#855=ORIENTED_EDGE('',*,*,#647,.T.);
#856=ORIENTED_EDGE('',*,*,#644,.T.);
#857=ORIENTED_EDGE('',*,*,#640,.T.);
#858=ORIENTED_EDGE('',*,*,#637,.T.);
#859=ORIENTED_EDGE('',*,*,#634,.T.);
#860=ORIENTED_EDGE('',*,*,#631,.T.);
#861=ORIENTED_EDGE('',*,*,#664,.F.);
#862=ORIENTED_EDGE('',*,*,#665,.T.);
#863=ORIENTED_EDGE('',*,*,#666,.T.);
#864=ORIENTED_EDGE('',*,*,#665,.F.);
#865=ORIENTED_EDGE('',*,*,#667,.F.);
#866=ORIENTED_EDGE('',*,*,#668,.T.);
#867=ORIENTED_EDGE('',*,*,#669,.T.);
#868=ORIENTED_EDGE('',*,*,#668,.F.);
#869=ORIENTED_EDGE('',*,*,#670,.F.);
#870=ORIENTED_EDGE('',*,*,#671,.T.);
#871=ORIENTED_EDGE('',*,*,#672,.T.);
#872=ORIENTED_EDGE('',*,*,#671,.F.);
#873=ORIENTED_EDGE('',*,*,#626,.T.);
#874=ORIENTED_EDGE('',*,*,#624,.T.);
#875=ORIENTED_EDGE('',*,*,#663,.F.);
#876=ORIENTED_EDGE('',*,*,#622,.F.);
#877=ORIENTED_EDGE('',*,*,#630,.T.);
#878=ORIENTED_EDGE('',*,*,#643,.T.);
#879=ORIENTED_EDGE('',*,*,#646,.T.);
#880=ORIENTED_EDGE('',*,*,#649,.T.);
#881=ORIENTED_EDGE('',*,*,#670,.T.);
#882=ORIENTED_EDGE('',*,*,#667,.T.);
#883=ORIENTED_EDGE('',*,*,#664,.T.);
#884=ORIENTED_EDGE('',*,*,#661,.T.);
#885=ORIENTED_EDGE('',*,*,#651,.T.);
#886=ORIENTED_EDGE('',*,*,#655,.T.);
#887=ORIENTED_EDGE('',*,*,#658,.T.);
#888=ORIENTED_EDGE('',*,*,#666,.F.);
#889=ORIENTED_EDGE('',*,*,#669,.F.);
#890=ORIENTED_EDGE('',*,*,#672,.F.);
#891=ORIENTED_EDGE('',*,*,#642,.T.);
#892=ORIENTED_EDGE('',*,*,#639,.T.);
#893=ORIENTED_EDGE('',*,*,#636,.T.);
#894=ORIENTED_EDGE('',*,*,#633,.T.);
#895=ORIENTED_EDGE('',*,*,#673,.F.);
#896=ORIENTED_EDGE('',*,*,#674,.T.);
#897=ORIENTED_EDGE('',*,*,#675,.F.);
#898=ORIENTED_EDGE('',*,*,#674,.F.);
#899=ORIENTED_EDGE('',*,*,#676,.F.);
#900=ORIENTED_EDGE('',*,*,#677,.T.);
#901=ORIENTED_EDGE('',*,*,#678,.F.);
#902=ORIENTED_EDGE('',*,*,#677,.F.);
#903=ORIENTED_EDGE('',*,*,#679,.F.);
#904=ORIENTED_EDGE('',*,*,#680,.T.);
#905=ORIENTED_EDGE('',*,*,#681,.F.);
#906=ORIENTED_EDGE('',*,*,#680,.F.);
#907=ORIENTED_EDGE('',*,*,#682,.F.);
#908=ORIENTED_EDGE('',*,*,#683,.T.);
#909=ORIENTED_EDGE('',*,*,#684,.F.);
#910=ORIENTED_EDGE('',*,*,#683,.F.);
#911=ORIENTED_EDGE('',*,*,#685,.F.);
#912=ORIENTED_EDGE('',*,*,#686,.F.);
#913=ORIENTED_EDGE('',*,*,#687,.T.);
#914=ORIENTED_EDGE('',*,*,#688,.T.);
#915=ORIENTED_EDGE('',*,*,#689,.T.);
#916=ORIENTED_EDGE('',*,*,#690,.F.);
#917=ORIENTED_EDGE('',*,*,#691,.T.);
#918=ORIENTED_EDGE('',*,*,#686,.T.);
#919=ORIENTED_EDGE('',*,*,#692,.F.);
#920=ORIENTED_EDGE('',*,*,#688,.F.);
#921=ORIENTED_EDGE('',*,*,#693,.T.);
#922=ORIENTED_EDGE('',*,*,#694,.T.);
#923=ORIENTED_EDGE('',*,*,#695,.T.);
#924=ORIENTED_EDGE('',*,*,#694,.F.);
#925=ORIENTED_EDGE('',*,*,#696,.T.);
#926=ORIENTED_EDGE('',*,*,#690,.T.);
#927=ORIENTED_EDGE('',*,*,#697,.F.);
#928=ORIENTED_EDGE('',*,*,#698,.T.);
#929=ORIENTED_EDGE('',*,*,#699,.F.);
#930=ORIENTED_EDGE('',*,*,#700,.F.);
#931=ORIENTED_EDGE('',*,*,#701,.F.);
#932=ORIENTED_EDGE('',*,*,#700,.T.);
#933=ORIENTED_EDGE('',*,*,#702,.F.);
#934=ORIENTED_EDGE('',*,*,#703,.F.);
#935=ORIENTED_EDGE('',*,*,#704,.F.);
#936=ORIENTED_EDGE('',*,*,#703,.T.);
#937=ORIENTED_EDGE('',*,*,#705,.F.);
#938=ORIENTED_EDGE('',*,*,#706,.F.);
#939=ORIENTED_EDGE('',*,*,#707,.F.);
#940=ORIENTED_EDGE('',*,*,#706,.T.);
#941=ORIENTED_EDGE('',*,*,#708,.F.);
#942=ORIENTED_EDGE('',*,*,#698,.F.);
#943=ORIENTED_EDGE('',*,*,#708,.T.);
#944=ORIENTED_EDGE('',*,*,#705,.T.);
#945=ORIENTED_EDGE('',*,*,#702,.T.);
#946=ORIENTED_EDGE('',*,*,#699,.T.);
#947=ORIENTED_EDGE('',*,*,#709,.T.);
#948=ORIENTED_EDGE('',*,*,#710,.T.);
#949=ORIENTED_EDGE('',*,*,#711,.T.);
#950=ORIENTED_EDGE('',*,*,#712,.T.);
#951=ORIENTED_EDGE('',*,*,#713,.T.);
#952=ORIENTED_EDGE('',*,*,#714,.T.);
#953=ORIENTED_EDGE('',*,*,#715,.T.);
#954=ORIENTED_EDGE('',*,*,#716,.T.);
#955=ORIENTED_EDGE('',*,*,#717,.T.);
#956=ORIENTED_EDGE('',*,*,#718,.T.);
#957=ORIENTED_EDGE('',*,*,#719,.T.);
#958=ORIENTED_EDGE('',*,*,#720,.T.);
#959=ORIENTED_EDGE('',*,*,#721,.T.);
#960=ORIENTED_EDGE('',*,*,#722,.T.);
#961=ORIENTED_EDGE('',*,*,#723,.T.);
#962=ORIENTED_EDGE('',*,*,#724,.T.);
#963=ORIENTED_EDGE('',*,*,#725,.T.);
#964=ORIENTED_EDGE('',*,*,#726,.T.);
#965=ORIENTED_EDGE('',*,*,#727,.T.);
#966=ORIENTED_EDGE('',*,*,#728,.T.);
#967=ORIENTED_EDGE('',*,*,#729,.T.);
#968=ORIENTED_EDGE('',*,*,#730,.T.);
#969=ORIENTED_EDGE('',*,*,#731,.T.);
#970=ORIENTED_EDGE('',*,*,#732,.T.);
#971=ORIENTED_EDGE('',*,*,#682,.T.);
#972=ORIENTED_EDGE('',*,*,#679,.T.);
#973=ORIENTED_EDGE('',*,*,#676,.T.);
#974=ORIENTED_EDGE('',*,*,#673,.T.);
#975=ORIENTED_EDGE('',*,*,#707,.T.);
#976=ORIENTED_EDGE('',*,*,#697,.T.);
#977=ORIENTED_EDGE('',*,*,#701,.T.);
#978=ORIENTED_EDGE('',*,*,#704,.T.);
#979=ORIENTED_EDGE('',*,*,#696,.F.);
#980=ORIENTED_EDGE('',*,*,#693,.F.);
#981=ORIENTED_EDGE('',*,*,#687,.F.);
#982=ORIENTED_EDGE('',*,*,#691,.F.);
#983=ORIENTED_EDGE('',*,*,#684,.T.);
#984=ORIENTED_EDGE('',*,*,#681,.T.);
#985=ORIENTED_EDGE('',*,*,#678,.T.);
#986=ORIENTED_EDGE('',*,*,#675,.T.);
#987=ORIENTED_EDGE('',*,*,#733,.T.);
#988=ORIENTED_EDGE('',*,*,#734,.T.);
#989=ORIENTED_EDGE('',*,*,#732,.F.);
#990=ORIENTED_EDGE('',*,*,#735,.F.);
#991=ORIENTED_EDGE('',*,*,#736,.T.);
#992=ORIENTED_EDGE('',*,*,#735,.T.);
#993=ORIENTED_EDGE('',*,*,#731,.F.);
#994=ORIENTED_EDGE('',*,*,#737,.F.);
#995=ORIENTED_EDGE('',*,*,#738,.T.);
#996=ORIENTED_EDGE('',*,*,#737,.T.);
#997=ORIENTED_EDGE('',*,*,#730,.F.);
#998=ORIENTED_EDGE('',*,*,#739,.F.);
#999=ORIENTED_EDGE('',*,*,#740,.T.);
#1000=ORIENTED_EDGE('',*,*,#739,.T.);
#1001=ORIENTED_EDGE('',*,*,#729,.F.);
#1002=ORIENTED_EDGE('',*,*,#741,.F.);
#1003=ORIENTED_EDGE('',*,*,#742,.T.);
#1004=ORIENTED_EDGE('',*,*,#741,.T.);
#1005=ORIENTED_EDGE('',*,*,#728,.F.);
#1006=ORIENTED_EDGE('',*,*,#743,.F.);
#1007=ORIENTED_EDGE('',*,*,#744,.T.);
#1008=ORIENTED_EDGE('',*,*,#743,.T.);
#1009=ORIENTED_EDGE('',*,*,#727,.F.);
#1010=ORIENTED_EDGE('',*,*,#745,.F.);
#1011=ORIENTED_EDGE('',*,*,#746,.T.);
#1012=ORIENTED_EDGE('',*,*,#745,.T.);
#1013=ORIENTED_EDGE('',*,*,#726,.F.);
#1014=ORIENTED_EDGE('',*,*,#747,.F.);
#1015=ORIENTED_EDGE('',*,*,#748,.T.);
#1016=ORIENTED_EDGE('',*,*,#747,.T.);
#1017=ORIENTED_EDGE('',*,*,#725,.F.);
#1018=ORIENTED_EDGE('',*,*,#734,.F.);
#1019=ORIENTED_EDGE('',*,*,#749,.T.);
#1020=ORIENTED_EDGE('',*,*,#750,.T.);
#1021=ORIENTED_EDGE('',*,*,#724,.F.);
#1022=ORIENTED_EDGE('',*,*,#751,.F.);
#1023=ORIENTED_EDGE('',*,*,#752,.T.);
#1024=ORIENTED_EDGE('',*,*,#751,.T.);
#1025=ORIENTED_EDGE('',*,*,#723,.F.);
#1026=ORIENTED_EDGE('',*,*,#753,.F.);
#1027=ORIENTED_EDGE('',*,*,#754,.T.);
#1028=ORIENTED_EDGE('',*,*,#753,.T.);
#1029=ORIENTED_EDGE('',*,*,#722,.F.);
#1030=ORIENTED_EDGE('',*,*,#755,.F.);
#1031=ORIENTED_EDGE('',*,*,#756,.T.);
#1032=ORIENTED_EDGE('',*,*,#755,.T.);
#1033=ORIENTED_EDGE('',*,*,#721,.F.);
#1034=ORIENTED_EDGE('',*,*,#757,.F.);
#1035=ORIENTED_EDGE('',*,*,#758,.T.);
#1036=ORIENTED_EDGE('',*,*,#757,.T.);
#1037=ORIENTED_EDGE('',*,*,#720,.F.);
#1038=ORIENTED_EDGE('',*,*,#759,.F.);
#1039=ORIENTED_EDGE('',*,*,#760,.T.);
#1040=ORIENTED_EDGE('',*,*,#759,.T.);
#1041=ORIENTED_EDGE('',*,*,#719,.F.);
#1042=ORIENTED_EDGE('',*,*,#761,.F.);
#1043=ORIENTED_EDGE('',*,*,#762,.T.);
#1044=ORIENTED_EDGE('',*,*,#761,.T.);
#1045=ORIENTED_EDGE('',*,*,#718,.F.);
#1046=ORIENTED_EDGE('',*,*,#763,.F.);
#1047=ORIENTED_EDGE('',*,*,#764,.T.);
#1048=ORIENTED_EDGE('',*,*,#763,.T.);
#1049=ORIENTED_EDGE('',*,*,#717,.F.);
#1050=ORIENTED_EDGE('',*,*,#750,.F.);
#1051=ORIENTED_EDGE('',*,*,#765,.T.);
#1052=ORIENTED_EDGE('',*,*,#766,.T.);
#1053=ORIENTED_EDGE('',*,*,#716,.F.);
#1054=ORIENTED_EDGE('',*,*,#767,.F.);
#1055=ORIENTED_EDGE('',*,*,#768,.T.);
#1056=ORIENTED_EDGE('',*,*,#767,.T.);
#1057=ORIENTED_EDGE('',*,*,#715,.F.);
#1058=ORIENTED_EDGE('',*,*,#769,.F.);
#1059=ORIENTED_EDGE('',*,*,#770,.T.);
#1060=ORIENTED_EDGE('',*,*,#769,.T.);
#1061=ORIENTED_EDGE('',*,*,#714,.F.);
#1062=ORIENTED_EDGE('',*,*,#771,.F.);
#1063=ORIENTED_EDGE('',*,*,#772,.T.);
#1064=ORIENTED_EDGE('',*,*,#771,.T.);
#1065=ORIENTED_EDGE('',*,*,#713,.F.);
#1066=ORIENTED_EDGE('',*,*,#773,.F.);
#1067=ORIENTED_EDGE('',*,*,#774,.T.);
#1068=ORIENTED_EDGE('',*,*,#773,.T.);
#1069=ORIENTED_EDGE('',*,*,#712,.F.);
#1070=ORIENTED_EDGE('',*,*,#775,.F.);
#1071=ORIENTED_EDGE('',*,*,#776,.T.);
#1072=ORIENTED_EDGE('',*,*,#775,.T.);
#1073=ORIENTED_EDGE('',*,*,#711,.F.);
#1074=ORIENTED_EDGE('',*,*,#777,.F.);
#1075=ORIENTED_EDGE('',*,*,#778,.T.);
#1076=ORIENTED_EDGE('',*,*,#777,.T.);
#1077=ORIENTED_EDGE('',*,*,#710,.F.);
#1078=ORIENTED_EDGE('',*,*,#779,.F.);
#1079=ORIENTED_EDGE('',*,*,#780,.T.);
#1080=ORIENTED_EDGE('',*,*,#779,.T.);
#1081=ORIENTED_EDGE('',*,*,#709,.F.);
#1082=ORIENTED_EDGE('',*,*,#766,.F.);
#1083=ORIENTED_EDGE('',*,*,#689,.F.);
#1084=ORIENTED_EDGE('',*,*,#685,.T.);
#1085=ORIENTED_EDGE('',*,*,#692,.T.);
#1086=ORIENTED_EDGE('',*,*,#695,.F.);
#1087=ORIENTED_EDGE('',*,*,#780,.F.);
#1088=ORIENTED_EDGE('',*,*,#765,.F.);
#1089=ORIENTED_EDGE('',*,*,#768,.F.);
#1090=ORIENTED_EDGE('',*,*,#770,.F.);
#1091=ORIENTED_EDGE('',*,*,#772,.F.);
#1092=ORIENTED_EDGE('',*,*,#774,.F.);
#1093=ORIENTED_EDGE('',*,*,#776,.F.);
#1094=ORIENTED_EDGE('',*,*,#778,.F.);
#1095=ORIENTED_EDGE('',*,*,#764,.F.);
#1096=ORIENTED_EDGE('',*,*,#749,.F.);
#1097=ORIENTED_EDGE('',*,*,#752,.F.);
#1098=ORIENTED_EDGE('',*,*,#754,.F.);
#1099=ORIENTED_EDGE('',*,*,#756,.F.);
#1100=ORIENTED_EDGE('',*,*,#758,.F.);
#1101=ORIENTED_EDGE('',*,*,#760,.F.);
#1102=ORIENTED_EDGE('',*,*,#762,.F.);
#1103=ORIENTED_EDGE('',*,*,#748,.F.);
#1104=ORIENTED_EDGE('',*,*,#733,.F.);
#1105=ORIENTED_EDGE('',*,*,#736,.F.);
#1106=ORIENTED_EDGE('',*,*,#738,.F.);
#1107=ORIENTED_EDGE('',*,*,#740,.F.);
#1108=ORIENTED_EDGE('',*,*,#742,.F.);
#1109=ORIENTED_EDGE('',*,*,#744,.F.);
#1110=ORIENTED_EDGE('',*,*,#746,.F.);
#1111=PLANE('',#1223);
#1112=PLANE('',#1224);
#1113=PLANE('',#1225);
#1114=PLANE('',#1226);
#1115=PLANE('',#1239);
#1116=PLANE('',#1240);
#1117=PLANE('',#1241);
#1118=PLANE('',#1242);
#1119=PLANE('',#1243);
#1120=PLANE('',#1244);
#1121=PLANE('',#1245);
#1122=PLANE('',#1246);
#1123=PLANE('',#1256);
#1124=PLANE('',#1257);
#1125=PLANE('',#1270);
#1126=PLANE('',#1271);
#1127=PLANE('',#1272);
#1128=PLANE('',#1273);
#1129=PLANE('',#1274);
#1130=PLANE('',#1275);
#1131=PLANE('',#1276);
#1132=PLANE('',#1277);
#1133=PLANE('',#1278);
#1134=PLANE('',#1291);
#1135=PLANE('',#1292);
#1136=PLANE('',#1295);
#1137=PLANE('',#1298);
#1138=PLANE('',#1301);
#1139=PLANE('',#1304);
#1140=PLANE('',#1307);
#1141=PLANE('',#1310);
#1142=PLANE('',#1313);
#1143=PLANE('',#1316);
#1144=PLANE('',#1319);
#1145=PLANE('',#1322);
#1146=PLANE('',#1325);
#1147=PLANE('',#1328);
#1148=ADVANCED_FACE('',(#117),#1111,.F.);
#1149=ADVANCED_FACE('',(#118),#1112,.F.);
#1150=ADVANCED_FACE('',(#119),#1113,.F.);
#1151=ADVANCED_FACE('',(#120),#1114,.T.);
#1152=ADVANCED_FACE('',(#121),#94,.F.);
#1153=ADVANCED_FACE('',(#122),#95,.F.);
#1154=ADVANCED_FACE('',(#123),#96,.F.);
#1155=ADVANCED_FACE('',(#124),#97,.F.);
#1156=ADVANCED_FACE('',(#125),#1115,.T.);
#1157=ADVANCED_FACE('',(#126),#1116,.T.);
#1158=ADVANCED_FACE('',(#127),#1117,.T.);
#1159=ADVANCED_FACE('',(#128),#1118,.T.);
#1160=ADVANCED_FACE('',(#129),#1119,.T.);
#1161=ADVANCED_FACE('',(#130),#1120,.T.);
#1162=ADVANCED_FACE('',(#131,#17),#1121,.T.);
#1163=ADVANCED_FACE('',(#132,#18,#19,#20,#21,#22),#1122,.T.);
#1164=ADVANCED_FACE('',(#133),#98,.F.);
#1165=ADVANCED_FACE('',(#134),#99,.F.);
#1166=ADVANCED_FACE('',(#135),#100,.F.);
#1167=ADVANCED_FACE('',(#136,#23,#24,#25),#1123,.T.);
#1168=ADVANCED_FACE('',(#137,#26,#27,#28,#29,#30,#31,#32),#1124,.F.);
#1169=ADVANCED_FACE('',(#138),#101,.F.);
#1170=ADVANCED_FACE('',(#139),#102,.F.);
#1171=ADVANCED_FACE('',(#140),#103,.F.);
#1172=ADVANCED_FACE('',(#141),#104,.F.);
#1173=ADVANCED_FACE('',(#142),#1125,.T.);
#1174=ADVANCED_FACE('',(#143),#1126,.T.);
#1175=ADVANCED_FACE('',(#144),#1127,.T.);
#1176=ADVANCED_FACE('',(#145),#1128,.T.);
#1177=ADVANCED_FACE('',(#146),#1129,.T.);
#1178=ADVANCED_FACE('',(#147),#1130,.T.);
#1179=ADVANCED_FACE('',(#148),#1131,.T.);
#1180=ADVANCED_FACE('',(#149),#1132,.T.);
#1181=ADVANCED_FACE('',(#150,#33,#34,#35,#36,#37,#38,#39),#1133,.T.);
#1182=ADVANCED_FACE('',(#151,#40,#41,#42,#43,#44),#1134,.F.);
#1183=ADVANCED_FACE('',(#152),#1135,.T.);
#1184=ADVANCED_FACE('',(#153),#105,.F.);
#1185=ADVANCED_FACE('',(#154),#1136,.T.);
#1186=ADVANCED_FACE('',(#155),#106,.F.);
#1187=ADVANCED_FACE('',(#156),#1137,.T.);
#1188=ADVANCED_FACE('',(#157),#107,.F.);
#1189=ADVANCED_FACE('',(#158),#1138,.T.);
#1190=ADVANCED_FACE('',(#159),#108,.F.);
#1191=ADVANCED_FACE('',(#160),#1139,.T.);
#1192=ADVANCED_FACE('',(#161),#109,.F.);
#1193=ADVANCED_FACE('',(#162),#1140,.T.);
#1194=ADVANCED_FACE('',(#163),#110,.F.);
#1195=ADVANCED_FACE('',(#164),#1141,.T.);
#1196=ADVANCED_FACE('',(#165),#111,.F.);
#1197=ADVANCED_FACE('',(#166),#1142,.T.);
#1198=ADVANCED_FACE('',(#167),#112,.F.);
#1199=ADVANCED_FACE('',(#168),#1143,.T.);
#1200=ADVANCED_FACE('',(#169),#113,.F.);
#1201=ADVANCED_FACE('',(#170),#1144,.T.);
#1202=ADVANCED_FACE('',(#171),#114,.F.);
#1203=ADVANCED_FACE('',(#172),#1145,.T.);
#1204=ADVANCED_FACE('',(#173),#115,.F.);
#1205=ADVANCED_FACE('',(#174),#1146,.T.);
#1206=ADVANCED_FACE('',(#175),#116,.F.);
#1207=ADVANCED_FACE('',(#176,#45,#46,#47),#1147,.F.);
#1208=CLOSED_SHELL('',(#1148,#1149,#1150,#1151,#1152,#1153,#1154,#1155,
#1156,#1157,#1158,#1159,#1160,#1161,#1162,#1163,#1164,#1165,#1166,#1167,
#1168));
#1209=CLOSED_SHELL('',(#1169,#1170,#1171,#1172,#1173,#1174,#1175,#1176,
#1177,#1178,#1179,#1180,#1181,#1182,#1183,#1184,#1185,#1186,#1187,#1188,
#1189,#1190,#1191,#1192,#1193,#1194,#1195,#1196,#1197,#1198,#1199,#1200,
#1201,#1202,#1203,#1204,#1205,#1206,#1207));
#1210=DERIVED_UNIT_ELEMENT(#1212,1.);
#1211=DERIVED_UNIT_ELEMENT(#2003,-3.);
#1212=(
MASS_UNIT()
NAMED_UNIT(*)
SI_UNIT(.KILO.,.GRAM.)
);
#1213=DERIVED_UNIT((#1210,#1211));
#1214=MEASURE_REPRESENTATION_ITEM('density measure',
POSITIVE_RATIO_MEASURE(7850.),#1213);
#1215=PROPERTY_DEFINITION_REPRESENTATION(#1220,#1217);
#1216=PROPERTY_DEFINITION_REPRESENTATION(#1221,#1218);
#1217=REPRESENTATION('material name',(#1219),#2000);
#1218=REPRESENTATION('density',(#1214),#2000);
#1219=DESCRIPTIVE_REPRESENTATION_ITEM('Steel','Steel');
#1220=PROPERTY_DEFINITION('material property','material name',#2010);
#1221=PROPERTY_DEFINITION('material property','density of part',#2010);
#1222=AXIS2_PLACEMENT_3D('',#1662,#1329,#1330);
#1223=AXIS2_PLACEMENT_3D('',#1663,#1331,#1332);
#1224=AXIS2_PLACEMENT_3D('',#1672,#1337,#1338);
#1225=AXIS2_PLACEMENT_3D('',#1678,#1342,#1343);
#1226=AXIS2_PLACEMENT_3D('',#1684,#1347,#1348);
#1227=AXIS2_PLACEMENT_3D('',#1694,#1354,#1355);
#1228=AXIS2_PLACEMENT_3D('',#1696,#1356,#1357);
#1229=AXIS2_PLACEMENT_3D('',#1699,#1359,#1360);
#1230=AXIS2_PLACEMENT_3D('',#1700,#1361,#1362);
#1231=AXIS2_PLACEMENT_3D('',#1702,#1363,#1364);
#1232=AXIS2_PLACEMENT_3D('',#1705,#1366,#1367);
#1233=AXIS2_PLACEMENT_3D('',#1706,#1368,#1369);
#1234=AXIS2_PLACEMENT_3D('',#1708,#1370,#1371);
#1235=AXIS2_PLACEMENT_3D('',#1711,#1373,#1374);
#1236=AXIS2_PLACEMENT_3D('',#1712,#1375,#1376);
#1237=AXIS2_PLACEMENT_3D('',#1714,#1377,#1378);
#1238=AXIS2_PLACEMENT_3D('',#1717,#1380,#1381);
#1239=AXIS2_PLACEMENT_3D('',#1718,#1382,#1383);
#1240=AXIS2_PLACEMENT_3D('',#1724,#1387,#1388);
#1241=AXIS2_PLACEMENT_3D('',#1730,#1392,#1393);
#1242=AXIS2_PLACEMENT_3D('',#1733,#1396,#1397);
#1243=AXIS2_PLACEMENT_3D('',#1742,#1402,#1403);
#1244=AXIS2_PLACEMENT_3D('',#1748,#1407,#1408);
#1245=AXIS2_PLACEMENT_3D('',#1754,#1412,#1413);
#1246=AXIS2_PLACEMENT_3D('',#1758,#1417,#1418);
#1247=AXIS2_PLACEMENT_3D('',#1759,#1419,#1420);
#1248=AXIS2_PLACEMENT_3D('',#1761,#1421,#1422);
#1249=AXIS2_PLACEMENT_3D('',#1764,#1424,#1425);
#1250=AXIS2_PLACEMENT_3D('',#1765,#1426,#1427);
#1251=AXIS2_PLACEMENT_3D('',#1767,#1428,#1429);
#1252=AXIS2_PLACEMENT_3D('',#1770,#1431,#1432);
#1253=AXIS2_PLACEMENT_3D('',#1771,#1433,#1434);
#1254=AXIS2_PLACEMENT_3D('',#1773,#1435,#1436);
#1255=AXIS2_PLACEMENT_3D('',#1776,#1438,#1439);
#1256=AXIS2_PLACEMENT_3D('',#1777,#1440,#1441);
#1257=AXIS2_PLACEMENT_3D('',#1778,#1442,#1443);
#1258=AXIS2_PLACEMENT_3D('',#1779,#1444,#1445);
#1259=AXIS2_PLACEMENT_3D('',#1781,#1446,#1447);
#1260=AXIS2_PLACEMENT_3D('',#1784,#1449,#1450);
#1261=AXIS2_PLACEMENT_3D('',#1785,#1451,#1452);
#1262=AXIS2_PLACEMENT_3D('',#1787,#1453,#1454);
#1263=AXIS2_PLACEMENT_3D('',#1790,#1456,#1457);
#1264=AXIS2_PLACEMENT_3D('',#1791,#1458,#1459);
#1265=AXIS2_PLACEMENT_3D('',#1793,#1460,#1461);
#1266=AXIS2_PLACEMENT_3D('',#1796,#1463,#1464);
#1267=AXIS2_PLACEMENT_3D('',#1797,#1465,#1466);
#1268=AXIS2_PLACEMENT_3D('',#1799,#1467,#1468);
#1269=AXIS2_PLACEMENT_3D('',#1802,#1470,#1471);
#1270=AXIS2_PLACEMENT_3D('',#1803,#1472,#1473);
#1271=AXIS2_PLACEMENT_3D('',#1812,#1478,#1479);
#1272=AXIS2_PLACEMENT_3D('',#1818,#1483,#1484);
#1273=AXIS2_PLACEMENT_3D('',#1824,#1488,#1489);
#1274=AXIS2_PLACEMENT_3D('',#1827,#1492,#1493);
#1275=AXIS2_PLACEMENT_3D('',#1836,#1498,#1499);
#1276=AXIS2_PLACEMENT_3D('',#1842,#1503,#1504);
#1277=AXIS2_PLACEMENT_3D('',#1848,#1508,#1509);
#1278=AXIS2_PLACEMENT_3D('',#1851,#1512,#1513);
#1279=AXIS2_PLACEMENT_3D('',#1854,#1514,#1515);
#1280=AXIS2_PLACEMENT_3D('',#1858,#1517,#1518);
#1281=AXIS2_PLACEMENT_3D('',#1862,#1520,#1521);
#1282=AXIS2_PLACEMENT_3D('',#1866,#1523,#1524);
#1283=AXIS2_PLACEMENT_3D('',#1870,#1526,#1527);
#1284=AXIS2_PLACEMENT_3D('',#1874,#1529,#1530);
#1285=AXIS2_PLACEMENT_3D('',#1878,#1532,#1533);
#1286=AXIS2_PLACEMENT_3D('',#1882,#1535,#1536);
#1287=AXIS2_PLACEMENT_3D('',#1886,#1538,#1539);
#1288=AXIS2_PLACEMENT_3D('',#1890,#1541,#1542);
#1289=AXIS2_PLACEMENT_3D('',#1894,#1544,#1545);
#1290=AXIS2_PLACEMENT_3D('',#1898,#1547,#1548);
#1291=AXIS2_PLACEMENT_3D('',#1900,#1550,#1551);
#1292=AXIS2_PLACEMENT_3D('',#1901,#1552,#1553);
#1293=AXIS2_PLACEMENT_3D('',#1907,#1557,#1558);
#1294=AXIS2_PLACEMENT_3D('',#1909,#1559,#1560);
#1295=AXIS2_PLACEMENT_3D('',#1911,#1562,#1563);
#1296=AXIS2_PLACEMENT_3D('',#1915,#1566,#1567);
#1297=AXIS2_PLACEMENT_3D('',#1917,#1568,#1569);
#1298=AXIS2_PLACEMENT_3D('',#1919,#1571,#1572);
#1299=AXIS2_PLACEMENT_3D('',#1923,#1575,#1576);
#1300=AXIS2_PLACEMENT_3D('',#1925,#1577,#1578);
#1301=AXIS2_PLACEMENT_3D('',#1927,#1580,#1581);
#1302=AXIS2_PLACEMENT_3D('',#1931,#1584,#1585);
#1303=AXIS2_PLACEMENT_3D('',#1932,#1586,#1587);
#1304=AXIS2_PLACEMENT_3D('',#1933,#1588,#1589);
#1305=AXIS2_PLACEMENT_3D('',#1939,#1593,#1594);
#1306=AXIS2_PLACEMENT_3D('',#1941,#1595,#1596);
#1307=AXIS2_PLACEMENT_3D('',#1943,#1598,#1599);
#1308=AXIS2_PLACEMENT_3D('',#1947,#1602,#1603);
#1309=AXIS2_PLACEMENT_3D('',#1949,#1604,#1605);
#1310=AXIS2_PLACEMENT_3D('',#1951,#1607,#1608);
#1311=AXIS2_PLACEMENT_3D('',#1955,#1611,#1612);
#1312=AXIS2_PLACEMENT_3D('',#1957,#1613,#1614);
#1313=AXIS2_PLACEMENT_3D('',#1959,#1616,#1617);
#1314=AXIS2_PLACEMENT_3D('',#1963,#1620,#1621);
#1315=AXIS2_PLACEMENT_3D('',#1964,#1622,#1623);
#1316=AXIS2_PLACEMENT_3D('',#1965,#1624,#1625);
#1317=AXIS2_PLACEMENT_3D('',#1971,#1629,#1630);
#1318=AXIS2_PLACEMENT_3D('',#1973,#1631,#1632);
#1319=AXIS2_PLACEMENT_3D('',#1975,#1634,#1635);
#1320=AXIS2_PLACEMENT_3D('',#1979,#1638,#1639);
#1321=AXIS2_PLACEMENT_3D('',#1981,#1640,#1641);
#1322=AXIS2_PLACEMENT_3D('',#1983,#1643,#1644);
#1323=AXIS2_PLACEMENT_3D('',#1987,#1647,#1648);
#1324=AXIS2_PLACEMENT_3D('',#1989,#1649,#1650);
#1325=AXIS2_PLACEMENT_3D('',#1991,#1652,#1653);
#1326=AXIS2_PLACEMENT_3D('',#1995,#1656,#1657);
#1327=AXIS2_PLACEMENT_3D('',#1996,#1658,#1659);
#1328=AXIS2_PLACEMENT_3D('',#1997,#1660,#1661);
#1329=DIRECTION('axis',(0.,0.,1.));
#1330=DIRECTION('refdir',(1.,0.,0.));
#1331=DIRECTION('center_axis',(0.,0.,1.));
#1332=DIRECTION('ref_axis',(1.,0.,0.));
#1333=DIRECTION('',(-1.,0.,0.));
#1334=DIRECTION('',(0.,1.,0.));
#1335=DIRECTION('',(1.,0.,0.));
#1336=DIRECTION('',(0.,1.,0.));
#1337=DIRECTION('center_axis',(-1.,0.,0.));
#1338=DIRECTION('ref_axis',(0.,0.,1.));
#1339=DIRECTION('',(0.,0.,-1.));
#1340=DIRECTION('',(0.,0.,1.));
#1341=DIRECTION('',(0.,1.,0.));
#1342=DIRECTION('center_axis',(1.,0.,0.));
#1343=DIRECTION('ref_axis',(0.,0.,-1.));
#1344=DIRECTION('',(0.,0.,1.));
#1345=DIRECTION('',(0.,1.,0.));
#1346=DIRECTION('',(0.,0.,-1.));
#1347=DIRECTION('center_axis',(0.,-1.,0.));
#1348=DIRECTION('ref_axis',(1.,0.,0.));
#1349=DIRECTION('',(-1.,0.,0.));
#1350=DIRECTION('',(0.,0.,1.));
#1351=DIRECTION('',(1.,0.,0.));
#1352=DIRECTION('',(0.,0.,1.));
#1353=DIRECTION('',(-1.,0.,0.));
#1354=DIRECTION('center_axis',(0.,0.,-1.));
#1355=DIRECTION('ref_axis',(-1.,0.,0.));
#1356=DIRECTION('center_axis',(0.,0.,-1.));
#1357=DIRECTION('ref_axis',(-1.,0.,0.));
#1358=DIRECTION('',(0.,0.,-1.));
#1359=DIRECTION('center_axis',(0.,0.,1.));
#1360=DIRECTION('ref_axis',(-1.,0.,0.));
#1361=DIRECTION('center_axis',(0.,0.,-1.));
#1362=DIRECTION('ref_axis',(-1.,0.,0.));
#1363=DIRECTION('center_axis',(0.,0.,-1.));
#1364=DIRECTION('ref_axis',(-1.,0.,0.));
#1365=DIRECTION('',(0.,0.,-1.));
#1366=DIRECTION('center_axis',(0.,0.,1.));
#1367=DIRECTION('ref_axis',(-1.,0.,0.));
#1368=DIRECTION('center_axis',(0.,0.,-1.));
#1369=DIRECTION('ref_axis',(-1.,0.,0.));
#1370=DIRECTION('center_axis',(0.,0.,-1.));
#1371=DIRECTION('ref_axis',(-1.,0.,0.));
#1372=DIRECTION('',(0.,0.,-1.));
#1373=DIRECTION('center_axis',(0.,0.,1.));
#1374=DIRECTION('ref_axis',(-1.,0.,0.));
#1375=DIRECTION('center_axis',(0.,0.,-1.));
#1376=DIRECTION('ref_axis',(-1.,0.,0.));
#1377=DIRECTION('center_axis',(0.,0.,-1.));
#1378=DIRECTION('ref_axis',(-1.,0.,0.));
#1379=DIRECTION('',(0.,0.,-1.));
#1380=DIRECTION('center_axis',(0.,0.,1.));
#1381=DIRECTION('ref_axis',(-1.,0.,0.));
#1382=DIRECTION('center_axis',(1.,0.,0.));
#1383=DIRECTION('ref_axis',(0.,1.,0.));
#1384=DIRECTION('',(0.,-1.,0.));
#1385=DIRECTION('',(0.,1.,0.));
#1386=DIRECTION('',(0.,0.,1.));
#1387=DIRECTION('center_axis',(0.,1.,0.));
#1388=DIRECTION('ref_axis',(-1.,0.,0.));
#1389=DIRECTION('',(1.,0.,0.));
#1390=DIRECTION('',(-1.,0.,0.));
#1391=DIRECTION('',(0.,0.,1.));
#1392=DIRECTION('center_axis',(-1.,0.,0.));
#1393=DIRECTION('ref_axis',(0.,-1.,0.));
#1394=DIRECTION('',(0.,1.,0.));
#1395=DIRECTION('',(0.,-1.,0.));
#1396=DIRECTION('center_axis',(1.,0.,0.));
#1397=DIRECTION('ref_axis',(0.,1.,0.));
#1398=DIRECTION('',(0.,-1.,0.));
#1399=DIRECTION('',(0.,0.,1.));
#1400=DIRECTION('',(0.,1.,0.));
#1401=DIRECTION('',(0.,0.,1.));
#1402=DIRECTION('center_axis',(0.,-1.,0.));
#1403=DIRECTION('ref_axis',(1.,0.,0.));
#1404=DIRECTION('',(-1.,0.,0.));
#1405=DIRECTION('',(1.,0.,0.));
#1406=DIRECTION('',(0.,0.,1.));
#1407=DIRECTION('center_axis',(-1.,0.,0.));
#1408=DIRECTION('ref_axis',(0.,-1.,0.));
#1409=DIRECTION('',(0.,1.,0.));
#1410=DIRECTION('',(0.,-1.,0.));
#1411=DIRECTION('',(0.,0.,1.));
#1412=DIRECTION('center_axis',(0.,1.,0.));
#1413=DIRECTION('ref_axis',(-1.,0.,0.));
#1414=DIRECTION('',(1.,0.,0.));
#1415=DIRECTION('',(-1.,0.,0.));
#1416=DIRECTION('',(1.,0.,0.));
#1417=DIRECTION('center_axis',(0.,0.,1.));
#1418=DIRECTION('ref_axis',(1.,0.,0.));
#1419=DIRECTION('center_axis',(0.,0.,1.));
#1420=DIRECTION('ref_axis',(1.,0.,0.));
#1421=DIRECTION('center_axis',(0.,0.,-1.));
#1422=DIRECTION('ref_axis',(1.,0.,0.));
#1423=DIRECTION('',(0.,0.,-1.));
#1424=DIRECTION('center_axis',(0.,0.,-1.));
#1425=DIRECTION('ref_axis',(1.,0.,0.));
#1426=DIRECTION('center_axis',(0.,0.,1.));
#1427=DIRECTION('ref_axis',(1.,0.,0.));
#1428=DIRECTION('center_axis',(0.,0.,-1.));
#1429=DIRECTION('ref_axis',(1.,0.,0.));
#1430=DIRECTION('',(0.,0.,-1.));
#1431=DIRECTION('center_axis',(0.,0.,-1.));
#1432=DIRECTION('ref_axis',(1.,0.,0.));
#1433=DIRECTION('center_axis',(0.,0.,1.));
#1434=DIRECTION('ref_axis',(1.,0.,0.));
#1435=DIRECTION('center_axis',(0.,0.,-1.));
#1436=DIRECTION('ref_axis',(1.,0.,0.));
#1437=DIRECTION('',(0.,0.,-1.));
#1438=DIRECTION('center_axis',(0.,0.,-1.));
#1439=DIRECTION('ref_axis',(1.,0.,0.));
#1440=DIRECTION('center_axis',(0.,0.,1.));
#1441=DIRECTION('ref_axis',(1.,0.,0.));
#1442=DIRECTION('center_axis',(0.,0.,1.));
#1443=DIRECTION('ref_axis',(1.,0.,0.));
#1444=DIRECTION('center_axis',(0.,0.,-1.));
#1445=DIRECTION('ref_axis',(-1.,0.,0.));
#1446=DIRECTION('center_axis',(0.,0.,-1.));
#1447=DIRECTION('ref_axis',(-1.,0.,0.));
#1448=DIRECTION('',(0.,0.,-1.));
#1449=DIRECTION('center_axis',(0.,0.,1.));
#1450=DIRECTION('ref_axis',(-1.,0.,0.));
#1451=DIRECTION('center_axis',(0.,0.,-1.));
#1452=DIRECTION('ref_axis',(-1.,0.,0.));
#1453=DIRECTION('center_axis',(0.,0.,-1.));
#1454=DIRECTION('ref_axis',(-1.,0.,0.));
#1455=DIRECTION('',(0.,0.,-1.));
#1456=DIRECTION('center_axis',(0.,0.,1.));
#1457=DIRECTION('ref_axis',(-1.,0.,0.));
#1458=DIRECTION('center_axis',(0.,0.,-1.));
#1459=DIRECTION('ref_axis',(-1.,0.,0.));
#1460=DIRECTION('center_axis',(0.,0.,-1.));
#1461=DIRECTION('ref_axis',(-1.,0.,0.));
#1462=DIRECTION('',(0.,0.,-1.));
#1463=DIRECTION('center_axis',(0.,0.,1.));
#1464=DIRECTION('ref_axis',(-1.,0.,0.));
#1465=DIRECTION('center_axis',(0.,0.,-1.));
#1466=DIRECTION('ref_axis',(-1.,0.,0.));
#1467=DIRECTION('center_axis',(0.,0.,-1.));
#1468=DIRECTION('ref_axis',(-1.,0.,0.));
#1469=DIRECTION('',(0.,0.,-1.));
#1470=DIRECTION('center_axis',(0.,0.,1.));
#1471=DIRECTION('ref_axis',(-1.,0.,0.));
#1472=DIRECTION('center_axis',(1.,0.,0.));
#1473=DIRECTION('ref_axis',(0.,1.,0.));
#1474=DIRECTION('',(0.,1.,0.));
#1475=DIRECTION('',(0.,0.,1.));
#1476=DIRECTION('',(0.,1.,0.));
#1477=DIRECTION('',(0.,0.,1.));
#1478=DIRECTION('center_axis',(0.,1.,0.));
#1479=DIRECTION('ref_axis',(-1.,0.,0.));
#1480=DIRECTION('',(1.,0.,0.));
#1481=DIRECTION('',(0.,0.,1.));
#1482=DIRECTION('',(-1.,0.,0.));
#1483=DIRECTION('center_axis',(0.,-1.,0.));
#1484=DIRECTION('ref_axis',(1.,0.,0.));
#1485=DIRECTION('',(1.,0.,0.));
#1486=DIRECTION('',(1.,0.,0.));
#1487=DIRECTION('',(0.,0.,1.));
#1488=DIRECTION('center_axis',(-1.,0.,0.));
#1489=DIRECTION('ref_axis',(0.,-1.,0.));
#1490=DIRECTION('',(0.,1.,0.));
#1491=DIRECTION('',(0.,-1.,0.));
#1492=DIRECTION('center_axis',(1.,0.,0.));
#1493=DIRECTION('ref_axis',(0.,1.,0.));
#1494=DIRECTION('',(0.,-1.,0.));
#1495=DIRECTION('',(0.,0.,1.));
#1496=DIRECTION('',(0.,1.,0.));
#1497=DIRECTION('',(0.,0.,1.));
#1498=DIRECTION('center_axis',(0.,-1.,0.));
#1499=DIRECTION('ref_axis',(1.,0.,0.));
#1500=DIRECTION('',(-1.,0.,0.));
#1501=DIRECTION('',(1.,0.,0.));
#1502=DIRECTION('',(0.,0.,1.));
#1503=DIRECTION('center_axis',(-1.,0.,0.));
#1504=DIRECTION('ref_axis',(0.,-1.,0.));
#1505=DIRECTION('',(0.,1.,0.));
#1506=DIRECTION('',(0.,-1.,0.));
#1507=DIRECTION('',(0.,0.,1.));
#1508=DIRECTION('center_axis',(0.,1.,0.));
#1509=DIRECTION('ref_axis',(-1.,0.,0.));
#1510=DIRECTION('',(1.,0.,0.));
#1511=DIRECTION('',(-1.,0.,0.));
#1512=DIRECTION('center_axis',(0.,0.,1.));
#1513=DIRECTION('ref_axis',(1.,0.,0.));
#1514=DIRECTION('center_axis',(0.,0.,-1.));
#1515=DIRECTION('ref_axis',(0.,1.,0.));
#1516=DIRECTION('',(1.,0.,0.));
#1517=DIRECTION('center_axis',(0.,0.,-1.));
#1518=DIRECTION('ref_axis',(1.,0.,0.));
#1519=DIRECTION('',(0.,-1.,0.));
#1520=DIRECTION('center_axis',(0.,0.,-1.));
#1521=DIRECTION('ref_axis',(0.,-1.,0.));
#1522=DIRECTION('',(-1.,0.,0.));
#1523=DIRECTION('center_axis',(0.,0.,-1.));
#1524=DIRECTION('ref_axis',(-1.,0.,0.));
#1525=DIRECTION('',(0.,1.,0.));
#1526=DIRECTION('center_axis',(0.,0.,-1.));
#1527=DIRECTION('ref_axis',(0.,1.,0.));
#1528=DIRECTION('',(1.,0.,0.));
#1529=DIRECTION('center_axis',(0.,0.,-1.));
#1530=DIRECTION('ref_axis',(1.,0.,0.));
#1531=DIRECTION('',(0.,-1.,0.));
#1532=DIRECTION('center_axis',(0.,0.,-1.));
#1533=DIRECTION('ref_axis',(0.,-1.,0.));
#1534=DIRECTION('',(-1.,0.,0.));
#1535=DIRECTION('center_axis',(0.,0.,-1.));
#1536=DIRECTION('ref_axis',(-1.,0.,0.));
#1537=DIRECTION('',(0.,1.,0.));
#1538=DIRECTION('center_axis',(0.,0.,-1.));
#1539=DIRECTION('ref_axis',(0.,1.,0.));
#1540=DIRECTION('',(1.,0.,0.));
#1541=DIRECTION('center_axis',(0.,0.,-1.));
#1542=DIRECTION('ref_axis',(1.,0.,0.));
#1543=DIRECTION('',(0.,-1.,0.));
#1544=DIRECTION('center_axis',(0.,0.,-1.));
#1545=DIRECTION('ref_axis',(0.,-1.,0.));
#1546=DIRECTION('',(-1.,0.,0.));
#1547=DIRECTION('center_axis',(0.,0.,-1.));
#1548=DIRECTION('ref_axis',(-1.,0.,0.));
#1549=DIRECTION('',(0.,1.,0.));
#1550=DIRECTION('center_axis',(0.,0.,1.));
#1551=DIRECTION('ref_axis',(-1.,0.,0.));
#1552=DIRECTION('center_axis',(1.,0.,0.));
#1553=DIRECTION('ref_axis',(0.,1.,0.));
#1554=DIRECTION('',(0.,1.,0.));
#1555=DIRECTION('',(0.,0.,1.));
#1556=DIRECTION('',(0.,0.,1.));
#1557=DIRECTION('center_axis',(0.,0.,1.));
#1558=DIRECTION('ref_axis',(-1.,0.,0.));
#1559=DIRECTION('center_axis',(0.,0.,-1.));
#1560=DIRECTION('ref_axis',(-1.,0.,0.));
#1561=DIRECTION('',(0.,0.,1.));
#1562=DIRECTION('center_axis',(0.,1.,0.));
#1563=DIRECTION('ref_axis',(-1.,0.,0.));
#1564=DIRECTION('',(-1.,0.,0.));
#1565=DIRECTION('',(0.,0.,1.));
#1566=DIRECTION('center_axis',(0.,0.,1.));
#1567=DIRECTION('ref_axis',(0.,-1.,0.));
#1568=DIRECTION('center_axis',(0.,0.,-1.));
#1569=DIRECTION('ref_axis',(0.,-1.,0.));
#1570=DIRECTION('',(0.,0.,1.));
#1571=DIRECTION('center_axis',(-1.,0.,0.));
#1572=DIRECTION('ref_axis',(0.,-1.,0.));
#1573=DIRECTION('',(0.,-1.,0.));
#1574=DIRECTION('',(0.,0.,1.));
#1575=DIRECTION('center_axis',(0.,0.,1.));
#1576=DIRECTION('ref_axis',(1.,0.,0.));
#1577=DIRECTION('center_axis',(0.,0.,-1.));
#1578=DIRECTION('ref_axis',(1.,0.,0.));
#1579=DIRECTION('',(0.,0.,1.));
#1580=DIRECTION('center_axis',(0.,-1.,0.));
#1581=DIRECTION('ref_axis',(1.,0.,0.));
#1582=DIRECTION('',(1.,0.,0.));
#1583=DIRECTION('',(0.,0.,1.));
#1584=DIRECTION('center_axis',(0.,0.,1.));
#1585=DIRECTION('ref_axis',(0.,1.,0.));
#1586=DIRECTION('center_axis',(0.,0.,-1.));
#1587=DIRECTION('ref_axis',(0.,1.,0.));
#1588=DIRECTION('center_axis',(1.,0.,0.));
#1589=DIRECTION('ref_axis',(0.,1.,0.));
#1590=DIRECTION('',(0.,1.,0.));
#1591=DIRECTION('',(0.,0.,1.));
#1592=DIRECTION('',(0.,0.,1.));
#1593=DIRECTION('center_axis',(0.,0.,1.));
#1594=DIRECTION('ref_axis',(-1.,0.,0.));
#1595=DIRECTION('center_axis',(0.,0.,-1.));
#1596=DIRECTION('ref_axis',(-1.,0.,0.));
#1597=DIRECTION('',(0.,0.,1.));
#1598=DIRECTION('center_axis',(0.,1.,0.));
#1599=DIRECTION('ref_axis',(-1.,0.,0.));
#1600=DIRECTION('',(-1.,0.,0.));
#1601=DIRECTION('',(0.,0.,1.));
#1602=DIRECTION('center_axis',(0.,0.,1.));
#1603=DIRECTION('ref_axis',(0.,-1.,0.));
#1604=DIRECTION('center_axis',(0.,0.,-1.));
#1605=DIRECTION('ref_axis',(0.,-1.,0.));
#1606=DIRECTION('',(0.,0.,1.));
#1607=DIRECTION('center_axis',(-1.,0.,0.));
#1608=DIRECTION('ref_axis',(0.,-1.,0.));
#1609=DIRECTION('',(0.,-1.,0.));
#1610=DIRECTION('',(0.,0.,1.));
#1611=DIRECTION('center_axis',(0.,0.,1.));
#1612=DIRECTION('ref_axis',(1.,0.,0.));
#1613=DIRECTION('center_axis',(0.,0.,-1.));
#1614=DIRECTION('ref_axis',(1.,0.,0.));
#1615=DIRECTION('',(0.,0.,1.));
#1616=DIRECTION('center_axis',(0.,-1.,0.));
#1617=DIRECTION('ref_axis',(1.,0.,0.));
#1618=DIRECTION('',(1.,0.,0.));
#1619=DIRECTION('',(0.,0.,1.));
#1620=DIRECTION('center_axis',(0.,0.,1.));
#1621=DIRECTION('ref_axis',(0.,1.,0.));
#1622=DIRECTION('center_axis',(0.,0.,-1.));
#1623=DIRECTION('ref_axis',(0.,1.,0.));
#1624=DIRECTION('center_axis',(1.,0.,0.));
#1625=DIRECTION('ref_axis',(0.,1.,0.));
#1626=DIRECTION('',(0.,1.,0.));
#1627=DIRECTION('',(0.,0.,1.));
#1628=DIRECTION('',(0.,0.,1.));
#1629=DIRECTION('center_axis',(0.,0.,1.));
#1630=DIRECTION('ref_axis',(-1.,0.,0.));
#1631=DIRECTION('center_axis',(0.,0.,-1.));
#1632=DIRECTION('ref_axis',(-1.,0.,0.));
#1633=DIRECTION('',(0.,0.,1.));
#1634=DIRECTION('center_axis',(0.,1.,0.));
#1635=DIRECTION('ref_axis',(-1.,0.,0.));
#1636=DIRECTION('',(-1.,0.,0.));
#1637=DIRECTION('',(0.,0.,1.));
#1638=DIRECTION('center_axis',(0.,0.,1.));
#1639=DIRECTION('ref_axis',(0.,-1.,0.));
#1640=DIRECTION('center_axis',(0.,0.,-1.));
#1641=DIRECTION('ref_axis',(0.,-1.,0.));
#1642=DIRECTION('',(0.,0.,1.));
#1643=DIRECTION('center_axis',(-1.,0.,0.));
#1644=DIRECTION('ref_axis',(0.,-1.,0.));
#1645=DIRECTION('',(0.,-1.,0.));
#1646=DIRECTION('',(0.,0.,1.));
#1647=DIRECTION('center_axis',(0.,0.,1.));
#1648=DIRECTION('ref_axis',(1.,0.,0.));
#1649=DIRECTION('center_axis',(0.,0.,-1.));
#1650=DIRECTION('ref_axis',(1.,0.,0.));
#1651=DIRECTION('',(0.,0.,1.));
#1652=DIRECTION('center_axis',(0.,-1.,0.));
#1653=DIRECTION('ref_axis',(1.,0.,0.));
#1654=DIRECTION('',(1.,0.,0.));
#1655=DIRECTION('',(0.,0.,1.));
#1656=DIRECTION('center_axis',(0.,0.,1.));
#1657=DIRECTION('ref_axis',(0.,1.,0.));
#1658=DIRECTION('center_axis',(0.,0.,-1.));
#1659=DIRECTION('ref_axis',(0.,1.,0.));
#1660=DIRECTION('center_axis',(0.,0.,1.));
#1661=DIRECTION('ref_axis',(1.,0.,0.));
#1662=CARTESIAN_POINT('',(0.,0.,0.));
#1663=CARTESIAN_POINT('Origin',(-10.0000001490116,31.,7.00000010430813));
#1664=CARTESIAN_POINT('',(10.0000001490116,41.,7.00000010430813));
#1665=CARTESIAN_POINT('',(-10.0000001490116,41.,7.00000010430813));
#1666=CARTESIAN_POINT('',(6.9999999254942,41.,7.00000010430813));
#1667=CARTESIAN_POINT('',(10.0000001490116,31.,7.00000010430813));
#1668=CARTESIAN_POINT('',(10.0000001490116,31.,7.00000010430813));
#1669=CARTESIAN_POINT('',(-10.0000001490116,31.,7.00000010430813));
#1670=CARTESIAN_POINT('',(-12.0000000745058,31.,7.00000010430813));
#1671=CARTESIAN_POINT('',(-10.0000001490116,31.,7.00000010430813));
#1672=CARTESIAN_POINT('Origin',(-10.0000001490116,31.,3.00000004470348));
#1673=CARTESIAN_POINT('',(-10.0000001490116,41.,3.00000004470348));
#1674=CARTESIAN_POINT('',(-10.0000001490116,41.,1.50000002235174));
#1675=CARTESIAN_POINT('',(-10.0000001490116,31.,3.00000004470348));
#1676=CARTESIAN_POINT('',(-10.0000001490116,31.,1.50000002235174));
#1677=CARTESIAN_POINT('',(-10.0000001490116,31.,3.00000004470348));
#1678=CARTESIAN_POINT('Origin',(10.0000001490116,31.,7.00000010430813));
#1679=CARTESIAN_POINT('',(10.0000001490116,41.,3.00000004470348));
#1680=CARTESIAN_POINT('',(10.0000001490116,41.,3.50000005215406));
#1681=CARTESIAN_POINT('',(10.0000001490116,31.,3.00000004470348));
#1682=CARTESIAN_POINT('',(10.0000001490116,31.,3.00000004470348));
#1683=CARTESIAN_POINT('',(10.0000001490116,31.,3.50000005215406));
#1684=CARTESIAN_POINT('Origin',(-14.,31.,0.));
#1685=CARTESIAN_POINT('',(14.,31.,3.));
#1686=CARTESIAN_POINT('',(-14.,31.,3.));
#1687=CARTESIAN_POINT('',(14.,31.,10.));
#1688=CARTESIAN_POINT('',(14.,31.,0.));
#1689=CARTESIAN_POINT('',(-14.,31.,10.));
#1690=CARTESIAN_POINT('',(-14.,31.,10.));
#1691=CARTESIAN_POINT('',(-14.,31.,3.));
#1692=CARTESIAN_POINT('',(-14.,31.,0.));
#1693=CARTESIAN_POINT('',(-14.,31.,3.));
#1694=CARTESIAN_POINT('Origin',(21.0000003129243,37.000000551343,15.));
#1695=CARTESIAN_POINT('',(23.3500003129244,37.000000551343,10.));
#1696=CARTESIAN_POINT('Origin',(21.0000003129243,37.000000551343,10.));
#1697=CARTESIAN_POINT('',(23.3500003129244,37.000000551343,-4.44089209850063E-15));
#1698=CARTESIAN_POINT('',(23.3500003129244,37.000000551343,15.));
#1699=CARTESIAN_POINT('Origin',(21.0000003129243,37.000000551343,0.));
#1700=CARTESIAN_POINT('Origin',(-21.0000003129244,37.000000551343,15.));
#1701=CARTESIAN_POINT('',(-18.6500003129244,37.000000551343,10.));
#1702=CARTESIAN_POINT('Origin',(-21.0000003129244,37.000000551343,10.));
#1703=CARTESIAN_POINT('',(-18.6500003129244,37.000000551343,-4.44089209850063E-15));
#1704=CARTESIAN_POINT('',(-18.6500003129244,37.000000551343,15.));
#1705=CARTESIAN_POINT('Origin',(-21.0000003129244,37.000000551343,0.));
#1706=CARTESIAN_POINT('Origin',(21.0000003129245,-37.000000551343,15.));
#1707=CARTESIAN_POINT('',(23.3500003129245,-37.000000551343,10.));
#1708=CARTESIAN_POINT('Origin',(21.0000003129245,-37.000000551343,10.));
#1709=CARTESIAN_POINT('',(23.3500003129245,-37.000000551343,-4.44089209850063E-15));
#1710=CARTESIAN_POINT('',(23.3500003129245,-37.000000551343,15.));
#1711=CARTESIAN_POINT('Origin',(21.0000003129245,-37.000000551343,0.));
#1712=CARTESIAN_POINT('Origin',(-21.0000003129244,-37.0000005513429,15.));
#1713=CARTESIAN_POINT('',(-18.6500003129244,-37.0000005513429,10.));
#1714=CARTESIAN_POINT('Origin',(-21.0000003129244,-37.0000005513429,10.));
#1715=CARTESIAN_POINT('',(-18.6500003129244,-37.0000005513429,-4.44089209850063E-15));
#1716=CARTESIAN_POINT('',(-18.6500003129244,-37.0000005513429,15.));
#1717=CARTESIAN_POINT('Origin',(-21.0000003129244,-37.0000005513429,0.));
#1718=CARTESIAN_POINT('Origin',(-14.,-31.,0.));
#1719=CARTESIAN_POINT('',(-14.,-31.,3.));
#1720=CARTESIAN_POINT('',(-14.,-31.,3.));
#1721=CARTESIAN_POINT('',(-14.,-31.,10.));
#1722=CARTESIAN_POINT('',(-14.,-31.,10.));
#1723=CARTESIAN_POINT('',(-14.,-31.,0.));
#1724=CARTESIAN_POINT('Origin',(14.,-31.,0.));
#1725=CARTESIAN_POINT('',(14.,-31.,3.));
#1726=CARTESIAN_POINT('',(14.,-31.,3.));
#1727=CARTESIAN_POINT('',(14.,-31.,10.));
#1728=CARTESIAN_POINT('',(14.,-31.,10.));
#1729=CARTESIAN_POINT('',(14.,-31.,0.));
#1730=CARTESIAN_POINT('Origin',(14.,31.,0.));
#1731=CARTESIAN_POINT('',(14.,31.,3.));
#1732=CARTESIAN_POINT('',(14.,31.,10.));
#1733=CARTESIAN_POINT('Origin',(24.,-41.,0.));
#1734=CARTESIAN_POINT('',(24.,41.,0.));
#1735=CARTESIAN_POINT('',(24.,-41.,0.));
#1736=CARTESIAN_POINT('',(24.,41.,0.));
#1737=CARTESIAN_POINT('',(24.,41.,10.));
#1738=CARTESIAN_POINT('',(24.,41.,0.));
#1739=CARTESIAN_POINT('',(24.,-41.,10.));
#1740=CARTESIAN_POINT('',(24.,41.,10.));
#1741=CARTESIAN_POINT('',(24.,-41.,0.));
#1742=CARTESIAN_POINT('Origin',(-24.,-41.,0.));
#1743=CARTESIAN_POINT('',(-24.,-41.,0.));
#1744=CARTESIAN_POINT('',(24.,-41.,0.));
#1745=CARTESIAN_POINT('',(-24.,-41.,10.));
#1746=CARTESIAN_POINT('',(24.,-41.,10.));
#1747=CARTESIAN_POINT('',(-24.,-41.,0.));
#1748=CARTESIAN_POINT('Origin',(-24.,41.,0.));
#1749=CARTESIAN_POINT('',(-24.,41.,0.));
#1750=CARTESIAN_POINT('',(-24.,-41.,0.));
#1751=CARTESIAN_POINT('',(-24.,41.,10.));
#1752=CARTESIAN_POINT('',(-24.,-41.,10.));
#1753=CARTESIAN_POINT('',(-24.,41.,0.));
#1754=CARTESIAN_POINT('Origin',(24.,41.,0.));
#1755=CARTESIAN_POINT('',(-24.,41.,0.));
#1756=CARTESIAN_POINT('',(-24.,41.,10.));
#1757=CARTESIAN_POINT('',(17.0000000745058,41.,3.00000004470348));
#1758=CARTESIAN_POINT('Origin',(0.,0.,10.));
#1759=CARTESIAN_POINT('Origin',(0.,0.,0.));
#1760=CARTESIAN_POINT('',(-3.,0.,3.));
#1761=CARTESIAN_POINT('Origin',(0.,0.,3.));
#1762=CARTESIAN_POINT('',(-3.,-3.67394039744206E-16,0.));
#1763=CARTESIAN_POINT('',(-3.,-3.67394039744206E-16,0.));
#1764=CARTESIAN_POINT('Origin',(0.,0.,0.));
#1765=CARTESIAN_POINT('Origin',(0.,-19.05,0.));
#1766=CARTESIAN_POINT('',(-3.,-19.05,3.));
#1767=CARTESIAN_POINT('Origin',(0.,-19.05,3.));
#1768=CARTESIAN_POINT('',(-3.,-19.05,0.));
#1769=CARTESIAN_POINT('',(-3.,-19.05,0.));
#1770=CARTESIAN_POINT('Origin',(0.,-19.05,0.));
#1771=CARTESIAN_POINT('Origin',(0.,19.05,0.));
#1772=CARTESIAN_POINT('',(-3.,19.05,3.));
#1773=CARTESIAN_POINT('Origin',(0.,19.05,3.));
#1774=CARTESIAN_POINT('',(-3.,19.05,0.));
#1775=CARTESIAN_POINT('',(-3.,19.05,0.));
#1776=CARTESIAN_POINT('Origin',(0.,19.05,0.));
#1777=CARTESIAN_POINT('Origin',(0.,0.,3.));
#1778=CARTESIAN_POINT('Origin',(0.,0.,0.));
#1779=CARTESIAN_POINT('Origin',(21.0000003129245,-37.000000551343,15.));
#1780=CARTESIAN_POINT('',(22.7000003129245,-37.000000551343,15.));
#1781=CARTESIAN_POINT('Origin',(21.0000003129245,-37.000000551343,15.));
#1782=CARTESIAN_POINT('',(22.7000003129245,-37.000000551343,10.));
#1783=CARTESIAN_POINT('',(22.7000003129245,-37.000000551343,15.));
#1784=CARTESIAN_POINT('Origin',(21.0000003129245,-37.000000551343,10.));
#1785=CARTESIAN_POINT('Origin',(21.0000003129243,37.000000551343,15.));
#1786=CARTESIAN_POINT('',(22.7000003129243,37.000000551343,15.));
#1787=CARTESIAN_POINT('Origin',(21.0000003129243,37.000000551343,15.));
#1788=CARTESIAN_POINT('',(22.7000003129243,37.000000551343,10.));
#1789=CARTESIAN_POINT('',(22.7000003129243,37.000000551343,15.));
#1790=CARTESIAN_POINT('Origin',(21.0000003129243,37.000000551343,10.));
#1791=CARTESIAN_POINT('Origin',(-21.0000003129244,-37.0000005513429,15.));
#1792=CARTESIAN_POINT('',(-19.3000003129244,-37.0000005513429,15.));
#1793=CARTESIAN_POINT('Origin',(-21.0000003129244,-37.0000005513429,15.));
#1794=CARTESIAN_POINT('',(-19.3000003129244,-37.0000005513429,10.));
#1795=CARTESIAN_POINT('',(-19.3000003129244,-37.0000005513429,15.));
#1796=CARTESIAN_POINT('Origin',(-21.0000003129244,-37.0000005513429,10.));
#1797=CARTESIAN_POINT('Origin',(-21.0000003129244,37.000000551343,15.));
#1798=CARTESIAN_POINT('',(-19.3000003129244,37.000000551343,15.));
#1799=CARTESIAN_POINT('Origin',(-21.0000003129244,37.000000551343,15.));
#1800=CARTESIAN_POINT('',(-19.3000003129244,37.000000551343,10.));
#1801=CARTESIAN_POINT('',(-19.3000003129244,37.000000551343,15.));
#1802=CARTESIAN_POINT('Origin',(-21.0000003129244,37.000000551343,10.));
#1803=CARTESIAN_POINT('Origin',(-10.0000001490116,-27.15,10.));
#1804=CARTESIAN_POINT('',(-10.,-27.15,12.));
#1805=CARTESIAN_POINT('',(-10.,30.,12.));
#1806=CARTESIAN_POINT('',(-10.,-27.15,12.));
#1807=CARTESIAN_POINT('',(-10.,-27.15,10.));
#1808=CARTESIAN_POINT('',(-10.,-27.15,10.));
#1809=CARTESIAN_POINT('',(-10.0000001490116,30.,10.));
#1810=CARTESIAN_POINT('',(-10.0000001490116,41.0000006109476,10.));
#1811=CARTESIAN_POINT('',(-10.0000001490116,30.,10.));
#1812=CARTESIAN_POINT('Origin',(9.05,-27.15,10.));
#1813=CARTESIAN_POINT('',(9.05,-27.15,12.));
#1814=CARTESIAN_POINT('',(-10.,-27.15,12.));
#1815=CARTESIAN_POINT('',(9.05,-27.15,10.));
#1816=CARTESIAN_POINT('',(9.05,-27.15,10.));
#1817=CARTESIAN_POINT('',(-10.,-27.15,10.));
#1818=CARTESIAN_POINT('Origin',(-10.0000001490116,30.,10.));
#1819=CARTESIAN_POINT('',(9.05,30.,12.));
#1820=CARTESIAN_POINT('',(-10.,30.,12.));
#1821=CARTESIAN_POINT('',(9.05,30.,10.));
#1822=CARTESIAN_POINT('',(24.0000003576279,30.,10.));
#1823=CARTESIAN_POINT('',(9.05,30.,10.));
#1824=CARTESIAN_POINT('Origin',(9.05,30.,10.));
#1825=CARTESIAN_POINT('',(9.05,-27.15,12.));
#1826=CARTESIAN_POINT('',(9.05,-27.15,10.));
#1827=CARTESIAN_POINT('Origin',(24.0000003576279,-41.0000006109476,10.));
#1828=CARTESIAN_POINT('',(24.0000003576279,41.0000006109476,10.));
#1829=CARTESIAN_POINT('',(24.0000003576279,-41.0000006109476,10.));
#1830=CARTESIAN_POINT('',(24.0000003576279,-27.15,10.));
#1831=CARTESIAN_POINT('',(24.0000003576279,41.0000006109476,15.));
#1832=CARTESIAN_POINT('',(24.0000003576279,41.0000006109476,10.));
#1833=CARTESIAN_POINT('',(24.0000003576279,-41.0000006109476,15.));
#1834=CARTESIAN_POINT('',(24.0000003576279,-27.15,15.));
#1835=CARTESIAN_POINT('',(24.0000003576279,-41.0000006109476,10.));
#1836=CARTESIAN_POINT('Origin',(-24.0000003576279,-41.0000006109476,10.));
#1837=CARTESIAN_POINT('',(-24.0000003576279,-41.0000006109476,10.));
#1838=CARTESIAN_POINT('',(-10.0000001490116,-41.0000006109476,10.));
#1839=CARTESIAN_POINT('',(-24.0000003576279,-41.0000006109476,15.));
#1840=CARTESIAN_POINT('',(-10.0000001490116,-41.0000006109476,15.));
#1841=CARTESIAN_POINT('',(-24.0000003576279,-41.0000006109476,10.));
#1842=CARTESIAN_POINT('Origin',(-24.0000003576279,41.0000006109476,10.));
#1843=CARTESIAN_POINT('',(-24.0000003576279,41.0000006109476,10.));
#1844=CARTESIAN_POINT('',(-24.0000003576279,-41.0000006109476,10.));
#1845=CARTESIAN_POINT('',(-24.0000003576279,41.0000006109476,15.));
#1846=CARTESIAN_POINT('',(-24.0000003576279,-41.0000006109476,15.));
#1847=CARTESIAN_POINT('',(-24.0000003576279,41.0000006109476,10.));
#1848=CARTESIAN_POINT('Origin',(24.0000003576279,41.0000006109476,10.));
#1849=CARTESIAN_POINT('',(-10.0000001490116,41.0000006109476,10.));
#1850=CARTESIAN_POINT('',(-10.0000001490116,41.0000006109476,15.));
#1851=CARTESIAN_POINT('Origin',(0.,0.,15.));
#1852=CARTESIAN_POINT('',(-7.475,26.975,15.));
#1853=CARTESIAN_POINT('',(-6.975,27.475,15.));
#1854=CARTESIAN_POINT('Origin',(-6.975,26.975,15.));
#1855=CARTESIAN_POINT('',(6.025,27.475,15.));
#1856=CARTESIAN_POINT('',(-6.975,27.475,15.));
#1857=CARTESIAN_POINT('',(6.525,26.975,15.));
#1858=CARTESIAN_POINT('Origin',(6.025,26.975,15.));
#1859=CARTESIAN_POINT('',(6.525,13.975,15.));
#1860=CARTESIAN_POINT('',(6.525,26.975,15.));
#1861=CARTESIAN_POINT('',(6.025,13.475,15.));
#1862=CARTESIAN_POINT('Origin',(6.025,13.975,15.));
#1863=CARTESIAN_POINT('',(-6.975,13.475,15.));
#1864=CARTESIAN_POINT('',(-6.975,13.475,15.));
#1865=CARTESIAN_POINT('',(-7.475,13.975,15.));
#1866=CARTESIAN_POINT('Origin',(-6.975,13.975,15.));
#1867=CARTESIAN_POINT('',(-7.475,26.975,15.));
#1868=CARTESIAN_POINT('',(-7.475,-11.125,15.));
#1869=CARTESIAN_POINT('',(-6.975,-10.625,15.));
#1870=CARTESIAN_POINT('Origin',(-6.975,-11.125,15.));
#1871=CARTESIAN_POINT('',(6.025,-10.625,15.));
#1872=CARTESIAN_POINT('',(-6.975,-10.625,15.));
#1873=CARTESIAN_POINT('',(6.525,-11.125,15.));
#1874=CARTESIAN_POINT('Origin',(6.025,-11.125,15.));
#1875=CARTESIAN_POINT('',(6.525,-24.125,15.));
#1876=CARTESIAN_POINT('',(6.525,-11.125,15.));
#1877=CARTESIAN_POINT('',(6.025,-24.625,15.));
#1878=CARTESIAN_POINT('Origin',(6.025,-24.125,15.));
#1879=CARTESIAN_POINT('',(-6.975,-24.625,15.));
#1880=CARTESIAN_POINT('',(-6.975,-24.625,15.));
#1881=CARTESIAN_POINT('',(-7.475,-24.125,15.));
#1882=CARTESIAN_POINT('Origin',(-6.975,-24.125,15.));
#1883=CARTESIAN_POINT('',(-7.475,-11.125,15.));
#1884=CARTESIAN_POINT('',(-7.475,7.925,15.));
#1885=CARTESIAN_POINT('',(-6.975,8.425,15.));
#1886=CARTESIAN_POINT('Origin',(-6.975,7.925,15.));
#1887=CARTESIAN_POINT('',(6.025,8.425,15.));
#1888=CARTESIAN_POINT('',(-6.975,8.425,15.));
#1889=CARTESIAN_POINT('',(6.525,7.925,15.));
#1890=CARTESIAN_POINT('Origin',(6.025,7.925,15.));
#1891=CARTESIAN_POINT('',(6.525,-5.075,15.));
#1892=CARTESIAN_POINT('',(6.525,7.925,15.));
#1893=CARTESIAN_POINT('',(6.025,-5.57500000000001,15.));
#1894=CARTESIAN_POINT('Origin',(6.025,-5.075,15.));
#1895=CARTESIAN_POINT('',(-6.975,-5.575,15.));
#1896=CARTESIAN_POINT('',(-6.975,-5.57500000000001,15.));
#1897=CARTESIAN_POINT('',(-7.475,-5.075,15.));
#1898=CARTESIAN_POINT('Origin',(-6.975,-5.075,15.));
#1899=CARTESIAN_POINT('',(-7.475,7.925,15.));
#1900=CARTESIAN_POINT('Origin',(0.,0.,10.));
#1901=CARTESIAN_POINT('Origin',(-7.475,-5.075,12.));
#1902=CARTESIAN_POINT('',(-7.475,-5.075,12.));
#1903=CARTESIAN_POINT('',(-7.475,7.925,12.));
#1904=CARTESIAN_POINT('',(-7.475,7.925,12.));
#1905=CARTESIAN_POINT('',(-7.475,7.925,12.));
#1906=CARTESIAN_POINT('',(-7.475,-5.075,12.));
#1907=CARTESIAN_POINT('Origin',(-6.975,-5.075,12.));
#1908=CARTESIAN_POINT('',(-6.975,-5.575,12.));
#1909=CARTESIAN_POINT('Origin',(-6.975,-5.075,12.));
#1910=CARTESIAN_POINT('',(-6.975,-5.575,12.));
#1911=CARTESIAN_POINT('Origin',(6.025,-5.57500000000001,12.));
#1912=CARTESIAN_POINT('',(6.025,-5.57500000000001,12.));
#1913=CARTESIAN_POINT('',(-6.975,-5.57500000000001,12.));
#1914=CARTESIAN_POINT('',(6.025,-5.57500000000001,12.));
#1915=CARTESIAN_POINT('Origin',(6.025,-5.075,12.));
#1916=CARTESIAN_POINT('',(6.525,-5.075,12.));
#1917=CARTESIAN_POINT('Origin',(6.025,-5.075,12.));
#1918=CARTESIAN_POINT('',(6.525,-5.075,12.));
#1919=CARTESIAN_POINT('Origin',(6.525,7.925,12.));
#1920=CARTESIAN_POINT('',(6.525,7.925,12.));
#1921=CARTESIAN_POINT('',(6.525,7.925,12.));
#1922=CARTESIAN_POINT('',(6.525,7.925,12.));
#1923=CARTESIAN_POINT('Origin',(6.025,7.925,12.));
#1924=CARTESIAN_POINT('',(6.025,8.425,12.));
#1925=CARTESIAN_POINT('Origin',(6.025,7.925,12.));
#1926=CARTESIAN_POINT('',(6.025,8.425,12.));
#1927=CARTESIAN_POINT('Origin',(-6.975,8.425,12.));
#1928=CARTESIAN_POINT('',(-6.975,8.425,12.));
#1929=CARTESIAN_POINT('',(-6.975,8.425,12.));
#1930=CARTESIAN_POINT('',(-6.975,8.425,12.));
#1931=CARTESIAN_POINT('Origin',(-6.975,7.925,12.));
#1932=CARTESIAN_POINT('Origin',(-6.975,7.925,12.));
#1933=CARTESIAN_POINT('Origin',(-7.475,-24.125,12.));
#1934=CARTESIAN_POINT('',(-7.475,-24.125,12.));
#1935=CARTESIAN_POINT('',(-7.475,-11.125,12.));
#1936=CARTESIAN_POINT('',(-7.475,-11.125,12.));
#1937=CARTESIAN_POINT('',(-7.475,-11.125,12.));
#1938=CARTESIAN_POINT('',(-7.475,-24.125,12.));
#1939=CARTESIAN_POINT('Origin',(-6.975,-24.125,12.));
#1940=CARTESIAN_POINT('',(-6.975,-24.625,12.));
#1941=CARTESIAN_POINT('Origin',(-6.975,-24.125,12.));
#1942=CARTESIAN_POINT('',(-6.975,-24.625,12.));
#1943=CARTESIAN_POINT('Origin',(6.025,-24.625,12.));
#1944=CARTESIAN_POINT('',(6.025,-24.625,12.));
#1945=CARTESIAN_POINT('',(-6.975,-24.625,12.));
#1946=CARTESIAN_POINT('',(6.025,-24.625,12.));
#1947=CARTESIAN_POINT('Origin',(6.025,-24.125,12.));
#1948=CARTESIAN_POINT('',(6.525,-24.125,12.));
#1949=CARTESIAN_POINT('Origin',(6.025,-24.125,12.));
#1950=CARTESIAN_POINT('',(6.525,-24.125,12.));
#1951=CARTESIAN_POINT('Origin',(6.525,-11.125,12.));
#1952=CARTESIAN_POINT('',(6.525,-11.125,12.));
#1953=CARTESIAN_POINT('',(6.525,-11.125,12.));
#1954=CARTESIAN_POINT('',(6.525,-11.125,12.));
#1955=CARTESIAN_POINT('Origin',(6.025,-11.125,12.));
#1956=CARTESIAN_POINT('',(6.025,-10.625,12.));
#1957=CARTESIAN_POINT('Origin',(6.025,-11.125,12.));
#1958=CARTESIAN_POINT('',(6.025,-10.625,12.));
#1959=CARTESIAN_POINT('Origin',(-6.975,-10.625,12.));
#1960=CARTESIAN_POINT('',(-6.975,-10.625,12.));
#1961=CARTESIAN_POINT('',(-6.975,-10.625,12.));
#1962=CARTESIAN_POINT('',(-6.975,-10.625,12.));
#1963=CARTESIAN_POINT('Origin',(-6.975,-11.125,12.));
#1964=CARTESIAN_POINT('Origin',(-6.975,-11.125,12.));
#1965=CARTESIAN_POINT('Origin',(-7.475,13.975,12.));
#1966=CARTESIAN_POINT('',(-7.475,13.975,12.));
#1967=CARTESIAN_POINT('',(-7.475,26.975,12.));
#1968=CARTESIAN_POINT('',(-7.475,26.975,12.));
#1969=CARTESIAN_POINT('',(-7.475,26.975,12.));
#1970=CARTESIAN_POINT('',(-7.475,13.975,12.));
#1971=CARTESIAN_POINT('Origin',(-6.975,13.975,12.));
#1972=CARTESIAN_POINT('',(-6.975,13.475,12.));
#1973=CARTESIAN_POINT('Origin',(-6.975,13.975,12.));
#1974=CARTESIAN_POINT('',(-6.975,13.475,12.));
#1975=CARTESIAN_POINT('Origin',(6.025,13.475,12.));
#1976=CARTESIAN_POINT('',(6.025,13.475,12.));
#1977=CARTESIAN_POINT('',(-6.975,13.475,12.));
#1978=CARTESIAN_POINT('',(6.025,13.475,12.));
#1979=CARTESIAN_POINT('Origin',(6.025,13.975,12.));
#1980=CARTESIAN_POINT('',(6.525,13.975,12.));
#1981=CARTESIAN_POINT('Origin',(6.025,13.975,12.));
#1982=CARTESIAN_POINT('',(6.525,13.975,12.));
#1983=CARTESIAN_POINT('Origin',(6.525,26.975,12.));
#1984=CARTESIAN_POINT('',(6.525,26.975,12.));
#1985=CARTESIAN_POINT('',(6.525,26.975,12.));
#1986=CARTESIAN_POINT('',(6.525,26.975,12.));
#1987=CARTESIAN_POINT('Origin',(6.025,26.975,12.));
#1988=CARTESIAN_POINT('',(6.025,27.475,12.));
#1989=CARTESIAN_POINT('Origin',(6.025,26.975,12.));
#1990=CARTESIAN_POINT('',(6.025,27.475,12.));
#1991=CARTESIAN_POINT('Origin',(-6.975,27.475,12.));
#1992=CARTESIAN_POINT('',(-6.975,27.475,12.));
#1993=CARTESIAN_POINT('',(-6.975,27.475,12.));
#1994=CARTESIAN_POINT('',(-6.975,27.475,12.));
#1995=CARTESIAN_POINT('Origin',(-6.975,26.975,12.));
#1996=CARTESIAN_POINT('Origin',(-6.975,26.975,12.));
#1997=CARTESIAN_POINT('Origin',(-0.474999999999999,1.425,12.));
#1998=UNCERTAINTY_MEASURE_WITH_UNIT(LENGTH_MEASURE(0.01),#2002,
'DISTANCE_ACCURACY_VALUE',
'Maximum model space distance between geometric entities at asserted c
onnectivities');
#1999=UNCERTAINTY_MEASURE_WITH_UNIT(LENGTH_MEASURE(0.01),#2002,
'DISTANCE_ACCURACY_VALUE',
'Maximum model space distance between geometric entities at asserted c
onnectivities');
#2000=(
GEOMETRIC_REPRESENTATION_CONTEXT(3)
GLOBAL_UNCERTAINTY_ASSIGNED_CONTEXT((#1998))
GLOBAL_UNIT_ASSIGNED_CONTEXT((#2002,#2004,#2005))
REPRESENTATION_CONTEXT('','3D')
);
#2001=(
GEOMETRIC_REPRESENTATION_CONTEXT(3)
GLOBAL_UNCERTAINTY_ASSIGNED_CONTEXT((#1999))
GLOBAL_UNIT_ASSIGNED_CONTEXT((#2002,#2004,#2005))
REPRESENTATION_CONTEXT('','3D')
);
#2002=(
LENGTH_UNIT()
NAMED_UNIT(*)
SI_UNIT(.MILLI.,.METRE.)
);
#2003=(
LENGTH_UNIT()
NAMED_UNIT(*)
SI_UNIT($,.METRE.)
);
#2004=(
NAMED_UNIT(*)
PLANE_ANGLE_UNIT()
SI_UNIT($,.RADIAN.)
);
#2005=(
NAMED_UNIT(*)
SI_UNIT($,.STERADIAN.)
SOLID_ANGLE_UNIT()
);
#2006=SHAPE_DEFINITION_REPRESENTATION(#2007,#2008);
#2007=PRODUCT_DEFINITION_SHAPE('',$,#2010);
#2008=SHAPE_REPRESENTATION('',(#1222),#2000);
#2009=PRODUCT_DEFINITION_CONTEXT('part definition',#2014,'design');
#2010=PRODUCT_DEFINITION('2026-06-04-16-21-00-374','New ship',#2011,#2009);
#2011=PRODUCT_DEFINITION_FORMATION('',$,#2016);
#2012=PRODUCT_RELATED_PRODUCT_CATEGORY('New ship','New ship',(#2016));
#2013=APPLICATION_PROTOCOL_DEFINITION('international standard',
'automotive_design',2009,#2014);
#2014=APPLICATION_CONTEXT(
'Core Data for Automotive Mechanical Design Process');
#2015=PRODUCT_CONTEXT('part definition',#2014,'mechanical');
#2016=PRODUCT('2026-06-04-16-21-00-374','New ship',$,(#2015));
#2017=PRESENTATION_STYLE_ASSIGNMENT((#2020));
#2018=PRESENTATION_STYLE_ASSIGNMENT((#2021));
#2019=PRESENTATION_STYLE_ASSIGNMENT((#2022));
#2020=SURFACE_STYLE_USAGE(.BOTH.,#2023);
#2021=SURFACE_STYLE_USAGE(.BOTH.,#2024);
#2022=SURFACE_STYLE_USAGE(.BOTH.,#2025);
#2023=SURFACE_SIDE_STYLE('',(#2026));
#2024=SURFACE_SIDE_STYLE('',(#2027));
#2025=SURFACE_SIDE_STYLE('',(#2028));
#2026=SURFACE_STYLE_FILL_AREA(#2029);
#2027=SURFACE_STYLE_FILL_AREA(#2030);
#2028=SURFACE_STYLE_FILL_AREA(#2031);
#2029=FILL_AREA_STYLE('Steel - Satin',(#2032));
#2030=FILL_AREA_STYLE('Paint - Enamel Glossy (Yellow)',(#2033));
#2031=FILL_AREA_STYLE('Paint - Enamel Glossy (Red)',(#2034));
#2032=FILL_AREA_STYLE_COLOUR('Steel - Satin',#2035);
#2033=FILL_AREA_STYLE_COLOUR('Paint - Enamel Glossy (Yellow)',#2036);
#2034=FILL_AREA_STYLE_COLOUR('Paint - Enamel Glossy (Red)',#2037);
#2035=COLOUR_RGB('Steel - Satin',0.627450980392157,0.627450980392157,0.627450980392157);
#2036=COLOUR_RGB('Paint - Enamel Glossy (Yellow)',0.909803921568627,0.67843137254902,
0.137254901960784);
#2037=COLOUR_RGB('Paint - Enamel Glossy (Red)',0.768627450980392,0.207843137254902,
0.152941176470588);
ENDSEC;
END-ISO-10303-21;
